<svg xmlns="http://www.w3.org/2000/svg" viewBox="0 0 606.6 555.17"><defs><style>.cls-1{fill:#fff;}</style></defs><title>bh_bg</title><g id="Layer_2" data-name="Layer 2"><g id="Layer_1-2" data-name="Layer 1"><path d="M373.7,523.33c-1,.35-2,.64-2.89,1a519.9,519.9,0,0,1-80.93,23.33,382.68,382.68,0,0,1-51.94,6.93,284.39,284.39,0,0,1-38.91-.13c-21.54-1.66-42.46-6-62.11-15.29-14.88-7.07-27.72-16.77-37.77-30-.32-.42-.7-.8-1.19-1.35l-3.05.89a51.31,51.31,0,0,1-16.49,2.5c-9.33-.31-16.32-5.25-19.57-14a39.61,39.61,0,0,1-2.32-12.44q-.22-6.08-.07-12.17a5.84,5.84,0,0,0-3.47-5.9c-2.51-1.19-5.12-2.21-7.74-3.16-3.72-1.36-7.57-2.4-11.21-3.93a38.64,38.64,0,0,1-7.73-4.37c-5.26-3.85-7.62-9.26-7.39-15.72.41-11.37,5.85-19.47,16.24-24.09a77.59,77.59,0,0,1,8.47-2.73c.76-.24,1.54-.41,2.35-.62l-6.65-16.35c-1.08.38-2.08.74-3.08,1.07-5.9,1.94-11.77,4-17.71,5.76a16.07,16.07,0,0,1-5.36.41,8.06,8.06,0,0,1-8-8,21.2,21.2,0,0,1,1.07-6.88c2.3-7.16,6.48-13.23,11.53-18.73.61-.66,1.2-1.34,1.79-2,0-.06,0-.17.06-.46-.61-.2-1.25-.43-1.91-.62-12.1-3.5-18-11.81-17.74-24.45C.35,326.57,7,314.75,19.39,306c1.83-1.29,3.72-2.5,5.66-3.8-.39-3.1-.77-6.13-1.15-9.15A253.79,253.79,0,0,1,22,254.48C25.36,134.57,107.29,42.87,204.39,12.2A261.71,261.71,0,0,1,507.13,126.14a51.46,51.46,0,0,1,5.39,12.06c.2.68.48,1.34.78,2.18,2.72-.38,5.37-.81,8-1.1,8.76-1,17.45-.88,26,1.72a41,41,0,0,1,22.35,16.18A68.62,68.62,0,0,1,581,186.13a26.75,26.75,0,0,1-1,12.26c.84.55,1.64,1.1,2.45,1.6a61.9,61.9,0,0,1,17.33,15.3c3,4,5.47,8.27,6.45,13.26a15.37,15.37,0,0,1,.31,2.68c.07,4.57-2.13,7.79-6.48,9.19-2.2.71-4.5,1.09-7,1.67a8.79,8.79,0,0,0,.7,1.19c7.3,8.7,8.84,18.7,6.51,29.49a44.66,44.66,0,0,1-10.86,20.57l-2.06,2.27c1.19,4.34,2.55,8.46,3.44,12.67,3.3,15.64,1.85,31-2.92,46.15s-12.52,28.7-22,41.32c-11.89,15.8-25.93,29.5-41.14,42C499.08,459,471,476.59,441.73,492.28c-2.77,1.48-5.56,2.94-8.65,4.58a19.7,19.7,0,0,0,1.72,1c7.74,3.42,11.63,9.42,11.78,17.81.29,16.66-11.95,31.84-28.53,35.49a36.9,36.9,0,0,1-43.51-25.38C374.31,525,374,524.27,373.7,523.33ZM120.15,78.81l.42.35c-.35.79-.67,1.59-1,2.37-2.23,4.73-4.62,9.39-6.69,14.18a255.7,255.7,0,0,0-15.67,49.38,250.74,250.74,0,0,0-4.43,30.46c-.46,5.47-.41,11-.74,16.46a77.22,77.22,0,0,0,.85,17c3.42,21.21,13,39.17,28.93,53.64a88,88,0,0,0,39.77,20.89c15.76,3.66,31.81,5.16,47.93,5.84a287.89,287.89,0,0,0,40.5-1.11c10.56-1.05,21.1-2.49,31.59-4.14a402.59,402.59,0,0,0,59-14.3A524.72,524.72,0,0,0,428.52,233a461.48,461.48,0,0,0,42.84-25.76,17.73,17.73,0,0,0,3.48-3c8.26-9.56,16.17-19.44,22.63-30.29,8-13.48,8.33-27.57.37-41.11A234.41,234.41,0,0,0,457.6,81.48C407.38,33.66,347.49,10.4,278.22,11.12a224.94,224.94,0,0,0-47.71,5.58C168.79,30.76,118.9,63,81.35,114.1A250.05,250.05,0,0,0,36.08,299.38a40.86,40.86,0,0,0,15,26.4c.77.63,1.62,1.16,2.43,1.74a14.05,14.05,0,0,0-2.16-3.59,44.79,44.79,0,0,1-8.22-19.22,251.36,251.36,0,0,1-3.27-37.65,267,267,0,0,1,6-57.66,252.5,252.5,0,0,1,20.77-58.72,258.63,258.63,0,0,1,50.81-69.53C118.25,80.31,119.23,79.59,120.15,78.81Zm44.3,295.61-.32.4c1.54,1.73,3.1,3.45,4.63,5.18a64.52,64.52,0,0,0,14.68,12.68c12.21,7.43,25.33,10.17,39.36,7C235.08,397,244.74,390,252.3,380a85.7,85.7,0,0,1,6.86-8.34C263.8,367,269,363,275.68,361.46c5.6-1.27,11.09-.68,16.58.6,7.84,1.83,15.21,5,22.63,8,9.68,3.92,19.33,7.93,29.4,10.77a46.1,46.1,0,0,0,20.08,1.23c11.2-1.86,19.37-8.36,24.72-18.31,4.61-8.59,6-17.87,5.23-27.5a73,73,0,0,0-3.21-16.13,30.62,30.62,0,0,1-1.5-12.52,13.1,13.1,0,0,1,10.54-11.25,38.51,38.51,0,0,1,9.94-.41c8,.87,16,2.29,24.07,3.25,5.8.69,11.59,1.42,17.49.52,9.36-1.42,16.16-6.1,20.27-14.72,5.74-12,7.33-24.39,3.42-37.3a45.13,45.13,0,0,1-1.59-7.37c-.75-6,1.32-10.85,6.38-14.21a30,30,0,0,1,6.22-3.21,85.13,85.13,0,0,1,10.83-3.33C509,217,521,214.58,532.84,212c7.83-1.7,15.68-3.46,23.11-6.51a52.16,52.16,0,0,0,9.24-5c3.71-2.5,5.25-6.31,5.07-10.76a21.21,21.21,0,0,0-.61-3.44,64.32,64.32,0,0,0-7.6-20.13,31.2,31.2,0,0,0-14.86-13.27,27.19,27.19,0,0,0-3.29-.88c.31,2.36.61,4.2.77,6.06.56,6.42-1.34,11.88-6.34,16.15a38.2,38.2,0,0,1-10.76,6.11A138,138,0,0,1,506,186.62c-2.15.49-4,1.15-5.35,3.17-9.35,13.64-20.26,26-31.74,37.86-5.39,5.56-11.15,10.77-16.8,16.06a10.49,10.49,0,0,0-2.73,4.22c-1.44,3.88-3,7.74-4.71,11.48a27.12,27.12,0,0,1-10.08,11c-6.27,4.11-13.39,5.11-20.66,5.31a9.35,9.35,0,0,0-5.28,1.62A408.37,408.37,0,0,1,371,300.13a3.84,3.84,0,0,0-2.32,4.54,48.94,48.94,0,0,1,0,12.39c-1,10.14-4.36,19.32-11,27.1A39.47,39.47,0,0,1,330.41,358a57.43,57.43,0,0,1-26.23-4q-14.76-5.68-29.46-11.5a8.1,8.1,0,0,0-5.71-.2q-19.54,5.84-39.55,9.76a8.67,8.67,0,0,0-5.37,3.14q-21.9,26.06-55.46,20.11C167.23,375.1,165.84,374.74,164.45,374.43ZM385.89,385.7l-.61-.21a24,24,0,0,0-1.51,3,5.28,5.28,0,0,1-3.29,3.33c-2,.79-4,1.72-6,2.45-11.53,4.15-23.3,4.15-35.17,1.89-9.6-1.83-18.71-5.25-27.85-8.6-6.43-2.35-12.81-4.85-19.62-5.94-6.25-1-11.79.08-16.12,5.21-3,3.51-6.09,6.88-9.29,10.17-3.77,3.87-7.65,7.63-11.57,11.36-1.61,1.53-3.42,2.84-5.23,4.33.44.76.75,1.4,1.16,2q5.51,7.69,11.05,15.36c5,6.94,10.26,13.71,16.67,19.47a42.26,42.26,0,0,0,18.06,9.92,49.1,49.1,0,0,0,16.88,1,48.13,48.13,0,0,0,18.77-5.54c6.12-3.35,10.78-8.36,15.35-13.49a70.29,70.29,0,0,1,5.22-5.46,5.48,5.48,0,0,1,7.42-.42,29.14,29.14,0,0,1,4.67,4.45c5.18,6,11.32,10.56,19.22,12.28a3.08,3.08,0,0,1,2.53,2.45c1.57,5.56,2.29,11.11.13,16.7a5.48,5.48,0,0,0-.19,1.21c5,1.33,8.83-.82,9.74-5.52a18.48,18.48,0,0,0,.13-5.63,43.36,43.36,0,0,0-4.14-13.37c-5.09-10.76-7.37-22.18-8-34a138.73,138.73,0,0,1,1.14-25.35C385.6,387.74,385.75,386.72,385.89,385.7ZM564.63,246.48c-.09.78-.18,1.22-.18,1.66a13.67,13.67,0,0,0,.13,1.61,57.73,57.73,0,0,1-5,31.6c-4.92,10.71-12.58,19.23-21.38,26.85a253.82,253.82,0,0,1-45.32,31.23c-11.8,6.4-23.79,12.45-35.69,18.65-10.08,5.25-20.1,10.59-29,17.8a50.85,50.85,0,0,0-16.53,22.94A65.43,65.43,0,0,0,408.35,419a47.65,47.65,0,0,0,.44,5.31,8.82,8.82,0,0,0,1.94.09c4.68-1,9.28-2.16,13.32-4.94a49.6,49.6,0,0,0,9.86-8.78c3.2-3.78,6.23-7.7,9.38-11.53,5.55-6.75,11-13.57,16.73-20.18a42.21,42.21,0,0,1,16.59-11.34A70.3,70.3,0,0,1,497.36,363c6.64-.53,13.32-.69,20-1.2,4.66-.35,9.34-.8,13.94-1.62a24.66,24.66,0,0,0,7.27-2.73,10,10,0,0,0,5.25-8.36c.24-3,.1-5.94.09-8.91,0-5.95-.27-11.9,0-17.84a48.94,48.94,0,0,1,1.6-10.09,11.45,11.45,0,0,1,5.91-7.7c3.12-1.6,6.17-3.34,9.36-4.8a71.83,71.83,0,0,0,15.12-8.86c9.27-7.4,15.21-16.51,14-29-.74-7.9-4.9-13.35-11.92-16.76a4.54,4.54,0,0,0-2.06-.56A51.84,51.84,0,0,0,564.63,246.48Zm13.53,65.9a9.27,9.27,0,0,0-1.27,0c-9.69,1.61-13.67,5.53-15.89,15.11-1.12,4.82-2.73,9.52-4,14.29a52.54,52.54,0,0,0-1.58,7.07c-1.08,8.4-4.82,15-12.41,19.15a20.28,20.28,0,0,0-3.16,2.07A30.1,30.1,0,0,1,524.18,377c-6,.74-12,1.18-18,1.6-10.6.74-19,5.1-24.51,14.45-2.25,3.79-4.78,7.43-7.27,11.07-6.09,8.88-12.88,17.15-21.32,23.93a66.69,66.69,0,0,1-33,13.91c-5,.72-10,1.4-15,2.14a10.82,10.82,0,0,0-1.89.69c2.93,7.38,5.35,14.7,4.61,23,1.06-.4,1.8-.63,2.5-1q19.86-9.25,39-20a523.6,523.6,0,0,0,54.16-34.65c18.56-13.65,35.93-28.63,50.84-46.3a169.77,169.77,0,0,0,23.14-35.76C580.33,324.11,579.08,318.39,578.16,312.37Zm-428.4,55.82c-3.33-2.58-6.35-4.69-9.1-7.12a9.35,9.35,0,0,0-6.13-2.3c-3.41-.17-6.84-.34-10.22-.78-6.95-.89-13.88-1.94-20.81-3a3.93,3.93,0,0,0-3.86,1.31c-2.39,2.69-4.88,5.29-7.32,7.94-6,6.46-12.41,12.27-20.27,16.37a4,4,0,0,0-1.88,1.78c-1.84,5-3.47,10.07-3.68,15.43-.2,5,1.78,7.69,6.41,9.49.42.16.84.31,1.28.43a35.9,35.9,0,0,0,17.86.67,41.3,41.3,0,0,0,16.54-8.21c5.91-4.63,10.84-10.27,16-15.67,3.42-3.57,7-7,10.63-10.35a21.87,21.87,0,0,1,9.67-5.16C146.35,368.71,147.86,368.52,149.76,368.19ZM358.45,467c-1,1.29-1.6,2.08-2.23,2.84a88.81,88.81,0,0,1-16.06,14.8,56,56,0,0,1-32.72,11.15A57.05,57.05,0,0,1,289.34,493a94.57,94.57,0,0,1-21.21-10c-6.93-4.31-14.44-6.48-22.66-5.36-5.49.74-10.51,2.64-14.32,6.87s-4.79,9.11-2,14.49a16.73,16.73,0,0,0,8.57,7.88c5.75,2.46,11.87,3.1,18,3.17,5.56.07,11.15-.43,16.7-.89a241.62,241.62,0,0,0,36.44-6.28,479,479,0,0,0,46.36-13.73c5.86-2.06,11.69-4.24,17.52-6.39.78-.29,1.81-.34,2.06-1.72C368.45,477.8,363.26,473.15,358.45,467ZM488.9,261a332.92,332.92,0,0,1,51.56-20.6c17.73-5.32,35.93-8.1,54.39-10.12a12.73,12.73,0,0,0-2.62-6.21c-4.33-6.53-10.28-11.27-16.93-15.24-1.2-.72-2-.29-2.89.44a36.66,36.66,0,0,1-10.54,6,133.34,133.34,0,0,1-15.13,4.93c-14,3.27-28.12,6.16-42.19,9.24-5.45,1.19-10.92,2.38-16,4.81-3.55,1.71-4.12,2.81-3.22,6.64C486.84,247.39,488.59,253.82,488.9,261ZM375.09,502.21c-1.2.35-1.88.51-2.53.74-9.35,3.27-18.65,6.7-28.06,9.8a456.12,456.12,0,0,1-82,19c-11.88,1.59-23.82,2.5-35.78,3a233.22,233.22,0,0,1-32.38-1.12,182.94,182.94,0,0,1-30-5.31c-15.1-4-29.34-9.95-41.95-19.36-2.52-1.88-4.86-4-7.28-6-1.61-1.35-1.85-1.36-3.7,0,.41.57.79,1.17,1.25,1.7a84.33,84.33,0,0,0,12.14,11.52,107.57,107.57,0,0,0,31.45,16.48c18.61,6.35,37.87,8.64,57.4,9.11a302.83,302.83,0,0,0,39.92-2c12.18-1.32,24.26-3.27,36.26-5.72a520.59,520.59,0,0,0,79-23.1c2.86-1.07,5.28-2.14,5.35-5.72A13.61,13.61,0,0,1,375.09,502.21Zm13.22-5.46c2,.72,3.34,1.16,4.65,1.72a7.7,7.7,0,0,0,6.69-.21,576.12,576.12,0,0,0,83.66-46.21c17.19-11.49,33.57-24,48.52-38.33,12-11.52,22.93-24,31.69-38.17.63-1,1.2-2.08,1.8-3.12a2,2,0,0,0-1.37,1,194.59,194.59,0,0,1-21.13,25.27,269.91,269.91,0,0,1-24,21.8,465.6,465.6,0,0,1-53.21,37,557,557,0,0,1-50,26.87c-7.08,3.35-14.27,6.48-21.41,9.71Zm-1.91,11.78a32.29,32.29,0,0,0,9.13,12.71,25.59,25.59,0,0,0,13.76,6.36c5.26.74,10-.95,15.2-2.65-3,7.13-8.07,11.77-14.09,15.67a9.65,9.65,0,0,0,3,0c12.13-2,20.47-10.72,22.07-23,1-7.54-4.47-10.51-9.61-10.42a47.73,47.73,0,0,0-15.31,2.88,23.69,23.69,0,0,1-13.28,1.25c-2.63-.59-5.23-1.29-7.84-2C388.6,509.18,387.78,508.93,386.39,508.53ZM11.26,341.33c.13,9,2.93,12.41,10,14.16A78.37,78.37,0,0,0,30,356.72c1.25.16,1.75-.63,2.07-1.67,1.24-4,2.57-8,3.7-12.12a26.9,26.9,0,0,0,.9-5.57c.24-3.87-1.83-6.33-5.69-6.27-5.47.09-10.93.62-16.4.93a2.23,2.23,0,0,0-2.28,2.18C11.92,336.87,11.53,339.53,11.26,341.33ZM515.54,153.38l-.53-.05v1.58l.36,0Z"/><path class="cls-1" d="M515.54,153.38l-.17,1.54-.36,0v-1.58Z"/><path d="M248.49,184.48a5.08,5.08,0,0,1,5.27,5,5.18,5.18,0,0,1-5.16,5.15,5.11,5.11,0,0,1-5.25-5A5,5,0,0,1,248.49,184.48Z"/><path d="M421.07,98.2a4.91,4.91,0,0,1-5.11,5,5,5,0,0,1-5.06-5.13,5.09,5.09,0,0,1,10.17.09Z"/><path d="M383.2,143.32a4.93,4.93,0,0,1-4.76,5.14,5.31,5.31,0,0,1-5.4-5.2,5.48,5.48,0,0,1,5.17-5.2A5.11,5.11,0,0,1,383.2,143.32Z"/><path d="M163.7,244.51a5,5,0,0,1-5.31-4.95,5.2,5.2,0,1,1,10.4,0A5,5,0,0,1,163.7,244.51Z"/><path d="M462.71,147.73c0-3.18,1.91-5,5.09-4.95a5,5,0,0,1,5.07,5.17,5.51,5.51,0,0,1-5.14,5A5,5,0,0,1,462.71,147.73Z"/><path d="M376.16,222.84a5,5,0,0,1-4.95,5.28A5.22,5.22,0,0,1,366,223a4.89,4.89,0,0,1,4.87-5A4.83,4.83,0,0,1,376.16,222.84Z"/></g></g></svg>