<svg xmlns="http://www.w3.org/2000/svg" viewBox="0 0 291.32 353.12"><defs><style>.cls-1{fill:#050500;}.cls-2{fill:#ea560f;}</style></defs><title>bh_logo1</title><g id="Layer_2" data-name="Layer 2"><g id="svg18"><path id="path2" class="cls-1" d="M45,219.11H0V0H45ZM94.5,0q47.75,0,60.27,37.52a47.29,47.29,0,0,1,2.92,17.23v3.8q0,20.61-18.22,37.52l-6.36,4-3.3,1.2c3.58,2.13,6.54,3.85,8.8,5q21,13.9,23.87,41.32a32.08,32.08,0,0,1,.71,7.18c-.75,13-1.88,20.51-3.44,22.54q-1.41,8.27-9.79,19.52-10,15.54-35.88,22c-4.61.31-11.3.47-20.15.47H52.55V179.61H93.94c15.07-4.27,22.79-12.28,23-24.1v-6.4q1.13-11.87-9.79-19.52c-1.46-2.55-5.89-4.16-13.23-4.89H52.69V83.43H93.94l6.92-.62q12.5-5.93,12.53-21.81l-.66-5.52-1.41-3.8a23.27,23.27,0,0,0-17.37-10H52.13V0Z"/><path id="path4" class="cls-2" d="M291.32,219.11h-45V0h45Zm0-135.42V124h-125V83.69Z"/><path id="path6" class="cls-2" d="M0,242.93H19.6a52.53,52.53,0,0,1,8.68.52,12.38,12.38,0,0,1,5.12,2.2,13.38,13.38,0,0,1,3.77,4.46,13,13,0,0,1,1.51,6.25,13.26,13.26,0,0,1-1.85,6.87,11.8,11.8,0,0,1-5,4.69,12.93,12.93,0,0,1,6.87,4.87,13.77,13.77,0,0,1,2.4,8.08A17.11,17.11,0,0,1,39.52,288a14.1,14.1,0,0,1-4.26,5.53,13.38,13.38,0,0,1-6.64,2.54q-2.46.28-11.93.36H0Zm9.93,8.89v12.33h6.48q5.77,0,7.18-.19a6.27,6.27,0,0,0,4-1.91A5.91,5.91,0,0,0,29,257.9a6.2,6.2,0,0,0-1.25-4A5.44,5.44,0,0,0,24.05,252q-1.47-.19-8.44-.19Zm0,21.22v14.35H19.1a42.18,42.18,0,0,0,6.79-.32,6,6,0,0,0,3.59-2.14,7,7,0,0,0,1.39-4.56,7.41,7.41,0,0,0-1.07-4.1,6.1,6.1,0,0,0-3.09-2.45q-2-.77-8.79-.77Zm39.51-30.11h9.93v29a66.42,66.42,0,0,0,.37,8.94,8.83,8.83,0,0,0,3,5.28,9.75,9.75,0,0,0,6.48,2q4.16,0,6.29-1.88A7.56,7.56,0,0,0,78,281.63a66.6,66.6,0,0,0,.43-9.09V242.93h9.93v28.13q0,9.64-.8,13.62a15.76,15.76,0,0,1-3,6.72,14.85,14.85,0,0,1-5.74,4.36,23.06,23.06,0,0,1-9.4,1.63q-7,0-10.61-1.77a15.32,15.32,0,0,1-8.48-10.55,70.49,70.49,0,0,1-1-13.59Zm49.44,53.5v-53.5h20.85q7.86,0,11.42,1.44a11.5,11.5,0,0,1,5.7,5.12,16.51,16.51,0,0,1,2.15,8.43,15.11,15.11,0,0,1-3.23,9.95q-3.24,3.92-9.66,4.94a23,23,0,0,1,5.27,4.48A60.79,60.79,0,0,1,137,286l6,10.44H131.13L124,284.74a73.86,73.86,0,0,0-5.24-7.85,7.64,7.64,0,0,0-3-2.22,15.32,15.32,0,0,0-5-.6h-2v22.34Zm9.93-30.86h7.33c4.75,0,7.7-.22,8.89-.66a5.39,5.39,0,0,0,2.77-2.27,7.44,7.44,0,0,0,1-4,6.86,6.86,0,0,0-1.32-4.37,5.87,5.87,0,0,0-3.72-2.09q-1.22-.19-7.22-.19H108.8Zm62.31,11.21v-9h21.29v21.34a26.39,26.39,0,0,1-9,5.82,30.29,30.29,0,0,1-11.95,2.5,25,25,0,0,1-13.4-3.52,21.87,21.87,0,0,1-8.58-10.1,35.19,35.19,0,0,1-2.88-14.28,33.33,33.33,0,0,1,3.21-14.88,22.74,22.74,0,0,1,9.39-10A23.53,23.53,0,0,1,170.93,242q9.12,0,14.26,4.18a19.27,19.27,0,0,1,6.59,11.58l-9.86,2A11.45,11.45,0,0,0,178,253.5a11,11,0,0,0-7.12-2.28,12.8,12.8,0,0,0-10.29,4.5q-3.82,4.5-3.82,13.34,0,9.55,3.87,14.31a12.47,12.47,0,0,0,10.15,4.77A15.79,15.79,0,0,0,177,286.8a20.63,20.63,0,0,0,5.36-3.24v-6.79Zm30.45,19.65v-53.5h36.28v9H211.49v11.88H236v9H211.49v14.5h27.32v9Zm45.66,0v-53.5h20.85q7.86,0,11.42,1.44a11.5,11.5,0,0,1,5.7,5.12,16.51,16.51,0,0,1,2.15,8.43,15.11,15.11,0,0,1-3.23,9.95q-3.24,3.92-9.66,4.94a23,23,0,0,1,5.27,4.48,60.82,60.82,0,0,1,5.61,8.69l6,10.44H279.49l-7.1-11.68a73.91,73.91,0,0,0-5.24-7.85,7.64,7.64,0,0,0-3-2.22,15.33,15.33,0,0,0-5-.6h-2v22.34Zm9.93-30.86h7.33c4.75,0,7.7-.22,8.89-.66a5.39,5.39,0,0,0,2.77-2.27,7.44,7.44,0,0,0,1-4,6.86,6.86,0,0,0-1.32-4.37,5.87,5.87,0,0,0-3.72-2.09q-1.22-.19-7.22-.19h-7.72Z"/><path id="path8" class="cls-1" d="M0,352.3V307.06H8.39v17.82H24.72V307.06h8.39V352.3H24.72V332.52H8.39V352.3Zm79.14,0h-9L66.52,342H49.9l-3.44,10.3H37.58l16.09-45.23h8.87ZM63.8,334.35,58,317.61l-5.6,16.74ZM83.61,352.3V307.06h17.63q6.64,0,9.66,1.22a9.71,9.71,0,0,1,4.82,4.33,14,14,0,0,1,1.81,7.13,12.77,12.77,0,0,1-2.73,8.41q-2.73,3.32-8.17,4.18a19.46,19.46,0,0,1,4.46,3.79,51.47,51.47,0,0,1,4.75,7.35l5.05,8.82h-10l-6-9.88a62.5,62.5,0,0,0-4.43-6.63,6.46,6.46,0,0,0-2.52-1.87,13,13,0,0,0-4.24-.51H92V352.3ZM92,326.2h6.19c4,0,6.51-.19,7.52-.56a4.55,4.55,0,0,0,2.34-1.92,6.29,6.29,0,0,0,.85-3.4,5.8,5.8,0,0,0-1.12-3.7,5,5,0,0,0-3.15-1.77q-1-.16-6.11-.16H92Zm33.41-19.14H142a44.45,44.45,0,0,1,7.34.44,10.47,10.47,0,0,1,4.33,1.86,11.32,11.32,0,0,1,3.18,3.77,11,11,0,0,1,1.27,5.29,11.22,11.22,0,0,1-1.56,5.81,10,10,0,0,1-4.24,4,10.92,10.92,0,0,1,5.81,4.12,11.64,11.64,0,0,1,2,6.83,14.47,14.47,0,0,1-1.31,6,11.93,11.93,0,0,1-3.6,4.68,11.33,11.33,0,0,1-5.61,2.15q-2.08.24-10.09.31H125.41Zm8.39,7.52V325h5.48q4.88,0,6.07-.16a5.3,5.3,0,0,0,3.38-1.61,5,5,0,0,0,1.23-3.52,5.24,5.24,0,0,0-1.06-3.4,4.6,4.6,0,0,0-3.15-1.58q-1.24-.16-7.14-.16Zm0,17.94v12.13h7.76a35.73,35.73,0,0,0,5.74-.27,5.11,5.11,0,0,0,3-1.81,5.94,5.94,0,0,0,1.18-3.85,6.27,6.27,0,0,0-.91-3.46,5.16,5.16,0,0,0-2.61-2.07q-1.71-.65-7.43-.65ZM165.48,330a31.21,31.21,0,0,1,1.9-11.62,21.38,21.38,0,0,1,3.86-6.21,16.37,16.37,0,0,1,5.35-4.09,21.18,21.18,0,0,1,8.94-1.79q9.18,0,14.67,6.21t5.5,17.29q0,11-5.46,17.17t-14.6,6.2q-9.25,0-14.71-6.17t-5.46-17Zm8.62-.31q0,7.69,3.26,11.67a10.59,10.59,0,0,0,16.51,0q3.21-3.95,3.21-11.82t-3.14-11.61a10.94,10.94,0,0,0-16.67,0q-3.17,3.88-3.17,11.7Zm38.14-22.59h8.39v24.51a56.29,56.29,0,0,0,.31,7.56,7.47,7.47,0,0,0,2.53,4.46,8.24,8.24,0,0,0,5.48,1.68,7.79,7.79,0,0,0,5.32-1.59,6.4,6.4,0,0,0,2.15-3.91,56.3,56.3,0,0,0,.37-7.69v-25h8.39v23.79a66.65,66.65,0,0,1-.67,11.52,13.32,13.32,0,0,1-2.5,5.69,12.56,12.56,0,0,1-4.85,3.68,19.51,19.51,0,0,1-7.95,1.38q-5.92,0-9-1.5a13,13,0,0,1-7.17-8.92,59.61,59.61,0,0,1-.82-11.49ZM254,352.3V307.06h17.63q6.64,0,9.66,1.22a9.72,9.72,0,0,1,4.82,4.33,14,14,0,0,1,1.81,7.13,12.77,12.77,0,0,1-2.73,8.41q-2.73,3.32-8.17,4.18a19.46,19.46,0,0,1,4.46,3.79,51.45,51.45,0,0,1,4.75,7.35l5.06,8.82h-10l-6-9.88a62.42,62.42,0,0,0-4.43-6.63,6.45,6.45,0,0,0-2.52-1.87,13,13,0,0,0-4.23-.51h-1.7V352.3Zm8.39-26.09h6.19c4,0,6.51-.19,7.52-.56a4.55,4.55,0,0,0,2.34-1.92,6.28,6.28,0,0,0,.85-3.4,5.8,5.8,0,0,0-1.12-3.7,5,5,0,0,0-3.15-1.77q-1-.16-6.11-.16h-6.53Z"/></g></g></svg>