<svg xmlns="http://www.w3.org/2000/svg" viewBox="0 0 486.5 109.59"><defs><style>.cls-1{fill:#1b1918;}.cls-2{fill:#ea560f;}</style></defs><title>bh_logo2</title><g id="Layer_2" data-name="Layer 2"><g id="svg18"><path id="path10" class="cls-1" d="M23.1,107.54H0V0H23.1ZM48.56,0q24.53,0,31,18.42A22.29,22.29,0,0,1,81,26.88v1.86q0,10.12-9.36,18.42L68.39,49.1l-1.69.59c1.84,1,3.36,1.89,4.52,2.48Q82,59,83.49,72.45A15.07,15.07,0,0,1,83.85,76c-.39,6.39-1,10.06-1.77,11.06-.48,2.71-2.15,5.9-5,9.58q-5.12,7.62-18.44,10.78c-2.37.15-5.81.23-10.35.23H27V88.16H48.26C56,86.06,60,82.13,60.1,76.33V73.19q.58-5.82-5-9.58c-.75-1.25-3-2-6.8-2.4H27.07V41H48.26l3.56-.31q6.42-2.91,6.44-10.7l-.34-2.71-.73-1.86a12.08,12.08,0,0,0-8.93-4.93H26.78V0Z"/><path id="path12" class="cls-2" d="M149.52,107.54H126.39V0h23.13Zm0-66.47V60.85H85.29V41.08Z"/><path id="path14" class="cls-2" d="M179.68,1h20.65a57.85,57.85,0,0,1,9.14.53,13.35,13.35,0,0,1,5.4,2.22,13.65,13.65,0,0,1,4,4.49,12.56,12.56,0,0,1,1.59,6.29,12.9,12.9,0,0,1-1.95,6.92,12.22,12.22,0,0,1-5.29,4.72,13.6,13.6,0,0,1,7.23,4.9,13.41,13.41,0,0,1,2.52,8.13,16.57,16.57,0,0,1-1.63,7.15,14.3,14.3,0,0,1-4.48,5.56,14.5,14.5,0,0,1-7,2.56q-2.6.28-12.57.36H179.68Zm10.46,8.95v12.4H197q6.07,0,7.56-.19a6.72,6.72,0,0,0,4.21-1.92A5.78,5.78,0,0,0,210.25,16a6,6,0,0,0-1.32-4A5.83,5.83,0,0,0,205,10.12q-1.55-.19-8.89-.19Zm0,21.35V45.71h9.66a46.56,46.56,0,0,0,7.15-.33,6.42,6.42,0,0,0,3.79-2.15,6.85,6.85,0,0,0,1.47-4.59,7.2,7.2,0,0,0-1.13-4.12,6.38,6.38,0,0,0-3.26-2.47q-2.13-.77-9.25-.78ZM231.75,1H242.2V30.15a64,64,0,0,0,.38,9,8.8,8.8,0,0,0,3.15,5.31,10.6,10.6,0,0,0,6.83,2q4.38,0,6.62-1.89a7.52,7.52,0,0,0,2.68-4.65,64,64,0,0,0,.46-9.15V1h10.45v28.3q0,9.7-.84,13.71a14.72,14.72,0,0,1-9.16,11.15,25.31,25.31,0,0,1-9.9,1.64q-7.37,0-11.18-1.78a16.09,16.09,0,0,1-6-4.64,15,15,0,0,1-2.91-6,67.85,67.85,0,0,1-1-13.67Zm52.07,53.82V1h22q8.27,0,12,1.45a11.94,11.94,0,0,1,6,5.15,16,16,0,0,1,2.26,8.48,14.76,14.76,0,0,1-3.4,10q-3.41,3.95-10.18,5A24,24,0,0,1,318,35.56,61,61,0,0,1,324,44.31l6.3,10.5H317.79l-7.47-11.75a74.22,74.22,0,0,0-5.52-7.89,8,8,0,0,0-3.14-2.23,16.86,16.86,0,0,0-5.28-.6h-2.11V54.81Zm10.46-31H302c5,0,8.11-.23,9.36-.66a5.63,5.63,0,0,0,2.92-2.28,7.22,7.22,0,0,0,1.06-4,6.69,6.69,0,0,0-1.39-4.4A6.26,6.26,0,0,0,310,10.27q-1.28-.19-7.61-.19h-8.14ZM359.9,35v-9.1h22.42V47.42a27.94,27.94,0,0,1-9.48,5.85,33.17,33.17,0,0,1-12.58,2.52,27.24,27.24,0,0,1-14.11-3.55,22.31,22.31,0,0,1-9-10.16,34,34,0,0,1-3-14.37,32.28,32.28,0,0,1,3.38-15,23.35,23.35,0,0,1,9.89-10A25.73,25.73,0,0,1,359.71,0q9.61,0,15,4.21a19.22,19.22,0,0,1,6.95,11.65l-10.38,2a11.46,11.46,0,0,0-4.1-6.28,12,12,0,0,0-7.5-2.29,13.77,13.77,0,0,0-10.84,4.52q-4,4.53-4,13.42,0,9.6,4.07,14.4a13.38,13.38,0,0,0,10.7,4.8,17.29,17.29,0,0,0,6.55-1.34,21.93,21.93,0,0,0,5.65-3.26V35ZM392,54.81V1h38.21v9.1H402.43V22h25.81v9.1H402.43V45.71H431.2v9.1Zm48.09,0V1h22q8.27,0,12,1.45a11.94,11.94,0,0,1,6,5.15,16,16,0,0,1,2.26,8.48,14.76,14.76,0,0,1-3.4,10q-3.41,3.95-10.18,5a24,24,0,0,1,5.55,4.51,61,61,0,0,1,5.91,8.75l6.3,10.5H474l-7.47-11.75a74.19,74.19,0,0,0-5.52-7.89,8,8,0,0,0-3.14-2.23,16.86,16.86,0,0,0-5.28-.6h-2.11V54.81Zm10.45-31h7.72c5,0,8.11-.23,9.36-.66a5.62,5.62,0,0,0,2.92-2.28,7.22,7.22,0,0,0,1.06-4,6.69,6.69,0,0,0-1.39-4.4,6.26,6.26,0,0,0-3.92-2.11q-1.28-.19-7.61-.19h-8.14Z"/><path id="path16" class="cls-1" d="M179.68,108.76V63.25h8.84V81.18h17.19V63.25h8.84v45.51h-8.84V88.87H188.52v19.9Zm83.35,0h-9.52L249.74,98.4H232.23l-3.63,10.36h-9.35L236.2,63.25h9.34ZM246.87,90.71l-6.07-16.84-5.89,16.84Zm20.86,18.05V63.25H286.3q7,0,10.17,1.23a10.1,10.1,0,0,1,5.08,4.35A13.56,13.56,0,0,1,303.46,76a12.48,12.48,0,0,1-2.88,8.46q-2.88,3.34-8.61,4.21a20.26,20.26,0,0,1,4.69,3.81,51.54,51.54,0,0,1,5,7.39l5.32,8.88H296.46l-6.32-9.94a62.76,62.76,0,0,0-4.66-6.67,6.8,6.8,0,0,0-2.65-1.89,14.26,14.26,0,0,0-4.46-.51h-1.79v19Zm8.84-26.25h6.52c4.23,0,6.86-.19,7.92-.56A4.76,4.76,0,0,0,293.48,80a6.11,6.11,0,0,0,.89-3.42,5.66,5.66,0,0,0-1.18-3.72,5.29,5.29,0,0,0-3.31-1.78q-1.08-.16-6.43-.16h-6.88Zm35.19-19.26h17.46a48.94,48.94,0,0,1,7.73.44,11.29,11.29,0,0,1,4.56,1.88,11.54,11.54,0,0,1,3.35,3.79,10.61,10.61,0,0,1,1.34,5.32,10.9,10.9,0,0,1-1.65,5.85,10.33,10.33,0,0,1-4.47,4,11.5,11.5,0,0,1,6.12,4.14,11.34,11.34,0,0,1,2.13,6.88,14,14,0,0,1-1.38,6,12.08,12.08,0,0,1-3.79,4.7,12.26,12.26,0,0,1-5.91,2.16q-2.2.24-10.63.31H311.76Zm8.84,7.56V81.3h5.77q5.14,0,6.39-.16a5.68,5.68,0,0,0,3.56-1.62A4.89,4.89,0,0,0,337.61,76a5.11,5.11,0,0,0-1.12-3.42A4.93,4.93,0,0,0,333.18,71q-1.31-.16-7.52-.16Zm0,18.05v12.2h8.17a39.36,39.36,0,0,0,6-.28A5.43,5.43,0,0,0,338,99a5.79,5.79,0,0,0,1.24-3.88,6.09,6.09,0,0,0-1-3.49,5.39,5.39,0,0,0-2.75-2.09q-1.8-.65-7.82-.66ZM354,86.28a30.16,30.16,0,0,1,2-11.7A21.39,21.39,0,0,1,360,68.34a17.19,17.19,0,0,1,5.64-4.11,23.21,23.21,0,0,1,9.42-1.8q9.66,0,15.45,6.25t5.79,17.4q0,11-5.75,17.28t-15.37,6.24q-9.74,0-15.5-6.21T354,86.28ZM363,86q0,7.74,3.43,11.74a11.49,11.49,0,0,0,17.39,0q3.38-4,3.38-11.9t-3.3-11.68a11.88,11.88,0,0,0-17.56,0Q363.05,78.11,363,86Zm40.17-22.72h8.84V87.91a54.1,54.1,0,0,0,.33,7.61A7.44,7.44,0,0,0,415,100a9,9,0,0,0,5.77,1.7,8.46,8.46,0,0,0,5.6-1.6,6.36,6.36,0,0,0,2.27-3.93,54.09,54.09,0,0,0,.39-7.73V63.25h8.84V87.18a64.11,64.11,0,0,1-.71,11.59,12.45,12.45,0,0,1-7.74,9.43,21.4,21.4,0,0,1-8.37,1.39q-6.23,0-9.45-1.5a13.61,13.61,0,0,1-5.09-3.92,12.72,12.72,0,0,1-2.46-5.05,57.37,57.37,0,0,1-.86-11.56Zm44,45.51V63.25H465.8q7,0,10.17,1.23a10.1,10.1,0,0,1,5.08,4.35A13.56,13.56,0,0,1,483,76a12.48,12.48,0,0,1-2.88,8.46q-2.88,3.34-8.61,4.21a20.26,20.26,0,0,1,4.69,3.81,51.57,51.57,0,0,1,5,7.39l5.32,8.88H476l-6.32-9.94A62.78,62.78,0,0,0,465,92.15a6.8,6.8,0,0,0-2.65-1.89,14.26,14.26,0,0,0-4.46-.51h-1.79v19Zm8.84-26.25h6.52c4.23,0,6.86-.19,7.92-.56A4.76,4.76,0,0,0,473,80a6.11,6.11,0,0,0,.89-3.42,5.66,5.66,0,0,0-1.18-3.72,5.29,5.29,0,0,0-3.31-1.78q-1.08-.16-6.43-.16h-6.88Z"/></g></g></svg>