<svg xmlns="http://www.w3.org/2000/svg" viewBox="0 0 283.66 151.21"><defs><style>.cls-1{fill:#ffaa39;}.cls-2{fill:#aa3c3c;}</style></defs><title>cb2</title><g id="Layer_2" data-name="Layer 2"><g id="Layer_1-2" data-name="Layer 1"><g id="Layer_2-2" data-name="Layer 2"><g id="Objects"><path class="cls-1" d="M23.64,82.29c-1.54-3.91-2.87-7.44-4.34-10.89-.29-.67-1.11-1.14-1.77-1.59-2.91-2.11-5.91-4.11-8.76-6.29-2.65-2-2.79-2.87-1.36-6,.8-1.69,1.59-3.34,3.73-4.24C9.68,51.94,8.3,50.7,7,49.39,5,47.51,3.09,45.64,1.26,43.66-.28,42-.34,41,.71,39a10.35,10.35,0,0,1,1.23-1.77c1.42-1.67,2.26-1.91,4.24-1a46.54,46.54,0,0,1,4.18,2.44c.75.47,1.44,1,2.24,1.59A23.09,23.09,0,0,1,13.69,38a4.56,4.56,0,0,1,6.94-1.29c2.52,2,4.87,4.24,7.43,6.48L31,36.66c-1.37-2.21-2.88-4.54-4.28-6.94a58.82,58.82,0,0,1-3.24-6.2c-.59-1.38-1.07-3.05.15-4.35a8.15,8.15,0,0,1,5.57-2.89,3.46,3.46,0,0,1,2.26,1.23,63.94,63.94,0,0,1,4,5.09c.8,1.15,1.51,2.39,2.39,3.81a36.83,36.83,0,0,1,15.05-8.87c-.65-1.65-1.19-3.26-1.9-4.78-1.23-2.6-2.51-5.18-3.89-7.71a2.14,2.14,0,0,1,.48-3l.1-.07A8.45,8.45,0,0,1,55,.22c1.59.29,2.39,1.51,3,2.87l4.9,10.51c.29.64.63,1.26,1,2a16.1,16.1,0,0,1,10,.55c.1-1.59.17-3,.28-4.36.37-4.51,1.53-5.78,6-6.53A22.23,22.23,0,0,1,82.86,5c1.36-.06,2.52.29,3,1.91A9.76,9.76,0,0,1,92.65,5.6c2.09.26,3,1.2,3.23,3.31.13,1.42,0,2.86,0,4.71.75-.76,1.27-1.3,1.81-1.82,1.23-1.19,2-1.39,3.3-.35a43.65,43.65,0,0,1,3.74,3.67l1.59-.52a2.73,2.73,0,0,1,3,.72A15.07,15.07,0,0,1,110.69,17c2,2.73,2,3.19-.2,5.81q-1.92,2.26-4,4.4c-3.11,3.27-3,5.11.65,8a5.92,5.92,0,0,0,1.17-.24,3.07,3.07,0,0,1,3.81,1.11c1.46,1.7,3,3.32,4.5,5a1.76,1.76,0,0,1,.16,2.48l-.16.16a1.7,1.7,0,0,0-.51,1.1c.25,3.75.56,7.49.87,11.24.08,1,.23,1.9.39,3.19,2-1.15,3.54-2.15,5.17-3.06,2.52-1.39,5-2.8,7.61-4.07,3.19-1.59,6.17-.22,9.09.9a1.5,1.5,0,0,1,.52,2.5,11.46,11.46,0,0,1-2.61,2.68q-6.63,4.38-13.42,8.54c-1.59,1-3.34,1.7-5,2.54a12.24,12.24,0,0,0,0,1.54Q121,93.38,121.79,116a16.53,16.53,0,0,1-1.3,7.53c-3.5,8-2.07,6.2-9.56,10.05-11,5.69-22.86,9.1-34.82,12.22a56.75,56.75,0,0,1-17.62,1.94,34.42,34.42,0,0,1-3.76-.39c-2.94-.49-5.18-1.66-6.45-4.78-4.09-10.14-8.58-20.15-12.8-30.3C32.66,105.5,30,98.6,27.43,91.69a2.71,2.71,0,0,0-2.75-2,35.32,35.32,0,0,1-5.57-.86c-1.63-.38-2-1.32-1.23-2.84C18.94,83.86,20.7,82.63,23.64,82.29ZM54.43,71.44l-7.77-1.07,3.42,5.2c1.19-2.1,2.32-3.7,4.37-4.23a8.63,8.63,0,0,1,4.34,3.86A124.31,124.31,0,0,1,69.83,95a12.29,12.29,0,0,0,.71,1.22,3.5,3.5,0,0,0,.34-4.37c-1.78-2.91-3.54-5.85-5.31-8.76-2-3.3-4.1-6.55-6-9.91C58.05,70.55,57.58,70.3,54.43,71.44Zm-26,18.72c2.89,7.4,5.42,14.23,8.21,21,4.39,10.54,9,21,13.43,31.52a4.64,4.64,0,0,0,3.53,3,27.22,27.22,0,0,0,3.46.54,51,51,0,0,0,17.38-1.51c3.19-.88,6.37-1.82,9.64-2.6,10.47-2.55,20.25-6.84,29.85-11.63a7.26,7.26,0,0,0,3.5-3.52c2.15-4.44,3.75-8.91,2.72-14a26.45,26.45,0,0,1-.14-3.5q-1.23-18.17-2.49-36.32a27.52,27.52,0,0,0-.49-2.81c-2.62,1.31-4.88,2.39-7.1,3.58A3.05,3.05,0,0,0,108,77.52c.58,3.61-.88,6-4.13,7.68a33.2,33.2,0,0,1-4.08,2.09A11.24,11.24,0,0,0,94,92.07a23.21,23.21,0,0,1-10.28,9.25,58.26,58.26,0,0,1-15.8,4.4A30.62,30.62,0,0,1,53,104a35,35,0,0,1-15.2-11.67c-.41-.53-1-1.23-1.52-1.31C33.86,90.65,31.37,90.47,28.44,90.16ZM81.71,74.59c.33-2.07.49-3.56.8-5,.8-3.5,1.46-7,2.54-10.46,1.16-3.66,3.27-7,3.9-10.84a5.82,5.82,0,0,1,.74-1.73c3.31-6.09,6.77-12,12.13-16.72a57.49,57.49,0,0,0,8.87-9.57c-1.86-4.94-3.87-5.46-7.25-1.75-4.48,4.91-9,9.81-13.15,15-4.31,5.32-8.19,11-10,17.73C79,56.05,78,61,76.91,65.91a3,3,0,0,0,.2,2C78.44,70,79.91,72,81.71,74.59Zm33.81-32.2c-1-2.16-3-3.37-4.37-5.1-.94-1.19-2-1.1-3.07-.45-1.39.8-2.78,1.66-4.15,2.51C95.43,44.66,88.85,51.64,86,61.43a111.82,111.82,0,0,0-2.77,14.8A67.76,67.76,0,0,0,83,84.09L88.64,82c.24-1.92.35-3.45.63-4.94.92-4.85,2-9.67,2.82-14.54C92.74,58.46,94.48,55.2,98,53c4.13-2.54,8.29-5,12.47-7.44C112.17,44.62,114.12,44.07,115.52,42.39ZM59.24,52.58c-1.34.8-2.29,1.27-3.19,1.88C54,55.89,54,56,54.82,58.21s2,4.44,2.8,6.71a70.94,70.94,0,0,0,7.45,14.66c2.31,3.53,4.48,7.17,6.72,10.71.23.37.5.71.85,1.19l5.41-5ZM57.63,69.31c-.92-2.3-1.59-4.05-2.3-5.8a2,2,0,0,0-2.06-1.37A40.77,40.77,0,0,1,41.41,60c-4.48-1.35-8.92-2.8-13.39-4.14-2.39-.71-4.78-1.29-7.49-2,.65,2,2,3.56-.12,5.57.16-2.79-.37-4.83-2.9-5.77-.23.37-.45.65-.61,1-1.59,2.95-1.48,3.69,1.49,5.39a62,62,0,0,0,8.68,4.2c7.44,2.84,15.31,3.84,23.09,5A53.87,53.87,0,0,0,57.63,69.31Zm9.44-33.59c-.27-1.65-.53-3.13-.76-4.62-1.51-9.91-5.48-18.94-10-27.75a3.19,3.19,0,0,0-2-1.59,6.14,6.14,0,0,0-6.05,2c.42.84.88,1.7,1.28,2.57,1.44,3.09,3.19,6.09,4.22,9.32,1.49,4.6,2.44,9.37,3.67,14.06.8,3.15,1.7,6.27,2.56,9.4l.53.19c.08-3.07,2.05-3.41,4.28-3.42C65.5,35.86,66.2,35.77,67.08,35.72ZM103.3,76.55a7.76,7.76,0,0,0-1.13.33,154,154,0,0,1-19.76,9.29A18.86,18.86,0,0,0,75,91.38c-2.19,2.39-3,5.31-3.19,9,3-1,5.51-1.86,8.06-2.68A2.78,2.78,0,0,0,81.9,94l-2.68-.4V93.2l2.52-.54-1.2-2.39c2.11,1.41,3.61.91,5.14.31,1.08-.42,2.22-.72,3.34-1.07,5-1.59,10.14-3.13,14.71-5.95,2.8-1.72,3.66-4.5,2-7.58-1.71,2.06-3.8,3.85-3.19,7.25-1.88-2.13-1.88-2.13.73-6.68Zm-93-21.21C9.61,56.66,9,57.84,8.4,59a2.2,2.2,0,0,0,.84,3c4.31,3.19,8.48,6.65,12.9,9.72a106.08,106.08,0,0,0,9.78,5.69,8.16,8.16,0,0,1,3.81,3.63,3,3,0,0,0,1.69,1.51c2,.54,4,.84,6,1.24a141.75,141.75,0,0,0-9.94-11.31c-1.81-1.87-4-3.42-5.7-5.34a9.29,9.29,0,0,0-3-2.08c-2.81-1.39-5.57-2.91-8.27-4.49a3.85,3.85,0,0,1-1.78-1.93C14.16,56.49,12.54,55.87,10.29,55.34Zm118.56-.8a9.35,9.35,0,0,0-1.2.5c-4.26,2.49-8.54,4.95-12.74,7.51-3.76,2.29-7.44,4.7-11.15,7.07-2.26,1.46-4.58,2.86-6.72,4.48A7,7,0,0,0,94,79.28c1.91-1,3.46-1.81,5.07-2.52,2.59-1.15,4.87-3.19,8-2.91.3,0,.63-.31.94-.48,2-1.07,4-2.12,5.92-3.19q8.83-4.87,17.65-9.79c1-.54,1.82-1.25,2.95-2-4-1-4-1-5.61-3.79ZM88.57,32.91c-3.19-2.29-7-1.9-8.76.68-5.09,7.66-7.23,16.36-8.71,25.26a4.05,4.05,0,0,0,.57,2.76,42,42,0,0,0,3.66,4c.66-2.94,1.36-5.52,1.81-8.15a47.42,47.42,0,0,1,8.15-19.75C86.4,36.16,87.43,34.59,88.57,32.91Zm-26,68,7.54-.42c-2.8-9.56-8-17.41-13.39-25.73-.47,1.92.2,3.88-2.39,4.91,1-2.48,1.09-4.44.19-6.37-2.52,1.15-3.54,3-2.7,5.08q1.84,4.62,4,9.11C57.9,91.8,60.12,96.1,62.53,100.89ZM56.28,52.13c-.59-.91-1-2.2-1.86-2.76-4.6-3-9.21-5.93-14-8.56-3.31-1.81-3.74-1.49-6,1.5-1.38,1.84-1.35,2.39.58,3.66A117.33,117.33,0,0,1,50.64,57.9a4.61,4.61,0,0,0,2.72,1.49C52.56,55.62,52.56,55.62,56.28,52.13Zm33.95-21c.18-.59.49-1.4.68-2.25.89-3.85,1.86-7.7,2.6-11.59a61,61,0,0,0,.84-7.49c0-.72-.37-2-.75-2.12a20.86,20.86,0,0,0-5-.29c-1.4.08-1.39,1.44-1.69,2.44s-.65,2.25-1,3.38a121.72,121.72,0,0,0-2.87,16.31ZM42.44,39.66C39.9,34.58,37.59,29.7,35,25a56,56,0,0,0-4.37-6.12c-.8-1.13-1.78-1.19-3.05-.58-3.33,1.59-3.74,2.56-2.23,5.87a20.64,20.64,0,0,0,1.11,2.17q3.77,6.24,7.61,12.42c.12.19.43.27.68.41,2.65-2.39,5,.14,7.68.53ZM60,51c0-2.5.37-4.89-.13-7.09A135.46,135.46,0,0,0,56,30.49a60.35,60.35,0,0,0-3.23-6.58c-1.09.29-2.14.49-3.14.84-2.09.73-2.53,1.43-2.09,3.66a23.73,23.73,0,0,0,1.32,4.36c1.74,4.23,3.5,8.45,5.4,12.61,1,2.1,2.21,4.08,3.34,6.12ZM38.09,57.36l.37-.4a8.59,8.59,0,0,0-.73-1c-3.51-3.7-7-7.45-10.58-11.07-2.33-2.39-4.84-4.52-7.26-6.78a2.81,2.81,0,0,0-3.46-.45c-2,1-2.84,4.21-1.2,5.73.72.67,1.37,1.42,2.07,2.11,2.39,2.39,4.78,4.78,7.23,7.17a4.13,4.13,0,0,0,1.54,1c4,1.24,8,2.46,12,3.7Zm-19.18,30c1.66.27,3,.53,4.28.68,1.59.18,3.19.19,4.78.39,6.24.8,12.48,1.51,18.68,2.5a5.18,5.18,0,0,0,5.88-2.63,14.24,14.24,0,0,0-1.4-.69,69.22,69.22,0,0,0-17-4c-3.63-.31-7.33.15-11,.26C21.06,84,19.86,85.17,18.9,87.38ZM62.7,37.79c-.09.14-.25.28-.27.44-.33,4.78-.68,9.48-.95,14.22-.07,1.33.94,2,2,2.66,1.51.95,3,2,4.43,3l1.66,1.11a55.88,55.88,0,0,0,.67-16.37c-.65-5-.72-5.89-7-5.31a1.59,1.59,0,0,0-.51.23ZM22.5,52.42l-2.44-2.51c-2.34-2.39-4.55-4.87-7.06-7a67.4,67.4,0,0,0-7.5-5.19,2.17,2.17,0,0,0-1.94.1C1.36,39.35,1.16,41.58,3,43.45c3.37,3.38,6.79,6.67,10.21,10,.49.48,1,.92,1.54,1.4C16.72,51.73,16.72,51.73,22.5,52.42Zm59-22.51L84.75,10.7c-2.85,1-5.76,2.06-8.9,1.07-.72,5.43.48,19.59,1.86,22.09a19.11,19.11,0,0,1,1.59-2.17A22.46,22.46,0,0,1,81.47,29.91ZM64.56,57.5l-.45.42c4.45,9.64,10.66,18.32,15,28,2.35-1.12,2.29-1.12,2.47-3,.3-3.38.22-6.64-2.39-9.25a2.57,2.57,0,0,1-.29-.45A61.68,61.68,0,0,0,66.56,59C65.92,58.46,65.23,58,64.56,57.5ZM38.88,91.75c1.64,1.66,3,3.07,4.37,4.42a28.07,28.07,0,0,0,17.27,8c8.76.87,17-1.49,24.69-5.49,3.58-1.86,6-5.09,7.92-8.7a2.81,2.81,0,0,0-1.65,1,27.36,27.36,0,0,1-8,6.71A38.08,38.08,0,0,1,64,102.36a34.42,34.42,0,0,1-10.58-1.65,24.2,24.2,0,0,1-10.11-7.45c-1.15-1.35-2.31-1.79-4.48-1.5Zm67.43-34.39A43.57,43.57,0,0,0,103,54a2.81,2.81,0,0,0-3.5-.13c-1.2.8-1.93,1.59-1.7,3.26.49,3.54.68,7.17,1,10.7.07.8.28,1.59.43,2.39a3.92,3.92,0,0,0,3.3-2.87C103.6,64.21,104.91,61.06,106.31,57.36ZM72.07,46a4.08,4.08,0,0,0,.59-.73q1.66-4.1,3.3-8.22a2.64,2.64,0,0,0,.25-1.27c-.45-3.09-1-6.17-1.47-9.25-.14-.8-.29-1.64-.49-2.77a29.65,29.65,0,0,0-5.57,9c-.58,1.27-.1,2.52.69,3.73a14.6,14.6,0,0,1,1.88,4.06A46.23,46.23,0,0,1,72.09,46Zm-4-15.62c1.49-2.32,2.82-4.72,4.48-6.87a6.2,6.2,0,0,0,1-5.8,14.1,14.1,0,0,0-9.29-.8ZM53.24,18.9a30.58,30.58,0,0,0-13.71,7.91A2.22,2.22,0,0,0,39,28.69a51.3,51.3,0,0,0,2.25,4.64,24.09,24.09,0,0,1,2.57-1.46,20.76,20.76,0,0,1,2.66-.72c-.15-.8-.3-1.47-.42-2.17-.61-3.56.22-4.94,3.75-5.93,1.34-.37,2.74-.53,4.35-.84ZM96.46,56.45a10.58,10.58,0,0,0-2.64,5.77c-1,5.2-2.08,10.39-3.09,15.6-.18.94-.22,1.91-.33,2.89,1.39.16,1.86-.47,2-1.48a10.86,10.86,0,0,1,4.41-6.86,2.08,2.08,0,0,0,.88-2.08c-.44-4.38-.81-8.76-1.27-13.83ZM99.3,12.22C94.52,16.12,94,21.53,93.36,27l9.92-10.54c-1.27-2.73-1.65-3.12-4-4.2ZM52.18,46.08l.6-.29c-1.74-4-3.44-8.06-5.22-12.06-.59-1.32-1.78-.87-2.84-.67A1.85,1.85,0,0,0,43,35.34a12.22,12.22,0,0,0,3.64,7A44.25,44.25,0,0,0,52.18,46.08ZM90,48.9c.61-.14.84-.12.93-.23a45.39,45.39,0,0,1,10.7-9.78,2.07,2.07,0,0,0,.9-1.23c.34-2.1.57-4.21.84-6.33C96.88,35.72,93.67,42.23,90,48.9ZM54.87,89.36a9.35,9.35,0,0,0-2,1.06c-.69.67-1.9,1.7-1.74,2.22a54.69,54.69,0,0,0,2.75,6.61c.09.19.45.3.71.35,1.81.33,3.62.63,6,1ZM39.32,50.93c-.39.8-1.08,1.59-.89,2,.8,1.84,1.44,4.26,2.93,5.2,2.65,1.68,6,2,9.21,2.27A63.76,63.76,0,0,0,39.32,50.93Zm11,28.17a8.66,8.66,0,0,0-.6-1.83Q47.67,74,45.5,70.74a1.83,1.83,0,0,0-1-.8c-2.66-.47-5.33-.87-8.35-1.34C38.76,71.56,47.3,77.85,50.32,79.1Zm56.87-23c3.12-2.84,5.13-6.42,7.08-10.35-5.4,2-9.22,4.17-11.28,6.32ZM46.57,84.25l.47-.34a34,34,0,0,1-2.44-5A6.12,6.12,0,0,0,42.2,75.8c-3.06-2.48-6-5.09-9.08-7.56a18.5,18.5,0,0,0-3.19-1.47Zm61.18-18.87,8.16-5.16c-.21-2,.12-4-.8-5.92C112.16,57.55,108.69,60.16,107.75,65.38ZM33.44,40.45l-1.84-2.39c-.85,2.24-1.54,3.89-2.09,5.57a2.19,2.19,0,0,0,.14,1.74,54.25,54.25,0,0,0,6.93,7.17l1.34-2.7L34.4,47.52c-3.11-2.05-3.32-3.19-1.23-6.32A4.64,4.64,0,0,0,33.44,40.45Zm81.74,6.76c-.65,1.11-1.06,1.86-1.51,2.59a26.52,26.52,0,0,1-2.87,4.52,26.12,26.12,0,0,0-5.46,9.76c-.34,1-.74,2-1.11,3l.72.28a18.36,18.36,0,0,0,1.27-2.72A18.16,18.16,0,0,1,111.49,56c.72-.66,1.26-1.54,2-2.14,2.12-1.68,2.24-3.82,1.7-6.67ZM84.67,8.89c-.25-2.26-.37-2.5-2.25-2.33a18.5,18.5,0,0,0-4.17.8c-1.63.53-2.23,1.43-1.86,2.47.45,1.3,1.59,1.34,2.67,1.18C81.07,10.73,83.1,10.38,84.67,8.89ZM53.18,86.77a8.12,8.12,0,0,0-6.53-7.17C47.88,82.84,48.45,86.72,53.18,86.77Zm85.35-32.13c-4.23-2.25-6.37-2.17-8.08.16C132.47,57.36,135.67,57.36,138.53,54.64ZM34.24,82.3a3.56,3.56,0,0,0-2.12-3c-2.87-1.64-5.71-3.32-8.58-5a14.22,14.22,0,0,0-1.7-.68c.89,2.6.88,2.61,2.67,3.3a20.44,20.44,0,0,1,7.55,4.44C32.49,81.85,33.33,81.94,34.24,82.3ZM49.37,92.65,44.9,92.4l-.22.65,6,4.46.34-.33ZM25.15,82.15l5.22-.33a14,14,0,0,0-6.59-3.45ZM86.07,94.34l2.56-2.72-.33-.37L84.68,92.5Zm18.47-59.81L104,37.45l2-1.51Zm-21,61c1.3-.91,1.3-.91,0-1.59Z"/><path class="cls-1" d="M93.62,115.5l-7.1,8.91,8.19,11.42c-5.07-.21-9-3.05-13.47-3.7l-8.86,10.45c-.92-2.46-.32-4.6-.43-6.67s0-4.31,0-6.59L61.2,124.1A9.92,9.92,0,0,1,62.91,123c2.72-.94,5.44-1.87,8.19-2.71A2.32,2.32,0,0,0,73,118c.29-2.77.69-5.53,1.1-8.29a21.5,21.5,0,0,1,.55-2.19l.63-.14,6.85,10.17c2-.46,3.78-1,5.63-1.27S91.19,114.83,93.62,115.5ZM74,120.69l-8.76,3,0,.56,8.31,4.13c0,1.73-.11,3.34-.13,5a28.33,28.33,0,0,0,.25,5.5l7.17-8.52,9.91,3.19.25-.41-6.19-8.76,5.3-6.82-.27-.38-8.23,1.93-6.13-8.86c-.3,2.28-.51,3.87-.73,5.46s-.45,3.26-.69,5Z"/><path class="cls-1" d="M106.38,90.25l7.36-11.81C114.24,81.05,110,88.1,106.38,90.25Z"/><path class="cls-1" d="M116.2,111.07a13.25,13.25,0,0,1-7.53,8.34Z"/><path class="cls-1" d="M107.16,99.41l6.43-8.27.5.4a31.71,31.71,0,0,1-6.46,8.24Z"/><path class="cls-1" d="M113.36,84.75c-.57,2.8-3.19,6.17-6.32,7.91,1-1.23,2-2.45,3-3.7S112.11,86.36,113.36,84.75Z"/><path class="cls-1" d="M108.3,124.57l7.3-3.66C114.81,122.89,111.54,124.77,108.3,124.57Z"/><path class="cls-1" d="M109.2,121.37l7-4.78C114.63,119.23,112.07,120.5,109.2,121.37Z"/><path class="cls-1" d="M113.08,96.22a14.25,14.25,0,0,1-3.9,4.67l-.43-.36,3.86-4.71Z"/><path class="cls-1" d="M107.76,127.22l5.69-1.85a7.81,7.81,0,0,1-5.53,2.39Z"/><path class="cls-1" d="M105.81,129.76l4.47-.68A3.58,3.58,0,0,1,105.81,129.76Z"/><path class="cls-1" d="M113.08,100.65l-2,2c.4-1.75.4-1.75,2.8-3.65l-.8,1.66Z"/><path class="cls-1" d="M104.54,130.85l1.8.38-.07.47-1.82-.21Z"/><path class="cls-1" d="M113.08,100.65c.42.89.84,1.78-.61,2.47l.61-2.48Z"/><path class="cls-1" d="M109.17,43.63l-1.53-3.53c1.74.63,1.51,2.13,2.34,3.19Z"/><path class="cls-1" d="M107.26,44.49l-.91-1.81.47-.25,1,1.76Z"/><path class="cls-1" d="M105,45.42,104.63,44l.49-.14.38,1.46Z"/><path class="cls-1" d="M28.1,59.5l-1.77-2.45.49-.35C27.67,57.36,28.52,58,28.1,59.5Z"/><path class="cls-1" d="M24.36,56.1,25.78,59C24.27,58.2,24.37,57.12,24.36,56.1Z"/><path class="cls-1" d="M30.79,60l-1-1.35.4-.33,1.16,1.33Z"/><path class="cls-1" d="M126.75,58.28l1.59,1.89C126.93,59.89,126.93,59.89,126.75,58.28Z"/><path class="cls-1" d="M125.37,60.19l.45,1.63-.45.15-.66-1.55Z"/><path class="cls-1" d="M124.1,61.53l-.42,1.15c-.19-.12-.52-.22-.53-.35a2.09,2.09,0,0,1,.19-.92A3.81,3.81,0,0,1,124.1,61.53Z"/><path class="cls-1" d="M63.6,94.92,64,93.45l.46.11L64.07,95Z"/><path class="cls-1" d="M46,48.19c-1.25-.61-1-1.84-1.59-2.83C45.72,45.93,45.72,45.93,46,48.19Z"/><path class="cls-1" d="M47.78,48.13l-.17-1a2.29,2.29,0,0,1,.45,0c.08.33.13.66.18,1Z"/><path class="cls-1" d="M90.23,10.94,93,10.76c-1,1.44-1.92,1-2.76.85Z"/><path class="cls-1" d="M91.79,13.9l-1.86.34-.12-.6,1.84-.44Z"/><path class="cls-1" d="M67.74,44.69,65,41.05C67.51,42.08,68,42.82,67.74,44.69Z"/><path class="cls-1" d="M67.26,47a2.53,2.53,0,0,1-2.43-2.11A2.79,2.79,0,0,1,67.26,47Z"/><path class="cls-2" d="M279.08,83.09c3.27,3,3.25,3.12-.67,5.49C280.33,91,281.06,94,281.75,97a2.51,2.51,0,0,0,.63,1.41c1.65,1.19.56,3.06,1.2,4.52.39.88-.8,1.59-1.64,1.59a33.58,33.58,0,0,1-5.7-.14,35.9,35.9,0,0,1-4.78-1.31c1.59,4.2.17,7.45-2.12,10.69-1.39,2-2.17,4.36-3.3,6.72,1.59,1.39.91,3.14,0,5.1.72-.09,1.11-.13,1.5-.19,1.59-.27,2.25.1,2.7,1.59s.12,2.17-1.24,2.72a3.56,3.56,0,0,0-2.27,1.93c-.8,1.86-1.11,1.88-3.28,1.43a5.31,5.31,0,0,0-.9,0,16.51,16.51,0,0,0-.6,2.18c-1.28,9.41-8.13,13.71-15.05,14.92a74.86,74.86,0,0,1-29.16-.8c-9.23-2-18.54-3.6-27.75-5.65a133.89,133.89,0,0,1-25.71-8.3c-4.07-1.82-8.08-3.77-12-5.89a47.46,47.46,0,0,1-6.47-4.46c-6-4.67-7.54-11.09-6.85-18.32a4.13,4.13,0,0,0-.37-2.39,19.19,19.19,0,0,1-1.33-4.49,1.72,1.72,0,0,1,.73-1.43,2,2,0,0,1,1.66,0,14.1,14.1,0,0,0,2,1.43,10.89,10.89,0,0,1-.4-1.22c-.09-.41-.26-1.11-.09-1.23,1.39-.95,1-2.33,1.06-3.62,0-.57.68-1.21.56-1.68-.62-2.21.33-3.49,2.52-4.29-1.72-1.33-1.72-2.95-1.38-4.64.15-.8.29-1.54.43-2.33.58-3.24,1.59-6.18,5.57-7-.87-1.38-2.18-2.68.28-3.85a38.9,38.9,0,0,0-3.85-2.25,11,11,0,0,1-4.13-3.11c-1.76-2.12-1.9-2.68-.7-5.46l2.67-.46c-.55-.72-1-1.26-1.38-1.81a3.5,3.5,0,0,1-.54-3.23c.75-2.49,1.87-2.87,4-1.31,1.76,1.3,3.5,2.61,5.27,3.89a16.3,16.3,0,0,0,1.59.88c-.14-.8-.07-1.27-.27-1.53-3.63-4.84-2.11-9.4.8-13.82a30.82,30.82,0,0,1,10.7-9.51,42.85,42.85,0,0,1,18.71-5.57c5.93-.4,11.85-1.12,17.81-.57,9.5.88,19,1.84,28.1,5,7.11,2.44,14.15,5.11,21.19,7.75a117,117,0,0,1,11.66,4.7,41.87,41.87,0,0,1,18.51,17.82C283.14,66.65,283.7,72.21,283,78a5.3,5.3,0,0,1-2.72,4.23C279.93,82.44,279.6,82.72,279.08,83.09Zm-3-22.18v1.75l.59.18L278,60.75,276,61c1-.65,1.5-1.43.7-2.58l-2.46-3.55c-1.59,1.51-1.82,1.53-2.75.25a4.78,4.78,0,0,1-.45-1.19l1.39.8.3-.25-1.24-1.85-.4,1.42c-.19-.28-.56-.57-.55-.84.08-2.15-1.43-3.29-2.85-4.4A39.9,39.9,0,0,0,264,46.49c-.85,1.37-2,1.82-3.38,1.14-.86-.42-1.78-.89-1.22-2.17.88.89,1.59,2.21,3.25,1.23-.74-1.74-2.1-1.27-3.33-1.19l.68-1.36c-2.39-.93-4.67-1.9-7-2.61a3.69,3.69,0,0,0-2.39.53,4.53,4.53,0,0,1-4,.14c-1.23-.51-1.3-1-.32-2.13.2-.22.43-.41.89-.85-1.86-.64-3.4-1.19-5-1.7a17.36,17.36,0,0,0-1.71-.38c-.92,1.31.29,1.51.86,2.05a2,2,0,0,1,.72,2.47A4.22,4.22,0,0,1,238.22,40c-.54-.56-1.06-1.15-1.63-1.66s-1.4-.73-1.51-1.23.5-1.22.8-1.88l-3-1.17a6.37,6.37,0,0,1-.49,1.63,2.52,2.52,0,0,1-3.07.8,3.06,3.06,0,0,1-1.74-1.66c-.13-.33.8-1.08,1.27-1.66.07-.1,0-.29,0-.5L226.44,32l-2.67,2.16a3.67,3.67,0,0,1,.25.8c.15,1.38-.5,2.07-1.75,1.78-2.14-.49-2.89-3.27-5.37-3.32-.25,0-.5-.64-.73-1,0-.06,0-.18,0-.25,1-2,3.3-.1,4.78-1.71a159.27,159.27,0,0,0-19.11-2.75l-1.78,2.16h.07c-1.53-.41-3.68.26-4-2.27-3.89-.27-16.13.8-18.63,1.59-.25.68-.33,1.72-.72,1.86a20.58,20.58,0,0,0-6,3.7.68.68,0,0,1-.49.14c-.48-.1-1.12-.12-1.35-.43a1.53,1.53,0,0,1,0-1.39,12.33,12.33,0,0,1,1.66-1.77,16.07,16.07,0,0,0-8,4.23c.25,1.59,1.33,2.39,2.8,3-1.53,2.94-5,2.1-6.86,4.09-.18.19-.8,0-1.08,0-1-2.08,1.67-2.57,1.54-4.56a19.7,19.7,0,0,0-5.69,7c-2.14,4.52-1.68,7.65,1.71,11.25a12.18,12.18,0,0,0,2.39,2c2.45,1.52,4.93,3,7.45,4.4,4.59,2.55,10,3.32,14.33,6.37a3,3,0,0,0,1,.33c8.82,2.19,17.42,5.32,26.46,6.68,2.39.37,4.78.94,7.17,1.44,2,.42,4,.57,6.08-1.14-.8,1.73,0,2.39,1.05,2.86a18.39,18.39,0,0,0,3.19,1.26c4.78,1.17,9.5,2.39,14.33,3.31A89.82,89.82,0,0,0,252,85.64c6.1.2,12.23-.15,18.32-.46a14.1,14.1,0,0,0,4.74-1.41c1.51-.66,2.86-1.68,4.32-2.48a3.88,3.88,0,0,0,2.29-3.55,85.68,85.68,0,0,0-.22-8.62,15.78,15.78,0,0,0-2.72-7.4c-.52.57-.88,1-1.32,1.43-.68.61-1.5.75-2-.08s-.88-1.83.68-2.14Zm-105,54a11.82,11.82,0,0,1,.8-.93c2-2.35,6.15-1.76,7,1.19.61,2.1,2,3.19,3.72,4.26,1.94-1.59,4.18-.49,6.3-.65.49,0,1.18.66,1.54,1.18a8,8,0,0,1,.68,2.06c1.8.4,3.89.34,5.26,1.31s3,1.28,4.38,2a3.58,3.58,0,0,0,4.07-.16c2.05-1.32,3.13-.88,4.32,1.31.57,1.05,1.23,1.16,2,.28.39-.46.62-1.06,1-1.51,1-1.14,1.92-1.07,2.68.27a32.28,32.28,0,0,1,1.38,3.1c2,.23,3.88.5,4.78,2.1a17.3,17.3,0,0,1,4.1-1c1.66,0,2.1,1.42,1.94,2.67,1.91-.22,3.85-1,5.24-.46,1.55.62,2.68-.06,4-.07a3.53,3.53,0,0,0,3.31-2.1c.65-1.23,1.77-1,2.53.37.23.41.5.8,1,1.59a6.37,6.37,0,0,1,4-4.21c.28-.12.41-.55.66-.8a3,3,0,0,1,4-.29c1.32.84.89,1.9.35,3-.14.29-.31.56-.47.84l.3.44c.55-.24,1.47-.35,1.59-.73.71-2.08,2.13-2.33,3.69-1.74,1-1,1.7-2.18,2.64-2.39,2-.46,2.06-1.79,2.39-3.58-4.08.45-7.22-1.55-10.42-3.27a23,23,0,0,0-9-2.63c-4.61-.4-9.22-.89-13.83-1.32a22.47,22.47,0,0,1-7.87-1.86c-2-1-4.05-2.05-6.14-3-3.19-1.38-6.5-2.59-9.71-4-5.72-2.48-11.15-5.36-15.13-10.61a26.28,26.28,0,0,1-1.76,2.1c-1.35,1.31-2.48,1.27-3.35-.33A2.56,2.56,0,0,0,182,95.79a25.83,25.83,0,0,1-3.14.06c-7,0-14-.25-20.77-2.3-3.07-.93-6.07-2.16-9.22-3.3-.84,1-1.31,2.05-.34,3.42a3.8,3.8,0,0,1,.66,2.17c-.19,5.22,2.39,8.66,6.91,10.75,2.68,1.24,5.57,2.06,8.35,3.08a4.38,4.38,0,0,0,3,.16c2.64-.8,3.79.47,3,3.07C170.24,113.61,169.8,114.36,171,114.89Zm-11.15-1.39c-3.19,1.2-3.28,1.32-3.07,4,.11,1.52-.3,2.31-1.28,2.47a2,2,0,0,1-2.24-1.68v0c-.14-1-.35-1.59-1.35-1.93a1.49,1.49,0,0,1-.65-1.25c.25-1.82-.91-2.27-2.29-2.56-.51-.11-1.15,0-1.53-.29a6.7,6.7,0,0,1-2.16-2.07c-.57-1.11.55-1.65,1.32-2.22.11-.08.1-.32.18-.62l-.89-1.43a5.23,5.23,0,0,0-.72.55c-1.31,1.5-1.27,1.47-2.71.22a9.75,9.75,0,0,0-1.89-1,4.61,4.61,0,0,0-.49,1c-.63,6.5.61,12.39,5.82,16.84a43.21,43.21,0,0,0,5.92,4.31,118.71,118.71,0,0,0,29.7,12.34c6,1.59,12.06,2.9,18.12,4.25,4.26,1,8.55,1.8,12.84,2.64,6.43,1.26,12.83,2.6,19.42,3,5.57.32,11-.65,16.38-1.59a16.52,16.52,0,0,0,6.37-3,14.51,14.51,0,0,0,5.85-9.63l-4.17-.87-1.59,1.78c-.8-.72-1.59-1.93-2.84-.53a15.22,15.22,0,0,1,.17,2c0,1.41-.61,1.74-2,1.45a7,7,0,0,0-2.51-.14c-2.79.5-3,.33-2.85-2.45,0-.45-.12-1.15-.42-1.33a1.52,1.52,0,0,0-1.38.23,2.17,2.17,0,0,1-2.87.18c-1.27-.8-2.2-.47-3,.85-.93,1.5-2.39,1.73-3.47.69a3.42,3.42,0,0,1-.68-1.37c-.29-.9-.85-1-1.85-.52.33,1.74.09,3.38-1.82,4.3s-2.27-1.13-3.44-1.7c-1.83,1.26-3.71,2.06-5.95,1.48-1.49-.39-1.94-.87-1.73-2.39.16-1.2.49-2.39.72-3.54-.75-.9-1.51-1.59-2.72-1.17a6.52,6.52,0,0,1-5.32,0c-.47-.23-1.15,0-1.76,0-.21.61-.35,1.1-.54,1.59a1.72,1.72,0,0,1-2.52,1.1,9.33,9.33,0,0,0-4.61-.62c-2.57.15-3.62-2.2-5.29-3.47-.51-.39-.33-1.67-.5-2.85l-5.73,0a18.24,18.24,0,0,1-2.39,3.59c-1.7,1.53-3.33.87-3.66-1.38-.15-1-.39-1.89-1.43-2.28-1.92-.71-3.3-1.83-3.06-4.07-2.07,0-3.36.37-3.8,2.54-.38,1.89-1.7,2.12-3,.68a3.88,3.88,0,0,1-1.09-2.46,3.22,3.22,0,0,0-2.39-3.62,3.35,3.35,0,0,1-2.75-3.28c-.18-1.9-1.74-2.3-3.3-1.37a7.73,7.73,0,0,1-1.8,1,2,2,0,0,1-1.66-.25c-.3-.29-.24-1.08-.18-1.59a22.79,22.79,0,0,1,.63-2.52Zm30.84-19.59a7.56,7.56,0,0,0,2.8,3.73,42.86,42.86,0,0,0,11.87,7.09c5,2.18,10,4.49,15.13,6.59a27.87,27.87,0,0,0,6.75,2c4.93.67,9.91,1,14.86,1.47a25,25,0,0,1,10.48,3,36.63,36.63,0,0,0,5.22,2.45c3.66,1.39,6.82.14,8.41-3.08,1-2.1,2.25-4.11,3.32-6.2s2-4.24.65-7.1l-.34,1.66c-.89,4.31-4.18,6.37-8.38,5a25.16,25.16,0,0,1-4.25-2c-5-2.67-10-5.46-15-8-3.57-1.82-7.22-3.46-10-6.61L230,96.32l5.77,4.67a12.88,12.88,0,0,1-6.61-4.48,9,9,0,0,0-1.08.36C223.87,99,219.6,101,216,104.14c-2.08,1.85-3.33,1.82-5.69.43a9.05,9.05,0,0,1-1.3-.88c-4.91-4.2-10.59-7.06-16.45-9.61A6.84,6.84,0,0,0,190.73,93.91Zm-7.32.39a3.73,3.73,0,0,0-1.47-4,4.45,4.45,0,0,1-2.39-3.74c-2.11-.19-4-.38-5.89-.53a6.43,6.43,0,0,0-1.82,0c-4.56,1-9.05.37-13.5-.67a35,35,0,0,1-12.56-5.3c-.19.68-.37,1.17-.46,1.67-.14.86-.18,1.74-.34,2.6a2.15,2.15,0,0,0,1.17,2.39c.75.45,1.47,1,2.23,1.38a48.62,48.62,0,0,0,17.89,5.67A92.17,92.17,0,0,0,183.41,94.3Zm49.87-2.65c0,1.81,0,2,1.16,2.9a37.6,37.6,0,0,0,4.78,3.14q9.92,5.33,19.91,10.49a13.79,13.79,0,0,0,3.93,1.37,4.87,4.87,0,0,0,5.34-6.18,2.93,2.93,0,0,0-3-2.39c-.14.47-.22.8-.32,1.12a3.27,3.27,0,0,1-2.64,2.6,3.13,3.13,0,0,1-3.19-1.94,30.92,30.92,0,0,1-1.51-4.38c-2.05-1.51-4.25-3.09-6.37-4.78a2.73,2.73,0,0,0-3.35-.31c-2.29,1.25-4.07.86-5.21-1.43A5.15,5.15,0,0,0,239.31,89c-2.86,2.41-2.86,2.41-6,2.67Zm-11.4-8.81c-.59.55-1.06.91-1.44,1.35a8.42,8.42,0,0,1-9.69,2.12,7.67,7.67,0,0,0-4.59-.33,8.7,8.7,0,0,1-3.85,0,6.41,6.41,0,0,0-5,.48,12,12,0,0,1-2.86.63l-.1-.43,4.78-2.3-.16-.57a20.12,20.12,0,0,0-3,.2,29.35,29.35,0,0,1-9.87.75c-1.69-.22-3.5-.41-5.12.8.33,1.13-.16,2.46,1.19,3.27A6.05,6.05,0,0,1,185,93.56a4.83,4.83,0,0,0,1.92,3.76,28,28,0,0,1,1.86-2.61c.8-.88,1.59-2,2.67-2.39a32.79,32.79,0,0,1,8.15-1.76c4.26-.19,8.55.19,12.83.33a35.49,35.49,0,0,0,4.44.08c2.82-.27,5.43-1.1,7.11-3.29Zm9.3,6.93c-3.52,3.19-11.68,7.49-15.13,7.84,4.31-3.26,10-3.7,13.54-8A4,4,0,0,1,225,88.08c-3.28,3.86-7.46,4.48-12,4.19-4.36-.28-8.76-.33-13.11-.46-2.19-.06-4.17.8-6.73,1.53.8.36,1.05.52,1.35.62a49.46,49.46,0,0,1,15.18,8.67,8.84,8.84,0,0,0,1.07.8c1.86,1.11,2.71,1,4.51-.33a58.68,58.68,0,0,1,5.34-3.79c2.48-1.46,5.18-2.57,7.66-4a15.55,15.55,0,0,0,3.3-2.88,1.54,1.54,0,0,0-.4-2.63Zm-34.83-7.5a20.46,20.46,0,0,0-.23-2.13,2.92,2.92,0,0,0-4.95-1.73,11.53,11.53,0,0,1-1.18,1c-1.94,1.15-4.17,1.94-6.13.69-1.42-.91-2.56-.68-3.92-.5-2.47.34-4.95.59-7.42.88l-.06-.62c1.54-.2,3.07-.37,4.6-.61,2.6-.41,5.49-.31,6.73-3.42a2.68,2.68,0,0,0,0-.63c-1.73,1.1-3,.53-4-1-.8-1.11-1.71-2.09-2.73-3.32a9.56,9.56,0,0,1-1.39,1.68,6.15,6.15,0,0,1-2.39,1.31,12,12,0,0,1-4.41.29c-3.19-.6-5.14,1.88-8,2.39a12.48,12.48,0,0,1,1,1.72c.69,2,2.15,2.8,4.23,2.79a26.11,26.11,0,0,1,3.23.37c.6,2.89.65,2.91,3.39,3.09,1,.07,2.09.41,3.11.37a9.41,9.41,0,0,0,3.77-.58,11.09,11.09,0,0,1,6.6-1.08,22.11,22.11,0,0,0,10.11-1Zm28.48.16c-2.22-1.09-4.22-2.1-6.25-3.05a4.28,4.28,0,0,0-1.27-.18c-1.38-.17-2.76-.28-4.13-.51-3-.51-6.08-1.08-9.51-1.7.95,2.8,1.78,4.84,4.71,5.15A4.6,4.6,0,0,1,212,84.53a23.11,23.11,0,0,0-4.16-1.47,4.67,4.67,0,0,1-4-3.27,8.52,8.52,0,0,0-.84-1.91,3.19,3.19,0,0,0-1.47-1.26c-1.4-.4-2.86-.57-4.4-.84.07,1.48.12,2.78.21,4.07.1,1.59.44,2.9,2.44,3.13.68.08,1.26.85,1.9,1.3a3.93,3.93,0,0,0,3.89.73,7.09,7.09,0,0,1,6.27.57,6,6,0,0,0,2.69.56,5.7,5.7,0,0,0,4.87-2.6,4,4,0,0,1,3.28-2l1.45,4.15Zm57.78,20.71C281.53,101,281.25,99,280.55,97c-.75-2.06-.8-4.38-2.32-6.59-.37,2.47-2.12,1.93-3.48,2,0,4.31-.49,6.46-6.11,3.38-1,1.59-2.67,1.53-4.35,1.51-2.78,0-3.37-.51-3.45-3.3a2.18,2.18,0,0,0-1-2.22c-.46-.28-.66-.95-1-1.4s-.8-.8-1.36-1.39c-.88,2.08-.87,4.34-3.55,5.41a45.15,45.15,0,0,0,5.77,3c5.66,2,11.4,3.85,17.11,5.69a8.39,8.39,0,0,0,5.8-.07Zm-35.61,30c2.07,0,4.43-.61,6.22.14,2.06.87,4.26-.29,6.18,1.37.92-3.36,3.46-2.5,5.74-2.47a4.94,4.94,0,0,1,4.09-3.78l-.72-1.85c-.55.18-.95.33-1.35.44-2,.48-2.62-.21-2.09-2.18a8,8,0,0,0,.59-1.72,1.94,1.94,0,0,0-.66-1.46,1,1,0,0,0-1.59.7c-.35,1.91-1.78,3.61-.8,6.08L260,126.81c-1.23,1.59-2.12,3.79-4.78,2.43a3.5,3.5,0,0,1-4,2.54c-1.29-.12-1.69-.8-1.11-2,.33-.68.8-1.31,1.3-2.19l-2-.71c-1.08.8-1.81,1.73-2.72,2-1.8.49-1.75,2.29-2.72,3.33-.41.44-.25,1.4-.36,2.17,3.19.13,2.15,2.46,2.3,3.91H251a7.69,7.69,0,0,1-.16-2.21,7,7,0,0,1,1.12-1.9c-4.54.41-4.54.41-5-1.09ZM270.76,91.6c-1-1.07-1.59-1.71-2.2-2.29a8.16,8.16,0,0,0-6.82-2.39,120.65,120.65,0,0,1-12.81,0c-.57,0-1.14,0-1.82.06v1.19c0,.89.08,1.88-1.06,2.1A2.16,2.16,0,0,1,243.67,89a14.6,14.6,0,0,0-.71-1.68,3.19,3.19,0,0,0-1.37-1c-.15-.06-.8.57-.8.8.06.51.37,1.33.71,1.41,1.46.33,1.76,1.42,2.24,2.58a2.3,2.3,0,0,0,3.38,1.33,4.63,4.63,0,0,1,4.92-.1c2,.92,3,.28,3.65-1.84a6,6,0,0,1,.65-1.7c.48-.68,1.42-1.21,2-.51,1.38,1.66,3.5,2.89,3.48,5.49,0,.72.3,2,.68,2a9.47,9.47,0,0,0,3.85.12c.53-.1,1.08-1.07,1.3-1.74C268.1,92.93,268.55,91.76,270.76,91.6ZM161,70.59c.06-1.27.06-2.39.17-3.56.07-.8.21-1.59-1.06-1.91l-1,3.39c-1.06.11-1.92.24-2.78.29-1.14.07-2.13-.6-2-1.59.39-2.63-1.31-3.46-3.15-4.34-.26-.13-.44-.44-.72-.73,1.39-.65,2.26,1.48,3.81.32L152,60.76c.61-1.93.53-2-1-3.06-.94-.62-1.8-1.37-2.71-2l-3.89-2.89c-1.43,2-1.45,2.48-.23,3.81.68.74,1.42,1.42,2,2-.8,2-2.64,1.54-3.88,2.09a5.85,5.85,0,0,0,3,5.12C150.27,68.51,155.15,71.59,161,70.59Zm36.63,55.66c.92-.45,1.51,0,1.65.71a2.17,2.17,0,0,1-.51,1.53,17.65,17.65,0,0,1-1.9,1.78c.39.44.7.73.95,1.08a5,5,0,0,0,5.22,2.2c.87-.14,1.82.39,2.75.53a9.21,9.21,0,0,0,1.81-.16c-4.59-3.51-4.59-3.51-5-5.15a40.74,40.74,0,0,0,3.51,2.92c1.48,1,2.79-.86,4.64-.11-1.13-2.2-2-4-3-5.65a1.9,1.9,0,0,0-1.59-.45c-.65.12-1.21.71-1.86.88a4.9,4.9,0,0,1-2.69.3c-1.89-.75-4.26-.4-5.65-2.39-.14-.21-.65-.17-1-.22a22.3,22.3,0,0,1-3.58-.68,4.83,4.83,0,0,1-1.88-1.59,6.29,6.29,0,0,1-.67-1.81c-1.76.51-3.51-.86-5.73.62a15.72,15.72,0,0,0,2.21.28c2.39-.12,2.57,0,2.31,2.56s1,3.77,3.44,3.82c2.17,0,4.34.22,6.51.33.14,0,.29-.14.42-.2Zm-12.4,5.5c2.72-1,3.46-2.13,2.48-4.1a9.64,9.64,0,0,1-1.23-5.53c-4.29-.59-7.41-2.39-8.83-6.5-.5-1.46-1.68-1.74-3-1.82,0,.4-.12.6-.06.72.22.47.49.92.74,1.38,1.27,2.28,1,3.3-1.15,4.78a4.63,4.63,0,0,0-1.49,5.42c.21.41.73.65,1.27,1.08a7.49,7.49,0,0,0,.52-1.36c.26-1.78,1.39-2.52,3.06-2.68.61-.06,1.2-.21,1.81-.3,1.1-.17,1.89.29,1.53,1.41-.57,1.78.42,2.39,1.74,2.92a3.14,3.14,0,0,1,2.32,3.38,4.1,4.1,0,0,0,.37,1.18ZM142.17,97.88c.18.54.23.8.34,1,.35.74.74,1.66-.2,2-.57.24-1.44-.12-2.13-.36a6.25,6.25,0,0,1-1.35-.92c-.1,3.12,1,5.22,4,6,.3.08.54.39.88.65l1.68-1.74.38-5.36h.61a18.8,18.8,0,0,0,0,4,22.06,22.06,0,0,0,1.63,3.93l.69-.17c-.51-2.29.57-4.54-.38-6.89a17.86,17.86,0,0,1-.57-3.86,6.21,6.21,0,0,0-.56-2.21,3.19,3.19,0,0,1-.16-3.23,15.68,15.68,0,0,0,.55-1.91c-1.59,0-3.1-.07-3.58,1.37a7.53,7.53,0,0,0-.41,4.52c.68,1.76.14,2.44-1.39,3.06Zm20.29-28.45c1.45.67,3.44,1.17,4.6,3,.29.46,1.42.49,2.17.54s1.59-.27,2.34-.18a3.62,3.62,0,0,0,4.05-2.12,10.05,10.05,0,0,1,.95-1.31c-2.1-1.78-4.44.52-6.85-.65l2.93-1.11c-3.83-1-6.94-3.8-10.74-4.09Zm64.61,19a17.89,17.89,0,0,0,2.56-.39c1.31-.41,2.33-.42,3,1.08a2,2,0,0,0,2.62,1l.08,0a7.07,7.07,0,0,0,4.46-4.44L226.63,82.5c-2,2.12-.33,3.86.48,6Zm-59.31-5.81c-2.05-.15-3.93-.7-5.81.22a2.52,2.52,0,0,1-1.52-.06c-1.7-.41-3.38-.84-5.06-1.31a20.25,20.25,0,0,1-3.46-1.19c-2-1-2.11-2.8-.41-4.13a13.79,13.79,0,0,1,1.21-.8,5.37,5.37,0,0,0-2.85-.29c-1.77.28-3.27,1.43-3.32,2.55-.07,1.69,1.21,2.39,2.46,3.06a41.47,41.47,0,0,0,15.51,4.46c1.42.13,2.85.12,4.5.18Zm-12.74,25-3.89,2.58-.37-.54,3.08-2.64c-.8-.63-1.39-1.11-2-1.59s-1.23-1-2-1.66c-.49,4-.49,4-3.39,6.05.33,1.15,1.35,1.18,2.26,1.38,1.94.42,3.85.85,3.81,3.46,0,.22.19.59.35.62,1.54.36,1.36,1.5,1.37,2.67,0,.72.51,1.08,1.23.54-.49-3.39.34-4.88,2.08-9.64ZM280,86c-1.49-2.26-1.78-2.23-4-1.19a34.24,34.24,0,0,1-5.45,1.7,17.18,17.18,0,0,1-2.64.27c1.27,1.47,2.8,2.59,3.38,4.09s.17,3.29.2,5c2,.45,2.22.22,2.17-2.22s0-2.46,2.39-2.39a2.17,2.17,0,0,0,.69-.22C277.13,87.88,277.13,87.88,280,86ZM171.38,121.15c4.43-2.91,4.33-2.09,2.19-6.82,0-.06-.14-.08-.46-.25l-1.39,2.64c-3.49-.8-3-3.19-2.11-5.52-2.39-.34-3,.33-4,3.42l2.65,5.25Zm24.2-43.88.45-.57c-.43-.57-.75-1.46-1.31-1.65a43.71,43.71,0,0,0-8.23-2.2c.44,2.1-.14,3.34-2,4a1.85,1.85,0,0,0-.86,1.59,2,2,0,0,0,1.59,1c1.59-.1,3.33,0,4.64-1.35C191.49,76.47,193.35,75.79,195.58,77.27ZM150,72.17l9,4.12,6.62-3c-.3-1.26-1-1-1.73-1.06-3.7-.37-7.52.26-11.09-1.27C151.81,70.54,151,71,150,72.17Zm75.29,61.64c0,2.52-.38,2.89-3.14,3a4.19,4.19,0,0,0-1.29.09A15.06,15.06,0,0,0,219,138a6.53,6.53,0,0,0,1.16.76,5.18,5.18,0,0,0,4.23-.68c1.78-1,1.82-.92,3.19.68a6,6,0,0,0,.73.64c2.6-.8,1.85-2.76,1.59-4.52l3-.92c-.8-.59-1.16-1.11-1.59-1.16a7.06,7.06,0,0,0-2,.27C228,133.29,226.76,133.53,225.28,133.81ZM160.86,62.14l-6.58-4.4c-1,.61-1,1.59-.41,2.05,1.89,1.59,1.18,3.84,1.59,5.79.12.57.18,1.16.29,1.93l2-.12Zm1.28,20.1c-.8-2.34-1.35-3.92-3.37-4.38a4,4,0,0,1-1.59-.89,3.86,3.86,0,0,0-4.17-.41c-.64.25-1.47.92-1.53,1.47s.8,1.35,1.38,1.54c2.84.88,5.75,1.68,9.25,2.65Zm51.28,43.27-2.86,3.59a5.73,5.73,0,0,1,.86,1.15c1,2.3,1.11,2.48,3.37,1.8a6.23,6.23,0,0,1,4.55.3c-.29-.89-.56-1.82-1.17-2.19a9.44,9.44,0,0,1-4-3.87C214.09,126.07,213.85,125.92,213.42,125.51Zm28.2,9.9c2-2,1.67-2.14-.8-5.14a17.77,17.77,0,0,1-3.19,2.32,20.2,20.2,0,0,1-4.05.9c.32,1.59-.31,3.13,1.59,3.62C237.9,134,238.18,133.91,241.62,135.4Zm-16-4.17c-2.78-.92-5.15.89-5.72,4.42l3.53-.28ZM165.4,111.51l-4.09-1.15-.37,6.33A7.64,7.64,0,0,0,165.4,111.51Zm19.81-37.67c.31-.66.5-1.39-.43-1.67-1.85-.56-3.73-1-5.66-1.52-.45,2.55,1.76,2.81,2.45,4.08Zm74.14,24.93a4.13,4.13,0,0,0,1.29,3.81,2.64,2.64,0,0,0,2,.8,2.17,2.17,0,0,0,1.33-1.59,2.92,2.92,0,0,0-1.32-2A14.55,14.55,0,0,0,259.35,98.77ZM159.8,112.14c.13-1.7.13-1.7-.94-2.94l-1.66,3.42Zm84.45-25.86c.18,2,.18,2,1.76,2.95l.18-2.6ZM227.89,34.86c1.59.8,2.56,1.46,3.93.18C230.67,33.94,229.63,33.86,227.89,34.86ZM246.58,41a2.84,2.84,0,0,0,3.62.25A2.59,2.59,0,0,0,246.58,41Zm-10.44-4.18-.11.69,2.83.25a1.79,1.79,0,0,0-2.72-.95Zm-59.86-6.22-.18-.7c-1-.28-2-.28-2.93,1.53Zm21-2.1a2.29,2.29,0,0,0,3.19-.25c-1.21-.73-2.13-.87-3.19.25Zm-37,10.27c1.39-.31,2.17-.8,2-2.22C160.82,36.46,160.43,37.31,160.23,38.79Zm9.32-5.32.27.46c1.71-.53,1.71-.53,2.06-2.15ZM221.12,32c1.2.68,2.22,1.29,3.51.18a2.79,2.79,0,0,0-3.51-.15Zm20,8.53c-.92-1.24-.92-1.24-2.39-1.31,1.08,1.13,1.08,1.13,2.39,1.34Zm-79.73-1,.39.8L164.15,39l-.31-.61ZM270.76,93.2c-1.82.09-1.82.09-1.11,2.06ZM217.33,32.85l2.16.41c-.55-1.12-1.2-1.54-2.2-.43Zm3.57,1.73c1.09,1.12,1.09,1.12,2.72.8ZM158.06,42.1a11.6,11.6,0,0,0,1.52-1,5.5,5.5,0,0,0,.59-1.26,5.44,5.44,0,0,0-1.26.66,10.4,10.4,0,0,0-.88,1.58Z"/><path class="cls-2" d="M265.59,63.66c-.7-1.23-2.12-2.21-1-3.6.91-1.15,1.87,0,2.53.25a20.15,20.15,0,0,1,3.43-1,1.84,1.84,0,0,1,2.16,1.45v0c.18,1.23-.88,1.66-1.84,1.79a17.74,17.74,0,0,1-3-.08V64.2a2.71,2.71,0,0,1-1.84,2.6,2.26,2.26,0,0,1-1.84-.35c-.22-.16-.06-1.11.17-1.59S265.09,64.13,265.59,63.66Zm2.73-2.83c2,1.4,2.13,1.39,3.45-.11-1.08-1.08-2.13-.74-3.46.11Zm-1.15,1.74c-.16-1.47-.7-2.08-2.12-2C265.06,61.85,265.51,62.53,267.17,62.58ZM267,64.81l-.42-.53c-.8.32-1.64.55-1.64,2.39Z"/><path class="cls-2" d="M162.76,49.59c-.86-.33-2.17-.53-1.69-2.14.41-1.34,2.39-2.82,3.54-2.65,1,.14,1.43.74,1.16,1.65a12,12,0,0,1-1.07,2.07c1.45,1.88,1.51,3,.08,4.78-.35.41-1.19.95-1.44.8a2.29,2.29,0,0,1-1-1.59A13.18,13.18,0,0,1,162.76,49.59Zm-.8-1.1a3.35,3.35,0,0,0,3.1-2.52c-2.18-.07-2.38.09-3.12,2.52Zm2.55,1.24a2.47,2.47,0,0,0-1.08,3.46c1.18-1,1.86-1.93,1.06-3.46Z"/><path class="cls-2" d="M177.15,43.11a7.22,7.22,0,0,1,1.78-1.47,2.11,2.11,0,0,1,1.86.25,2.09,2.09,0,0,1,.29,1.82c-.49,1.41-1.66,1.93-3.27,1.91a9.28,9.28,0,0,0-2.21.44c-1.2.29-2.43.61-3.43-.41a1.28,1.28,0,0,1-.19-1.18,3.45,3.45,0,0,1,3.11-1.59A13.43,13.43,0,0,1,177.15,43.11Zm-4.78,2c1.87.57,3,.38,4.19-.84-1.64-1-2.72-.44-4.18.84Zm7.89-2.47c-1.15-.59-1.69.16-2.12.87-.18.31,0,.84,0,1.39,1.51-.31,2.17-1,2.13-2.26Z"/><path class="cls-2" d="M250,51.39a12,12,0,0,1-1.75-.92,1.49,1.49,0,0,1,.53-2.77,23.09,23.09,0,0,1,4.5-.94,3.77,3.77,0,0,1,2.39.8c.6.47,1.29,1.47,1.16,2.06-.23,1.09-1.39.87-2.17.5s-1.21.14-1.83.44A16.37,16.37,0,0,1,250,51.39Zm2.48-1.88c-1.69-1.65-2.87-1.68-4-.1C250.47,50.74,250.71,50.74,252.45,49.51Zm3.1.19c-.92-2.27-.92-2.27-3.33-1.79Z"/><path class="cls-2" d="M263.12,55.47a4.67,4.67,0,0,1-3.76-2.09c-.55-.8-.68-1.59.31-2.23a6.37,6.37,0,0,0,1-1.09,3,3,0,0,1,4.93.93c.17.48,0,1.59-.27,1.59-1.53.42-1.48,2-2.26,2.87ZM265,51.92c-1.21-2.12-1.59-2.25-3.64-1.43,1.15,1.82,1.33,1.9,3.64,1.43Zm-2,2.62A3.36,3.36,0,0,0,259.65,52c.59,1.52,1.48,2.2,3.37,2.49Z"/><path class="cls-2" d="M236,43.82l-2.86.19A3.5,3.5,0,0,1,230,46.08a1.91,1.91,0,0,1-1.46-.8A1.79,1.79,0,0,1,229,43.7a23.48,23.48,0,0,1,3-2.39C233.72,40.18,235.18,41,236,43.82Zm-6.82,1.43c1.52.09,2.5-.06,2.72-1.67-1.15.06-2.15.09-2.72,1.64Zm5.57-2.09c-.45-1.47-1.15-1.74-2.39-.67Z"/><path class="cls-2" d="M222.83,46.88c.25-1.1,1.32-1.37,2.51-1.17a2,2,0,0,1,1.74,2,18.51,18.51,0,0,0,.94,2.62c.11.44,0,1.25-.25,1.39a2.19,2.19,0,0,1-1.65,0,2.85,2.85,0,0,1-1-1.12C224.39,49.4,223.71,48.29,222.83,46.88Zm2.68,1.81c-.17,1.54.28,2.27,1.59,2.6.25-1.36-.26-2-1.59-2.6Zm-1.45-1.29,2.12.2c-.81-1.24-1.4-1.26-2.12-.19Z"/><path class="cls-2" d="M177.7,52.06a25.58,25.58,0,0,1-2.68-2.9,1.85,1.85,0,0,1,.17-1.81,2.39,2.39,0,0,1,2.08-.34,8,8,0,0,1,2.44,2.25,2,2,0,0,1,.18,1.86C179.5,51.61,178.61,51.7,177.7,52.06Zm1.54-1.36c-.87-2.72-1.47-3.14-3.47-2.61.71,2.22,1,2.5,3.47,2.61Z"/><path class="cls-2" d="M188.49,49.76c-1.49-.49-1.94-1.69-1-2.64a4,4,0,0,1,4-1.29,2.29,2.29,0,0,1,1.43,1.27,2.17,2.17,0,0,1-.72,1.74A4.2,4.2,0,0,1,188.49,49.76ZM192,47.37c-2-1.23-3.19-.92-4,1.11C190.27,49.25,190.73,49.12,192,47.37Z"/><path class="cls-2" d="M244.72,56c-.4,1.47-1.54,1.88-2.76.93a4.28,4.28,0,0,1-1.59-4.17c.19-1.38,1.31-1.8,2.49-1A4.33,4.33,0,0,1,244.72,56Zm-1.39.63c1-2.48.64-3.31-1.59-4.24C240.92,54.77,241.1,55.28,243.33,56.65Z"/><path class="cls-2" d="M207.05,48.77c-.2.75-.61,1.51-1.73,1.28a2.68,2.68,0,0,1-1.59-3.19,1.89,1.89,0,0,1,2-1.59C206.86,45.57,207.47,47.06,207.05,48.77Zm-1.43.21c.52-1.39.52-1.39-.22-2.53-1.4,1.19-1.39,1.36.22,2.52Z"/><path class="cls-2" d="M223.34,37.65a17.57,17.57,0,0,1,2.07,2.48,1.72,1.72,0,0,1-.29,1.59,1.76,1.76,0,0,1-1.59.19,5.21,5.21,0,0,1-2-1.63,2,2,0,0,1-.09-1.84C221.74,38,222.58,37.95,223.34,37.65Zm-1.59,1.79,2.59,2.1c0-2.5-.18-2.62-2.56-2.1Z"/><path class="cls-2" d="M228.51,59a15.2,15.2,0,0,1-2,2.09,1.76,1.76,0,0,1-1.59.12c-.39-.25-.8-1.19-.6-1.52A11.33,11.33,0,0,1,226.54,57c.25-.23,1.26,0,1.59.32S228.37,58.37,228.51,59Zm-3.34,1.71c1.7-.49,2.39-1.36,2.39-2.84-2,.23-2,.23-2.39,2.84Z"/><path class="cls-2" d="M181.43,32.1c1.54.4,2.72-.29,3.75-1.59.65,1.17-.25,1.54-.8,1.88a3.5,3.5,0,0,1-3.71.26,1,1,0,0,1-.4-.87c.41-1.43,1.75-1.53,2.89-1.9.19-.06.46.11,1.19.32l-3.19,1.2Z"/><path class="cls-2" d="M270.51,68.67c-.54,1.65-3.06,2.57-4.24,1.67-.35-.27-.8-1-.63-1.27a3.19,3.19,0,0,1,1.52-1.53,7.53,7.53,0,0,1,3,0C270.33,67.53,270.43,68.38,270.51,68.67Zm-.8-.33c-1.47-.45-2.57-.51-3.38,1C267.85,70.17,268.84,69.88,269.71,68.34Z"/><path class="cls-2" d="M214.69,37.77c-.45-.62-1-1.11-1.09-1.66,0-.31.76-.94,1.25-1a7.33,7.33,0,0,1,2.58.06,1.08,1.08,0,0,1,.19,2A24.25,24.25,0,0,1,214.69,37.77Zm0-1.86v.69h2.39v-.72Z"/><path class="cls-2" d="M230.08,54.61c-.14-.37-.65-1-.58-1.59.1-.91,2.48-2.27,3.27-2.09a1.51,1.51,0,0,1,1.12,2A3.26,3.26,0,0,1,230.08,54.61Zm.07-.7c1.66,0,2.58-.37,3-1.91a2.48,2.48,0,0,0-3,1.88v0Z"/><path class="cls-2" d="M170.71,40.39c-.43,1.66-2.91,3.1-4.12,2.63a1.59,1.59,0,0,1-.7-1.32c.22-1.16,2.6-2.68,3.67-2.34C170.07,39.51,170.42,40.13,170.71,40.39Zm-4.56,1.43c2.39.35,2.59.22,3.71-2.09Z"/><path class="cls-2" d="M233.83,48.19c-.17-.33-.8-1-.73-1.54.1-1,2.29-1.66,3.58-1.23.76.25,1.22.68.9,1.54C237.2,48,235.52,48.67,233.83,48.19Zm2.85-1.11-.26-.93-2.46.63.16.74Z"/><path class="cls-2" d="M263.11,55.49c2.25-1,3.78-.66,4.46,1.16.18.49.17,1.44-.12,1.59a2,2,0,0,1-1.82.13,10.82,10.82,0,0,1-1.78-2.13,8.84,8.84,0,0,0-.74-.8Zm3.15,2.5c.55-1.7-.18-2.22-2.1-2.39Z"/><path class="cls-2" d="M204.76,43.62c-.31.22-.85.88-1.5,1-1,.19-1.26-.7-1.39-1.52a2.5,2.5,0,0,1,0-.25c-.06-1.05-.2-2.19.93-2.77a1.59,1.59,0,0,1,1.39.24C205.06,41.05,205.16,42.09,204.76,43.62Zm-1.3-2.85c-1.18,1-.88,2-.5,3.27,1.59-1,1.35-2,.5-3.27Z"/><path class="cls-2" d="M221.63,56.56c-.33,1.7-2.72,2.8-4,2-.3-.19-.68-.87-.59-1a5.57,5.57,0,0,1,1.87-2,4.47,4.47,0,0,1,2.43.24C221.49,55.93,221.57,56.45,221.63,56.56Zm-.87-.14c-1.59-.34-2.46,0-3.07,1.31,1.46.68,2.26.13,3.07-1.28Z"/><path class="cls-2" d="M185.69,38.32a11.16,11.16,0,0,1,2.79-1.59,1.15,1.15,0,0,1,1.09,1.87,3.59,3.59,0,0,1-2.95,1.84c-1.27,0-1.59-.8-.85-2.15.31.43.61,1.24.89,1.23a2.07,2.07,0,0,0,2.18-1.91c-.28-.14-.46-.31-.57-.27C187.41,37.63,186.55,38,185.69,38.32Z"/><path class="cls-2" d="M272.36,74.24c-.35.23-.87.8-1.43.84-.31,0-.74-.8-1-1.24a1.79,1.79,0,0,1-.07-.8c0-1.35.47-2.13,1.36-2.12s1.39.88,1.31,2.17C272.47,73.38,272.43,73.64,272.36,74.24Zm-.94-2.39c-.69,1.11-.69,1.11.12,2.52Z"/><path class="cls-2" d="M170.42,45a4.29,4.29,0,0,1-.58,3.61,1.73,1.73,0,0,1-1.44.71,1.68,1.68,0,0,1-.8-1.39C167.47,46.56,168.5,45.52,170.42,45Zm-.56,1.44c-1.19.8-1.19.8-.95,2.54Z"/><path class="cls-2" d="M176.79,36.09a15.35,15.35,0,0,1-2.33,1.59c-.45.21-1.11-.06-1.67-.12A6.94,6.94,0,0,1,173,36a2.65,2.65,0,0,1,.86-1c1.59-1.33,2.39-1,2.84,1.19Zm-.92-.35-.57-.8-2.06,1.71.45.6Z"/><path class="cls-2" d="M210.78,31c-.92,1.24-1.88,2.11-3.36,1.68a1.65,1.65,0,0,1-1-1,1.59,1.59,0,0,1,.66-1.19C208.57,29.49,209.59,29.6,210.78,31Zm-4.21.39c2.15.67,2.15.68,3.23-1Z"/><path class="cls-2" d="M197.54,36.73a18.47,18.47,0,0,1-2.21,1.94c-.19.13-1.16-.41-1.15-.61a8.35,8.35,0,0,1,.57-2.63c.3-.74,1-1.42,1.82-.8C197.06,35.06,197.18,35.9,197.54,36.73Zm-1.28-1.3c-1.2.49-1.84,1-1.28,2.44A2,2,0,0,0,196.26,35.43Z"/><path class="cls-2" d="M200,29.91a6,6,0,0,1,1.53.88c.36.37.8,1.14.61,1.47a1.82,1.82,0,0,1-1.47.71,10.11,10.11,0,0,1-2.24-.58c-.53-1.9.93-1.88,1.63-2.5Zm1.14,2.26c-1.1-.93-1.1-.93-2.39-.14Z"/><path class="cls-2" d="M254.46,76.94c.25-1.25,2.39-2.56,3.38-2.13a1.35,1.35,0,0,1,.61,1.15,3.19,3.19,0,0,1-3.11,1.89C254.95,77.71,254.69,77.18,254.46,76.94Zm3.23-.9c-1.35-.7-2.19-.54-2.52,1.43Z"/><path class="cls-2" d="M176.66,36.15a11.15,11.15,0,0,1,1.78-.92c.33-.1,1.08.09,1.11.23.1.62.23,1.45-.1,1.86a7.73,7.73,0,0,1-2,1.38,11.15,11.15,0,0,1-.88-1.64c-.1-.27.13-.66.2-1Zm2.21.23-.52-.37-1.5,1.78C178.46,37.84,178.75,37.2,178.86,36.38Z"/><path class="cls-2" d="M257.88,46.21c-.27.13-.68.49-1.1.49-.9,0-2.29-1.39-2.17-2.24a1.78,1.78,0,0,1,.93-1.28C256.63,42.89,258.21,44.83,257.88,46.21Zm-.94.14c-.37-1.73-.37-1.73-1.92-2Z"/><path class="cls-2" d="M214.06,44.11a2.17,2.17,0,0,1,1.9,2.52c-.21.86-.68,1.44-1.67,1.15s-1.94-1.94-1.5-2.73C213.06,44.56,213.77,44.31,214.06,44.11Zm-.93,1.31,1.46,1.52c.2-.22.57-.47.56-.67C215.06,45.48,214.68,45,213.13,45.42Z"/><path class="cls-2" d="M259.29,61.14c-1.21-1.23-.93-2.39,0-3.65,2.1,1.22,2.25,1.78,1.13,4.36l-1.18-.8c1.91-.53,1-1.5.18-2.39Z"/><path class="cls-2" d="M200.29,36.22l-.25-2a9.57,9.57,0,0,1,2.39,1.43,4.17,4.17,0,0,1,.54,2.05c0,.14-.53.49-.8.48-.94,0-1.69-.36-1.59-1.52l1.7.61C201.15,35.43,201.15,35.43,200.29,36.22Z"/><path class="cls-2" d="M210.65,112.58a10.39,10.39,0,0,1,2.56.8,15.41,15.41,0,0,0,6.74,1.83c3.68.38,7.32,1.11,11,1.7l-.08.59c-.74-.07-1.48-.13-2.22-.23-3.62-.49-7.25-1-10.87-1.51a16.72,16.72,0,0,1-3.28-.85c-1.36-.5-2.67-1.16-4-1.75Z"/><path class="cls-2" d="M185.5,103.06a11.74,11.74,0,0,1-1.66-1,9.07,9.07,0,0,0-6.7-2.39c-1.77.11-3.05-.8-4.35-2,.44.06.88.1,1.31.2a20.71,20.71,0,0,0,3,.63C181.26,98.68,182.58,99.29,185.5,103.06Z"/><path class="cls-2" d="M206.81,111.59l-8.41-2.39c1.29-.89,2.17-.65,2.77-.18C202.83,110.28,205.53,109.31,206.81,111.59Z"/><path class="cls-2" d="M246.53,119.06c-3,1.1-6-.69-9.13-1.22a5.57,5.57,0,0,1,1.79-.28C241.71,118,244.21,118.57,246.53,119.06Z"/><path class="cls-2" d="M181.68,113.79l4,2.15-.25.45C184.25,115.63,182.17,116.38,181.68,113.79Z"/><path class="cls-2" d="M189.64,104.28a3.49,3.49,0,0,1,4.2,2.06Z"/><path class="cls-2" d="M174.09,107.09c-1.44-1.08-1.74-1.84-.72-3.19l.34,1.52Z"/><path class="cls-2" d="M205.16,119l2.07-.84C206.76,119.48,206.76,119.48,205.16,119Z"/><path class="cls-2" d="M228.9,122.81c-.29,2-.29,2-2.09,1.44Z"/><path class="cls-2" d="M177.26,109.53c-1.44-.8-1.44-.8-1.47-2.47Z"/><path class="cls-2" d="M162.15,96.2l1.16,2.6C161.75,98.48,161.35,97.79,162.15,96.2Z"/><path class="cls-2" d="M227.31,126.58l2.21-1c-.33,1.46-1.05,1.66-2,1.52Z"/><path class="cls-2" d="M206.06,116.29l2.25-1.08C207.79,116.61,207.79,116.61,206.06,116.29Z"/><path class="cls-2" d="M222.68,125.24l1.86-.94C224.07,125.53,224.07,125.53,222.68,125.24Z"/><path class="cls-2" d="M165.07,98.17l.52,2.39C164.2,99.88,164.26,99.11,165.07,98.17Z"/><path class="cls-2" d="M253.65,99.38c.57-.28,1.29-.9,1.7-.75a2.44,2.44,0,0,1,1.29,1.59,1.82,1.82,0,0,1-.89,1.59,2,2,0,0,1-1.7-.65c-.33-.39-.21-1.17-.28-1.78.45.71.4,1.9,1.93,1.74.25-.93.55-1.77-1-1.72C254.31,99.38,254,99.37,253.65,99.38Z"/><path class="cls-2" d="M188.57,87l4.4-.23a5.48,5.48,0,0,1-4.32,1Z"/><path class="cls-2" d="M202.08,94.91c2.68.45,5,1.13,6.9,3.1.8.8,2.13,1.13,3.33,1.73a2.64,2.64,0,0,1-3.11-.29A17.21,17.21,0,0,0,203,95.71C202.63,95.59,202.38,95.19,202.08,94.91Z"/></g></g></g></g></svg>