<svg xmlns="http://www.w3.org/2000/svg" viewBox="0 0 710.89 292.67"><defs><style>.cls-1{fill:#aa3c3c;}.cls-2{fill:#ffaa39;}.cls-3{fill:#861b08;}</style></defs><title>cp</title><g id="Layer_2" data-name="Layer 2"><g id="Objects"><path class="cls-1" d="M199.81,97.66c3.94.18,7.68.42,11.42.5a120.91,120.91,0,0,1,32.23,5.37c7.07,2.11,10.79,7.74,9.58,15a4,4,0,0,1-2.11,2.46c-2.27,1-2.67,2.64-2.66,4.9,0,11.06.25,22.14-.25,33.19-1,21.52-.85,43.1-3.34,64.54-1.87,16.06-3.64,32.12-5.48,48.18a42.42,42.42,0,0,1-1,6.45,7.74,7.74,0,0,1-2.12,3.63,33.34,33.34,0,0,1-13.2,7.47c-16.25,4.42-32.54,4.6-48.71-.2-3.53-1-6.73-3.33-10-5.22a6.94,6.94,0,0,1-3.35-6.28c-.33-24.52-3.88-48.72-7.16-73-3-21.93-5.53-43.91-8.25-65.88-.38-3-.57-6.09-.89-9.13-.29-2.72-.41-5.46-3.48-6.93-.8-.38-1.39-1.86-1.5-2.9a12.51,12.51,0,0,1,7-12,88,88,0,0,1,25-7.59c5-.76,10.13-1.13,15.19-1.69,1.12-.12,2.24-.28,3.71-.46.05-3.22.22-6.25.13-9.27q-.68-23.79-1.47-47.58c0-1-.07-2-.15-3.05-.4-5.23-1.81-10-6.07-13.53-5.37-4.45-10.66-9-16-13.5C165.52,10,164,9.09,162.75,7.9c-2.18-2-2.27-3.7-.55-6.13,1.39-2,2.61-2.35,5.31-.88a49.06,49.06,0,0,1,9.16,5.89C182,11.49,187,16.57,192,21.63c2.44,2.46,3.43,5.58,3.71,9.09.8,10.15,2.08,20.27,2.69,30.44.64,10.75.73,21.53,1.07,32.3C199.55,94.74,199.69,96,199.81,97.66Zm-55.34,13.5-.26,1.3c2.16,1.09,4.26,2.34,6.5,3.22a73.76,73.76,0,0,0,19.1,4.41c12.35,1.34,24.72.61,37.09.5a82.45,82.45,0,0,0,33.06-7.2c2.85-1.27,5.89-2.31,8.47-5.35-15.85-6.58-32-8.18-48.55-7.79-.05,1.46-.11,2.47-.13,3.48,0,1.16.11,2.34,0,3.49-.28,2.82-2,4.61-4.29,4.67s-4.1-1.57-4.5-4.38c-.3-2.13-.38-4.3-.6-6.91C174.23,101.32,158.77,103.71,144.48,111.16ZM205.36,131c3.39,51.22,4.3,101.9,3.57,153.14l8.44-1.36c2.06-9.73.43-144.12-1.79-152.7Zm14.77,150.58c4.26-.37,4.51-.5,4.69-4.06,1-18.44,2.4-36.88,2.65-55.34.41-30.24,1.79-60.48.74-90.73,0-1-.07-1.94-.12-3.34l-10.19,1.65C220.14,180.71,220.93,231.12,220.12,281.57ZM186.3,131.25c.21,3.79.34,7.1.59,10.41.68,9,1.56,18,2.08,27,.4,7,.41,14,.54,20.94q.81,43.42,1.6,86.83c0,2.58.16,5.15.26,8.07l6,0c.14-13.11.35-25.87.41-38.63s.15-25.32-.1-38-.87-25.58-1.34-38.37-1-25.44-1.46-38.4Zm10.6,0c.17,8.9.2,17.33.52,25.75.64,16.43,1.88,32.85,2.07,49.29.28,25-.13,50.08-.24,75.11,0,1,.07,1.93.12,3.19l7.56-.28c.94-51.44-.27-102.28-3.05-153.38Zm32.92-3.31c1.66,50.81-.52,101-3.06,151.38,3.5-.72,4.35-2.66,4.58-5.44,1-12.17,2.28-24.32,3.31-36.5.78-9.27,1.64-18.55,2-27.85.7-20.93,1.13-41.86,1.56-62.79.14-6.77,0-13.55-.09-20.74Zm-52,2.81c.07,4.33,0,8.1.21,11.85.66,11.18,1.5,22.34,2.16,33.52.33,5.66.38,11.34.63,17q1.79,41,3.62,82c.12,2.74.23,5.47.36,8.51l4.54.57c0-1.39,0-2.39,0-3.4-.31-16.88-.68-33.75-.93-50.63-.44-30-.5-59.95-3.36-89.83-.29-3-.27-6-.4-9.23Zm5.25,151.83L176,130.47l-6.83-.25c.13,2.28.19,4,.33,5.73,1.53,18.41,3.17,36.82,4.55,55.24.63,8.41.6,16.87,1.15,25.29,1.11,17.13,2.41,34.25,3.63,51.38.29,4.06.59,8.13.8,12.2C179.72,281.91,180.21,283.17,183.08,282.56ZM233,275c2.93-1.7,4.15-3.38,4.2-6,0-2.47.41-4.93.69-7.39,1.72-15,3.84-30.06,5.09-45.14,2.54-30.49,2.84-61.08,3.35-91.65a4.52,4.52,0,0,0-.49-1.3l-5.6,1.93c-.22,17-.26,33.59-.68,50.16s-.83,32.9-1.92,49.3S234.66,257.88,233,275ZM159.2,129.36c.57,3.64,1.11,6.65,1.5,9.67,1.3,10.25,2.69,20.49,3.76,30.76,1.31,12.59,2.31,25.22,3.47,37.83,1.76,19.13,3.56,38.25,5.3,57.38.39,4.35.63,8.71.84,13.07.1,2.07.74,3.35,3.5,3.07l-10-151.22ZM171.78,279c.7-12.67-12-141.73-14.78-150l-5.15-.64a17.51,17.51,0,0,0,0,2q2.32,19.27,4.67,38.54C159.68,194.58,163,220.26,166,246c1.11,9.38,1.67,18.83,2.43,28.26C168.59,276.37,168.92,278.3,171.78,279ZM145.9,126.81c.85,6.25,1.75,12.43,2.54,18.62,2.9,22.81,5.55,45.65,8.72,68.42,2.31,16.58,4.38,33.18,5.41,49.89.15,2.47.46,4.92.66,7.39a3.81,3.81,0,0,0,2.85,3.7c0-1.44.14-2.57.05-3.67-.72-8.56-1.25-17.13-2.26-25.66-3.17-26.58-6.56-53.14-9.79-79.71-1.41-11.55-2.64-23.13-3.93-34.69C149.75,127.54,149.78,127.54,145.9,126.81ZM191,39.88c.09,1.71.2,3.29.26,4.86.31,8,.69,16,.91,24,.33,12.06.54,24.12.82,36.18a9.17,9.17,0,0,0,.23,3c.31.81,1.17,1.9,1.84,1.94a2.88,2.88,0,0,0,2.17-1.61,10.68,10.68,0,0,0,.38-3.85c-.15-8.14-.21-16.28-.56-24.41-.55-12.63-1.31-25.25-2-37.87a20.39,20.39,0,0,0-.67-3.06ZM236.56,277.3l-.9-.85c-6.29,5.81-14,8.45-22.17,9.26a159.86,159.86,0,0,1-22.63.92c-9.55-.42-18.59-3.09-26.12-9.47a15.54,15.54,0,0,0-1.55-1c-.59,2.95.23,4.69,2.43,6.22A34.16,34.16,0,0,0,177.85,288a91.66,91.66,0,0,0,42.39-.33,33.5,33.5,0,0,0,14.17-7.43A16.54,16.54,0,0,0,236.56,277.3ZM187.64,19.59c-6.1-6.29-12.09-11.83-19.4-16.16l-2.62,4L185,23.26ZM149.12,124.67a17.25,17.25,0,0,0,10,1.9l1.12-5.56-9.32-2.66Zm96.79-3.74,5-2.46c-.14-1.41-.19-2.56-.39-3.68s-.57-2.4-.89-3.66C243.16,114.16,243.07,114.4,245.9,120.93ZM198,123.19l-.09,5.64,8.69-.26-.8-5.7Zm-54.8-9c-3.11,6.21-1.41,8.17,3.87,9.38l1.74-6.08Zm27.21,13.57,8.62.55.71-5.21-8.42-.5Zm65.53-3.67L234.5,118l-7.4,2.45,1.21,5.35Zm-19-1.9,1,5.11,8.43-1.39-1-5.12Zm26.72-.37-1.28-7-6.14,2.47,1.32,6.31Zm-27.68,5.82L215,122.4l-7.48.45.74,5.52Zm-47.52,0,.95-5.49-7.18-.81L161,127.06ZM189.24,123l.17,5.89,6.66-.09-.15-5.63Zm-8.39,5.51,6.63.39,0-5.81-5.78.21ZM191.66,25l-.74-1c-1.11.89-2.71,1.29-2.44,3.65Zm1.59,2.58c-.44-.44-.69-.79-.76-.75-1.15.56-2.41,1-2.59,3.23Zm.47,3.52L193.08,30l-3,1.67.45.86Zm-3.44,6.71c2.22.08,3.49.46,4.42-1.82a16.06,16.06,0,0,0-2.46.38A11.22,11.22,0,0,0,190.28,37.8ZM186.52,24c.34.3.66.59.67.58.8-.8,1.58-1.62,2.35-2.44l-.72-.67ZM163,4.66c2.4.41,2.67-.6,2-2.91Z"/><path class="cls-2" d="M285.91,174.52c-1.15-6.6-2.1-12.53-3.3-18.4-.23-1.13-1.38-2.14-2.24-3.08-3.88-4.22-7.91-8.31-11.68-12.62-3.5-4-3.43-5.37-.22-9.75,1.75-2.39,3.59-4.7,7.18-5.43-1.84-2.59-3.6-5-5.27-7.44-2.41-3.56-4.86-7.1-7.09-10.77-1.86-3.06-1.62-4.68.64-7.39a16.49,16.49,0,0,1,2.48-2.37c2.75-2.16,4.14-2.26,6.91-.14a74.17,74.17,0,0,1,5.74,5.17c1,1,1.92,2.05,3,3.21a36.84,36.84,0,0,1,2.46-3.23c3.28-3.43,8.2-3.46,11.24.2,3.29,4,6.25,8.17,9.53,12.5l6.66-9.41c-1.43-3.89-3.05-8-4.46-12.2a93.74,93.74,0,0,1-3.08-10.72c-.48-2.34-.68-5.11,1.63-6.74,2.85-2,6.14-3.32,9.67-2.72a5.51,5.51,0,0,1,3.14,2.64,101.89,101.89,0,0,1,4.59,9.21c.93,2.06,1.58,4.25,2.47,6.7,8.13-4.9,16.51-8.3,26.33-9-.49-2.79-.81-5.46-1.45-8.06-1.09-4.46-2.26-8.9-3.62-13.29-.69-2.23,0-3.56,1.89-4.59,4-2.14,8-2,12-.36,2.35,1,3.23,3.13,3.78,5.43q2.15,9,4.31,18c.26,1.09.58,2.16.92,3.45,5.45-.42,10.31,1.09,15.38,4,.65-2.4,1.21-4.56,1.83-6.71,2-6.92,4.24-8.53,11.48-8.27a35.41,35.41,0,0,1,4.26.5c2.15.34,3.85,1.25,4.07,3.94a15.55,15.55,0,0,1,11,.09c3.19,1.07,4.37,2.85,4,6.21-.25,2.26-.86,4.48-1.43,7.36,1.42-.94,2.4-1.62,3.4-2.26,2.31-1.47,3.51-1.54,5.27.51A69.56,69.56,0,0,1,434,95.64l2.63-.31a4.36,4.36,0,0,1,4.41,2.09,24,24,0,0,1,1.65,3c2.27,4.91,2.11,5.67-2.16,9-2.48,1.94-5,3.8-7.62,5.61-5.9,4.11-6.32,7-1.52,12.61a9.44,9.44,0,0,0,1.91,0c2.66-.48,4.33.69,5.59,3,1.73,3.13,3.66,6.15,5.42,9.26.86,1.52.86,3-.8,4.14a2.72,2.72,0,0,0-1.15,1.56c-.8,5.94-1.53,11.88-2.24,17.83-.18,1.51-.25,3-.42,5.15,3.41-1.18,6.2-2.23,9-3.12,4.37-1.37,8.75-2.76,13.18-3.92,5.46-1.43,9.7,1.62,13.92,4.31,1.64,1,1.39,2.87,0,4.06a18.27,18.27,0,0,1-4.94,3.35q-11.76,4.72-23.67,9c-2.8,1-5.77,1.59-8.64,2.37-.23,1-.45,1.7-.52,2.39q-3.76,35.94-9.68,71.59A26.34,26.34,0,0,1,424,270c-8,11.37-5.22,9-18.11,12.64-19.05,5.35-38.61,6.9-58.26,8a90.44,90.44,0,0,1-28.13-2.61,54.84,54.84,0,0,1-5.74-1.81c-4.43-1.71-7.56-4.24-8.55-9.5-3.24-17.19-7.07-34.27-10.41-51.44-2.25-11.54-4.13-23.15-6-34.76-.38-2.39-1.43-3.39-3.65-4a56.29,56.29,0,0,1-8.46-3.13c-2.43-1.12-2.7-2.7-1-4.82C278.06,175.48,281.25,174.12,285.91,174.52Zm51.53-7.1-11.8-4.15,3.69,9.21c2.54-2.9,4.8-5,8.17-5.2,2.91,1.68,4.35,4.45,5.54,7.42,4.5,11.19,8.51,22.54,10.92,34.39a19.58,19.58,0,0,0,.72,2.13c2.33-2,2.86-4.15,1.94-6.71-1.85-5.12-3.66-10.25-5.5-15.37-2.08-5.8-4.31-11.54-6.23-17.39C343.39,167.18,342.73,166.65,337.44,167.42Zm-46.55,20.93c2.15,12.47,3.91,23.95,6.13,35.33,3.48,17.86,7.31,35.66,10.9,53.51a7.4,7.4,0,0,0,4.55,5.79,43.38,43.38,0,0,0,5.23,1.95,81.34,81.34,0,0,0,27.62,3.2c5.29-.34,10.58-.79,15.87-1,17.17-.63,33.81-4.21,50.32-8.63a11.57,11.57,0,0,0,6.59-4.38c4.77-6.24,8.71-12.71,8.7-20.93,0-1.83.65-3.66.9-5.51q3.89-28.75,7.72-57.51c.18-1.33.09-2.7.13-4.55-4.51,1.21-8.39,2.21-12.24,3.31-2.49.71-4,1.94-4.11,5.06-.25,5.82-3.27,9-8.9,10.68a52.91,52.91,0,0,1-7,2,17.91,17.91,0,0,0-10.68,5.62c-5.26,5.37-11.42,9.59-19,11.16a92.85,92.85,0,0,1-26.07,1.82,48.8,48.8,0,0,1-22.66-7.42c-9-5.7-15.31-13.67-20-23.08-.48-1-1.1-2.22-2-2.53C299.19,190.84,295.38,189.76,290.89,188.35Zm88.14-7.3c1.17-3.12,1.89-5.4,2.87-7.56,2.35-5.22,4.53-10.54,7.31-15.52,3-5.33,7.33-9.85,9.56-15.68a9.27,9.27,0,0,1,1.71-2.47c7.12-8.45,14.41-16.64,24.26-22.18a91.62,91.62,0,0,0,16.92-12.16c-1.33-8.3-4.31-9.75-10.76-5.05-8.56,6.23-17.14,12.46-25.31,19.18-8.42,6.93-16.3,14.56-21.28,24.48-3.6,7.16-6.74,14.55-10,21.88a4.77,4.77,0,0,0-.34,3.24C375.38,172.89,377,176.47,379,181.05Zm63.07-39.47c-.89-3.69-3.62-6.22-5.2-9.36-1.09-2.16-2.69-2.34-4.65-1.68-2.44.82-4.87,1.69-7.28,2.59-15,5.57-27.47,14.36-35,28.75-3.7,7.06-6.32,14.71-9.06,22.22C379.52,187.9,379,192,378,196.3l9.53-1.44c1-2.92,1.64-5.27,2.56-7.51,3-7.28,6.27-14.44,9-21.8,2.31-6.15,6.09-10.67,12.27-12.93,7.25-2.64,14.54-5.16,21.85-7.63C436.17,144,439.39,143.77,442.1,141.59Zm-91.14-2c-2.34.81-4,1.25-5.52,1.93-3.59,1.58-3.71,1.68-3.12,5.45s1.65,7.55,2.22,11.37a113,113,0,0,0,6.9,25.19c2.48,6.24,4.71,12.58,7.07,18.87.24.65.56,1.27.94,2.14l10-6.13Zm-7.83,25.53c-.69-3.89-1.21-6.84-1.74-9.78a3.13,3.13,0,0,0-2.79-2.77c-6.39-1.27-12.18-4.13-17.85-7.19-6.55-3.54-13-7.22-19.58-10.74-3.47-1.86-7-3.54-11-5.54.38,3.29,2,6.19-2,8.62,1.13-4.31,1-7.66-2.68-9.93-.48.5-.9.88-1.26,1.31-3.39,4.11-3.5,5.28.6,8.89A98.74,98.74,0,0,0,297,147.33c10.71,6.8,22.69,10.88,34.52,15.18C335,163.77,338.73,164.16,343.12,165.11ZM368.6,115.7c.11-2.66.18-5.06.3-7.46.79-16-2.51-31.32-6.79-46.53a5.12,5.12,0,0,0-2.58-3.12c-3.27-1.19-6.67-1.49-10.08,1.15.39,1.45.83,2.93,1.18,4.43,1.26,5.29,3,10.53,3.62,15.89.86,7.66.83,15.41,1.24,23.12.27,5.17.66,10.33,1,15.49l.76.47c1.11-4.77,4.3-4.66,7.78-4C366.1,115.4,367.21,115.5,368.6,115.7ZM412.12,191a12.36,12.36,0,0,0-1.87.16c-11.13,3.3-22.28,6.49-33.82,8.19a30.06,30.06,0,0,0-13.31,5.75c-4.19,3.07-6.37,7.34-7.86,13.05,5-.6,9.2-1.15,13.43-1.6,3.1-.33,4.53-2,4.44-5.17l-4.07-1.48.13-.68,4.11,0-1.11-4.13c2.84,2.88,5.35,2.57,7.93,2.13,1.83-.31,3.7-.4,5.55-.6,8.4-.9,16.82-1.64,24.87-4.58,4.91-1.8,7.15-5.86,5.6-11.18-3.34,2.67-7.16,4.8-7.29,10.29C406.59,197.29,406.59,197.29,412.12,191ZM273.67,128.18c-1.48,1.85-2.83,3.49-4.13,5.18s-1.14,3.31.35,5c5.7,6.41,11.12,13.09,17,19.28a169,169,0,0,0,13.45,12c2.26,1.91,4.06,3.92,4.79,6.89a4.84,4.84,0,0,0,2.13,2.89c2.91,1.48,6,2.6,9,3.86a225.91,225.91,0,0,0-11.91-20.83c-2.22-3.5-5.08-6.6-7.19-10.15a14.8,14.8,0,0,0-4-4.2c-3.95-3.06-7.75-6.32-11.47-9.65a6.13,6.13,0,0,1-2.16-3.58C279.36,131.22,277,129.73,273.67,128.18ZM459,164.86a14.9,14.9,0,0,0-2,.4c-7.44,2.53-14.91,5-22.31,7.66-6.59,2.37-13.12,5-19.65,7.48-4,1.55-8.06,3-11.93,4.84a11.11,11.11,0,0,0-6.42,7c3.29-.89,6-1.71,8.72-2.32,4.41-1,8.61-3.36,13.39-2,.46.13,1.08-.28,1.63-.45,3.42-1,6.85-2,10.26-3.11q15.35-4.79,30.68-9.64c1.67-.53,3.25-1.37,5.25-2.23C460.69,169.69,460.69,169.69,459,164.86Zm-55.94-46.69c-4.21-4.58-10.4-5.22-13.9-1.74-10.39,10.34-16.52,23.23-21.68,36.66a6.46,6.46,0,0,0,.07,4.48A66.85,66.85,0,0,0,372,165c2-4.37,3.89-8.18,5.43-12.14a75.57,75.57,0,0,1,19-28.24C398.63,122.57,400.73,120.44,403.06,118.18ZM340.67,216l11.91,1.76C351.27,202,345.69,188,339.9,173.29c-1.34,2.85-.93,6.12-5.24,6.91,2.37-3.54,3.13-6.58,2.35-9.93-4.29,1-6.47,3.52-5.83,7.07.93,5.2,2,10.38,3.32,15.5C336.36,200.32,338.46,207.74,340.67,216Zm5.82-78.13c-.63-1.6-.84-3.75-2-4.91-6.22-6.11-12.48-12.21-19.14-17.84-4.59-3.88-5.36-3.51-9.81.43-2.73,2.43-2.88,3.35-.26,5.89A187,187,0,0,1,335.85,145c.92,1.26,1.87,2.68,3.7,3.24C339.52,142.1,339.52,142.1,346.49,137.86Zm59.72-22c.47-.86,1.21-2,1.79-3.29,2.63-5.73,5.36-11.43,7.76-17.26a97.16,97.16,0,0,0,3.71-11.42c.3-1.11.09-3.31-.49-3.54a33.24,33.24,0,0,0-7.71-2c-2.21-.33-2.64,1.81-3.42,3.28-.87,1.65-1.72,3.31-2.57,5-4.06,7.92-6.81,16.33-9.7,24.55ZM328.9,114c-2.35-8.74-4.39-17.1-6.9-25.31-1.16-3.79-3.21-7.32-4.88-11-.93-2-2.4-2.44-4.57-1.89-5.71,1.45-6.66,2.79-5.36,8.45a32.89,32.89,0,0,0,1,3.73q3.92,10.92,7.93,21.81c.13.34.58.56.92.87C322,107.84,324.88,112.54,328.9,114Zm23.84,23.22c.78-3.9,2.14-7.52,2.07-11.1A215.86,215.86,0,0,0,353,104c-.47-3.75-1.89-7.37-2.95-11.3-1.79.1-3.5.08-5.17.3-3.5.47-4.41,1.42-4.43,5a37.82,37.82,0,0,0,.68,7.23c1.37,7.16,2.77,14.31,4.4,21.41.82,3.59,2.16,7.07,3.26,10.62Zm-36.3,2.92.69-.51a13.68,13.68,0,0,0-.81-1.86c-4.3-6.9-8.52-13.86-13-20.67-2.89-4.42-6.12-8.6-9.18-12.91a4.47,4.47,0,0,0-5.25-1.81c-3.48.91-5.79,5.67-3.7,8.55.92,1.27,1.69,2.65,2.56,4,3,4.52,6,9.05,9,13.54a6.57,6.57,0,0,0,2.07,2.05C304.68,133.76,310.57,136.94,316.44,140.15ZM276.88,181c2.5.95,4.46,1.78,6.47,2.43,2.44.79,5,1.32,7.4,2.15,9.48,3.22,19,6.35,28.37,9.87,4,1.5,7.1.91,10-2.22a22.69,22.69,0,0,0-2-1.53,110.31,110.31,0,0,0-25.31-11.59c-5.57-1.64-11.49-2.11-17.25-3.1C281.33,176.39,279.08,177.81,276.88,181Zm84.19-63.43c-.18.18-.49.36-.56.59-2,7.29-4.09,14.58-6,21.9-.54,2.06.82,3.44,2.23,4.78,2.06,2,4,4.08,5.95,6.13l2.23,2.27c3.25-8.56,5.66-16.79,6.27-25.35.58-8,.75-9.44-9.26-10.53A2.6,2.6,0,0,0,361.07,117.53Zm-67.41,10c-1.36-2.11-2.18-3.41-3-4.7-2.9-4.42-5.54-9.05-8.79-13.2A107.41,107.41,0,0,0,271.8,99.13a3.45,3.45,0,0,0-3.07-.46c-3.9,1.68-5,5.1-2.66,8.61,4.17,6.34,8.49,12.59,12.76,18.87.61.9,1.29,1.76,2,2.68C284.89,124.61,284.89,124.61,293.67,127.54Zm99.26-16.31,11.25-28.94c-4.78.69-9.65,1.38-14.24-1.17-2.87,8.25-5.52,30.74-4.16,35.08a30.5,30.5,0,0,1,3.2-2.87A35.79,35.79,0,0,1,392.93,111.23ZM357.7,148.9l-.83.52c3.88,16.47,10.78,32,14.47,48.52,4-1,3.95-1,4.82-3.95,1.56-5.19,2.45-10.31-.82-15.22a4.1,4.1,0,0,1-.3-.8,98.29,98.29,0,0,0-14.7-26.09C359.53,150.83,358.59,149.89,357.7,148.9Zm-51,45.28c2,3.12,3.68,5.74,5.41,8.3a44.74,44.74,0,0,0,24.44,18c13.46,4.17,27,3.1,40.28-.68,6.19-1.76,11-6,15.14-11.05a4.49,4.49,0,0,0-2.88,1,43.61,43.61,0,0,1-14.63,7.93,60.69,60.69,0,0,1-31.88,1.07,54.85,54.85,0,0,1-16-6c-5.75-3.48-10.14-8.89-13.41-14.87C311.8,195.46,310.15,194.4,306.67,194.18Zm116.27-32.12a69.43,69.43,0,0,0-4.16-6.25,4.48,4.48,0,0,0-5.43-1.33c-2.12.83-3.52,1.85-3.69,4.54-.37,5.69-1.22,11.35-1.83,17-.13,1.25-.07,2.52-.1,3.93a6.24,6.24,0,0,0,6.08-3.42C416.52,171.85,419.57,167.35,422.94,162.05Zm-49.8-28.66a6.5,6.5,0,0,0,1.15-1q3.91-5.87,7.77-11.77a4.21,4.21,0,0,0,.79-1.9c.27-5,.46-9.94.67-14.91.06-1.33.07-2.66.12-4.48-5.18,3.56-8.44,7.91-11.61,12.28-1.31,1.8-1,3.9-.11,6a23.27,23.27,0,0,1,1.64,6.94A73.67,73.67,0,0,1,373.14,133.39ZM372,107.74c3.06-3.14,5.91-6.47,9.19-9.3,2.79-2.4,3.64-5.18,3.48-8.72a22.47,22.47,0,0,0-14.25-4.25ZM352.37,85a48.73,48.73,0,0,0-23.92,8A3.54,3.54,0,0,0,327,95.78a81.76,81.76,0,0,0,2,8,38.39,38.39,0,0,1,4.53-1.52,33.09,33.09,0,0,1,4.39-.29c0-1.28,0-2.4,0-3.52.19-5.75,1.93-7.64,7.75-8.06,2.21-.16,4.45,0,7.06.08Zm55.48,72.42c-3.47,2.48-4.77,5.29-6,8.17-3.28,7.79-6.57,15.56-9.81,23.36-.59,1.41-1,2.92-1.43,4.41,2.13.7,3-.14,3.65-1.67a17.3,17.3,0,0,1,9.08-9.31,3.32,3.32,0,0,0,2-3C406.13,172.48,406.94,165.52,407.85,157.45Zm18.56-68.13c-8.68,4.56-11.3,12.83-14,21.14l18.86-13.29C430.16,92.49,429.7,91.75,426.41,89.32ZM342,127.11l1-.27c-1.43-6.83-2.79-13.68-4.31-20.49-.5-2.25-2.51-1.92-4.22-2-2.08,0-3.4,1-3.43,3a19.49,19.49,0,0,0,3.45,12.08C336.67,122.33,339.52,124.59,342,127.11Zm58.13,16.48c1,0,1.35.08,1.53-.06,6.08-4.83,12.46-9.15,19.82-11.86a3.3,3.3,0,0,0,1.79-1.64c1.21-3.17,2.24-6.4,3.33-9.61C415.14,125.23,408,134.4,400.17,143.59Zm-67.75,52c-1.64.44-2.72.5-3.51,1-1.3.83-3.5,2-3.42,2.92a87.15,87.15,0,0,0,2.18,11.19c.07.32.61.62,1,.77,2.72,1.09,5.46,2.14,9,3.5Zm-12-65c-.87,1.16-2.19,2.16-2,2.84.68,3.14.89,7.11,2.92,9.06,3.61,3.47,8.74,5,13.66,6.49A101.6,101.6,0,0,0,320.41,130.58Zm8.18,47.49a13.79,13.79,0,0,0-.36-3c-1.43-3.87-2.95-7.72-4.5-11.54a2.92,2.92,0,0,0-1.3-1.56c-4-1.59-8-3.05-12.61-4.76C312.94,162.61,324.26,175.16,328.58,178.07Zm96.12-17.66c5.78-3.44,10.06-8.39,14.37-13.95-9.07,1.38-15.73,3.55-19.64,6.27Zm-103.62,24.5.84-.38c-.78-2.89-1.93-5.75-2.21-8.68-.23-2.38-1.37-3.87-2.73-5.54-4-4.85-7.76-9.87-11.76-14.7-1-1.17-2.49-1.87-4.47-3.3ZM422.63,175,437,169.54c.31-3.2,1.44-6.13.69-9.5C432,164.19,425.76,167.16,422.63,175Zm-108-62.65-2.1-4.36c-2,3.22-3.66,5.57-5.05,8a3.48,3.48,0,0,0-.33,2.76,86.45,86.45,0,0,0,8.53,13.43l2.95-3.79-4.76-4.74c-4.2-4.2-4.18-6,.1-10.26A7.4,7.4,0,0,0,314.64,112.34ZM440.09,149c-1.36,1.52-2.24,2.56-3.17,3.56-1.95,2.08-3.65,4.52-5.93,6.13-5.05,3.56-8.58,8.29-11.65,13.49-.86,1.46-1.79,2.87-2.68,4.3l1,.67a29.27,29.27,0,0,0,2.85-3.84,28.93,28.93,0,0,1,10.94-11.73c1.34-.8,2.46-2,3.84-2.7C439.14,156.94,440,153.63,440.09,149ZM404.63,79.43c.31-3.62.2-4-2.77-4.35a29.49,29.49,0,0,0-6.78-.06c-2.72.3-3.94,1.52-3.7,3.26.29,2.17,2,2.6,3.79,2.69C398.42,81.14,401.7,81.28,404.63,79.43ZM330.6,191a13,13,0,0,0-7.89-13.33C323.58,183.13,323.22,189.37,330.6,191ZM474.1,168c-5.89-4.85-9.29-5.44-12.67-2.34C463.77,170.36,468.79,171.39,474.1,168ZM302.4,177.9a5.67,5.67,0,0,0-2.34-5.4c-3.95-3.48-7.85-7-11.8-10.49a22.67,22.67,0,0,0-2.43-1.61c.57,4.33.55,4.36,3.11,6,4,2.56,7.75,5.27,10.37,9.36C299.87,176.66,301.15,177.08,302.4,177.9ZM322.76,199l-6.88-1.88-.55.94,8,8.89.64-.41ZM288.3,174.8l8.25,1.14c-2.87-3.61-5.42-5.89-9.2-7.49Zm91.22,38.5,4.88-3.43-.4-.67-6.05.79Zm47.94-87.48-1.74,4.4,3.63-1.72Zm-52.31,88.56c2.31-1,2.31-1,.5-2.5Z"/><path class="cls-2" d="M384.54,248.78,370.6,260.41l9.14,20.44c-7.85-1.94-13-7.62-19.84-10.09l-17.14,13.4c-.66-4.14,1-7.28,1.46-10.55s1.4-6.72,2.17-10.28l-15.12-11.58a15.81,15.81,0,0,1,3-1.17c4.54-.6,9.09-1.18,13.66-1.61a3.7,3.7,0,0,0,3.64-2.94c1.33-4.24,2.85-8.41,4.36-12.59a34.24,34.24,0,0,1,1.55-3.24h1l7.44,18.06c3.24-.08,6.23-.33,9.2-.19S381,246.92,384.54,248.78Zm-32.29,1.83-14.67,2-.25.86L349,262.53c-.62,2.68-1.24,5.18-1.78,7.69a45.16,45.16,0,0,0-1.38,8.67l14-11L374.23,276l.51-.56-6.87-15.62,10.46-8.94-.3-.68-13.47.38-6.75-15.8c-1.2,3.46-2,5.88-2.89,8.29S353.2,247.94,352.25,250.61Z"/><path class="cls-2" d="M412.54,213.39l15.26-16.09C427.74,201.54,418.89,211.18,412.54,213.39Z"/><path class="cls-2" d="M421.21,249c-3,5.7-8,9-14.42,10.61Z"/><path class="cls-2" d="M410.82,227.93l12.68-10.85.66.78a50.54,50.54,0,0,1-12.72,10.8Z"/><path class="cls-2" d="M425.19,207c-1.79,4.19-6.93,8.62-12.4,10.32,2-1.6,4-3.18,5.92-4.8S422.72,209.13,425.19,207Z"/><path class="cls-2" d="M404.59,267.58l12.57-3.38C415.27,267,409.57,268.94,404.59,267.58Z"/><path class="cls-2" d="M407,262.86l12.42-5.29C416.16,261.26,411.75,262.42,407,262.86Z"/><path class="cls-2" d="M421.06,224.83a22.71,22.71,0,0,1-7.58,6.06l-.56-.7,7.53-6.11Z"/><path class="cls-2" d="M402.88,271.54l9.48-1.06a12.45,12.45,0,0,1-9.4,2Z"/><path class="cls-2" d="M399,274.88l7.19.37A5.71,5.71,0,0,1,399,274.88Z"/><path class="cls-2" d="M419.65,231.75l-3.78,2.47c1.18-2.61,1.18-2.61,5.53-4.8l-1.75,2.34Z"/><path class="cls-2" d="M396.69,276.18l2.69,1.17-.26.7-2.77-.91Z"/><path class="cls-2" d="M419.66,231.76c.38,1.53.75,3-1.74,3.67l1.74-3.67Z"/><path class="cls-2" d="M431.79,141.49l-1.26-6c2.52,1.54,1.68,3.81,2.64,5.69Z"/><path class="cls-2" d="M428.53,142.23l-.84-3.11.81-.24,1,3.08Z"/><path class="cls-2" d="M424.74,142.91l-.13-2.39.83,0,.13,2.39Z"/><path class="cls-2" d="M300.15,140.38l-2-4.39.88-.39C300.17,136.86,301.28,138.12,300.15,140.38Z"/><path class="cls-2" d="M295.39,133.87l1.31,4.86C294.59,137.12,295.08,135.46,295.39,133.87Z"/><path class="cls-2" d="M304.2,142l-1.09-2.4.73-.39,1.39,2.44Z"/><path class="cls-2" d="M454.55,170l1.93,3.47C454.32,172.55,454.32,172.55,454.55,170Z"/><path class="cls-2" d="M451.79,172.52l.16,2.69-.76.09-.53-2.63Z"/><path class="cls-2" d="M449.38,174.22l-1,1.67c-.26-.24-.74-.51-.72-.72a3.33,3.33,0,0,1,.59-1.37A6.08,6.08,0,0,1,449.38,174.22Z"/><path class="cls-2" d="M344.25,207l1.07-2.16.68.32-1,2.17Z"/><path class="cls-2" d="M331.73,128.44c-1.76-1.35-1-3.19-1.59-4.92C332,124.82,332,124.82,331.73,128.44Z"/><path class="cls-2" d="M334.56,128.91l.07-1.67a3.66,3.66,0,0,1,.7.09c0,.53,0,1.07,0,1.61Z"/><path class="cls-2" d="M412.66,84.4l4.46.61c-2.09,1.92-3.33,1-4.57.45Z"/><path class="cls-2" d="M414.16,89.51l-3-.05q0-.49,0-1l3-.09Q414.16,89,414.16,89.51Z"/><path class="cls-2" d="M366.77,129.91l-3.14-6.56C367.23,125.76,367.85,127.09,366.77,129.91Z"/><path class="cls-2" d="M365.28,133.33a4,4,0,0,1-3.12-4.07C364,130.09,365.09,131.08,365.28,133.33Z"/><path class="cls-1" d="M698.47,172.26c5.91,3.92,5.91,4.08.37,8.81,3.66,3.39,5.55,7.85,7.41,12.34.31.76.72,1.73,1.36,2,2.9,1.44,1.66,4.67,3.06,6.81.84,1.29-.79,2.7-2.15,3a53.51,53.51,0,0,1-9,1.25c-2.44.09-4.91-.48-7.91-.82,3.63,6.19,2.18,11.68-.57,17.35-1.67,3.45-2.28,7.41-3.45,11.42,2.92,1.76,2.24,4.7,1.28,8,1.12-.33,1.72-.48,2.3-.68,2.49-.84,3.56-.42,4.67,1.86,1,2,.75,3.38-1.25,4.6-1.48.91-2.6,1.74-3.08,3.62-.8,3.13-1.27,3.24-4.79,3.08a8.47,8.47,0,0,0-1.41.21,26.3,26.3,0,0,0-.38,3.59c.41,15.11-9.25,23.65-19.82,27.35A119.31,119.31,0,0,1,619,292.42c-15-.77-30.09-.89-45.11-1.73a213.37,213.37,0,0,1-42.52-6.54c-6.86-1.81-13.68-3.85-20.38-6.18a75.63,75.63,0,0,1-11.32-5.33c-10.61-5.81-14.72-15.49-15.48-27a6.57,6.57,0,0,0-1.2-3.72,30.58,30.58,0,0,1-3.25-6.72,2.75,2.75,0,0,1,.78-2.44,3.12,3.12,0,0,1,2.63-.35c1.09.42,2,1.37,3.47,1.74a17.36,17.36,0,0,1-.94-1.81c-.24-.63-.7-1.67-.46-1.9,1.94-1.84.94-3.91.74-6-.09-.92.77-2.09.44-2.79-1.54-3.31-.37-5.57,2.86-7.4-3-1.65-3.46-4.19-3.37-6.95,0-1.25.06-2.51.08-3.76.08-5.24.86-10.12,7-12.41-1.72-1.94-4.12-3.65-.56-6.12a62,62,0,0,0-6.62-2.54,17.46,17.46,0,0,1-7.29-3.83c-3.32-2.88-3.67-3.73-2.51-8.39l4.07-1.41c-1.05-1-1.86-1.72-2.63-2.48a5.59,5.59,0,0,1-1.68-4.95c.53-4.11,2.21-5,5.92-3.1,3.1,1.59,6.18,3.21,9.3,4.77a26,26,0,0,0,2.79,1c-.41-1.23-.44-2-.82-2.34-7-6.68-5.74-14.23-2.29-21.93,3.21-7.16,8.42-12.85,14.39-17.71a68.29,68.29,0,0,1,28-13.54c9.23-2.15,18.35-4.82,27.86-5.48,15.17-1.06,30.36-2,45.46.55,11.82,2,23.57,4.39,35.32,6.73,6.55,1.3,13.2,2.39,19.55,4.38a66.73,66.73,0,0,1,33.57,23.12c5.77,7.46,8.09,16.07,8.48,25.35a8.44,8.44,0,0,1-3.19,7.35C699.63,171,699.19,171.53,698.47,172.26ZM688,138.16l.45,2.76,1,.12,1.6-3.64-3.17.87c1.44-1.28,2-2.64.44-4.23l-4.79-5c-2.08,2.78-2.47,2.87-4.26,1.09a7.58,7.58,0,0,1-1-1.75l2.4.95.41-.48-2.43-2.64-.26,2.33c-.37-.39-1-.75-1.08-1.18-.43-3.4-3.09-4.81-5.62-6.19a63.59,63.59,0,0,0-6.28-2.63c-1,2.37-2.66,3.38-5,2.66-1.46-.44-3-1-2.48-3.1,1.61,1.18,3.1,3.05,5.43,1.09-1.62-2.55-3.63-1.46-5.55-1l.71-2.32c-4.06-.84-7.83-1.79-11.66-2.31-1.15-.16-2.63.68-3.66,1.46a7.22,7.22,0,0,1-6.31,1.26c-2.08-.48-2.3-1.27-1-3.27.25-.4.57-.77,1.18-1.57-3.08-.53-5.66-1-8.24-1.4a27.66,27.66,0,0,0-2.79-.16c-1.11,2.3.85,2.3,1.88,3s2.19,1.71,1.77,3.7c-2.53.87-4.57-.08-6.51-1.53-1-.74-2-1.53-3-2.19s-2.4-.8-2.68-1.54.47-2,.8-3.17l-5.05-1.06a10.16,10.16,0,0,1-.34,2.7c-.89,2-2.88,2.29-4.62,2.08a4.88,4.88,0,0,1-3.16-2.16c-.29-.49,1-1.91,1.56-2.93.09-.17-.06-.47-.12-.79l-4-.45-3.61,4a5.84,5.84,0,0,1,.6,1.2c.59,2.13-.26,3.38-2.3,3.25-3.5-.22-5.39-4.39-9.29-3.84-.4.06-.95-.88-1.41-1.37-.08-.09-.06-.27-.08-.4,1-3.45,5.18-1,7.13-3.93a253.81,253.81,0,0,0-30.8.61L560.47,109l.11-.06c-2.51-.25-5.71,1.36-6.79-2.55-6.2.58-25.16,5.42-28.87,7.32-.22,1.13-.08,2.79-.67,3.1-3.43,1.83-6,4.57-8.54,7.36a1.09,1.09,0,0,1-.74.36c-.77,0-1.8.1-2.24-.33a2.43,2.43,0,0,1-.31-2.2,19.64,19.64,0,0,1,2.15-3.21c-5.06,2.11-9.29,5.4-11.41,8.7.8,2.41,2.71,3.47,5.16,3.94-1.65,5-7.37,4.6-9.73,8.2-.23.35-1.21.21-1.7.28-2.11-3,2-4.48,1.26-7.58a31.39,31.39,0,0,0-7.15,12.5c-2.21,7.65-.67,12.46,5.59,17.26a19.42,19.42,0,0,0,4.31,2.54c4.25,1.76,8.53,3.44,12.86,5,7.87,2.83,16.53,2.66,24.18,6.35a4.76,4.76,0,0,0,1.65.26c14.45,1.17,28.76,3.88,43.33,3.69,3.9-.05,7.8.23,11.7.41,3.26.15,6.38-.14,9.27-3.36-.76,2.92.65,3.76,2.39,4.23a29.3,29.3,0,0,0,5.29,1.16c7.78.61,15.57,1.35,23.36,1.53a143.14,143.14,0,0,0,21.7-.66c9.65-1.26,19.2-3.39,28.72-5.46a22.48,22.48,0,0,0,7.09-3.44c2.2-1.43,4.06-3.38,6.14-5s3.12-3.6,2.68-6.17a136.54,136.54,0,0,0-2.58-13.51,25.14,25.14,0,0,0-6.23-10.91c-.67,1-1.13,1.87-1.71,2.6-.92,1.14-2.17,1.56-3.22.4S685.62,139.06,688,138.16ZM536.74,250.11c.31-.55.62-1.11,1-1.66,2.56-4.21,9.21-4.35,11.32.07,1.5,3.15,4,4.45,6.95,5.75,2.64-3,6.45-1.86,9.74-2.64.77-.18,2,.73,2.72,1.46a12.8,12.8,0,0,1,1.6,3.06c2.94.16,6.21-.46,8.6.71s5,1.26,7.39,2c2.61.79,4.31.55,6.35-1.3,2.89-2.61,4.7-2.19,7.12.94,1.17,1.51,2.23,1.52,3.17-.07.49-.83.7-1.83,1.23-2.64,1.33-2.05,2.74-2.18,4.29-.27a51.43,51.43,0,0,1,3,4.51c3.15-.15,6.23-.21,8,2.08,2.29-1,4.16-2.34,6.19-2.66,2.62-.41,3.67,1.69,3.75,3.69,2.95-.84,5.79-2.59,8.12-2.07,2.6.57,4.2-.78,6.24-1.14a5.62,5.62,0,0,0,4.67-4.16c.71-2.1,2.53-2,4.07-.08.47.58,1,1.13,2,2.22a10.09,10.09,0,0,1,5.15-7.65c.41-.25.51-1,.83-1.42,1.38-2,3.75-2.55,6.23-1.48,2.3,1,1.89,2.77,1.32,4.58-.15.49-.34,1-.52,1.44l.59.61c.81-.52,2.22-.93,2.32-1.57.58-3.44,2.75-4.2,5.35-3.69,1.33-1.76,2.11-3.87,3.52-4.45,3-1.24,2.78-3.35,2.84-6.24-6.3,1.76-11.74-.58-17.24-2.44a36.73,36.73,0,0,0-14.82-1.81c-7.36.56-14.73,1-22.09,1.48-4.33.3-8.63.35-12.85-.9-3.47-1-6.9-2.19-10.41-3.06-5.4-1.35-10.88-2.39-16.29-3.75-9.62-2.42-18.94-5.55-26.52-12.79a41.91,41.91,0,0,1-2.23,3.76c-1.8,2.41-3.59,2.64-5.36.34a4.09,4.09,0,0,0-5-1.67,41.16,41.16,0,0,1-4.93.9c-11,1.81-22.08,3.21-33.25,1.73-5.08-.68-10.09-1.83-15.35-2.81-1.07,1.82-1.53,3.57.34,5.48a6.05,6.05,0,0,1,1.59,3.24c1,8.25,6.05,13,13.65,15.12,4.54,1.27,9.28,1.81,13.92,2.69a7,7,0,0,0,4.76-.53c3.94-1.94,6.09-.23,5.56,4.06C535.16,248.3,534.67,249.6,536.74,250.11Zm-17.89.69c-4.73,2.72-4.81,2.93-3.8,7.15.57,2.36.13,3.71-1.39,4.21a3.16,3.16,0,0,1-4-2.11c-.48-1.47-1-2.4-2.61-2.68a2.37,2.37,0,0,1-1.35-1.8c-.08-2.92-2-3.34-4.25-3.45-.83,0-1.81.27-2.47-.06a10.67,10.67,0,0,1-3.92-2.7c-1.17-1.6.44-2.74,1.5-3.83.15-.15.08-.52.13-1l-1.77-2.06a8.33,8.33,0,0,0-1,1.06c-1.67,2.69-1.63,2.63-4.2,1a15.53,15.53,0,0,0-3.23-1.13,7.35,7.35,0,0,0-.5,1.74c.68,10.38,4.16,19.33,13.5,25a68.87,68.87,0,0,0,10.43,5.25,189.16,189.16,0,0,0,49.9,11.73c9.83,1,19.72,1.45,29.59,2,6.95.4,13.91.63,20.87.84,10.43.32,20.84.78,31.3-.33,8.86-.94,17.1-3.86,25.36-6.68,3.42-1.17,6.6-3.71,9.24-6.29,4.65-4.53,6.57-10.38,6.71-16.65l-6.78-.29-2,3.19c-1.48-.92-3-2.62-4.6-.1a24.25,24.25,0,0,1,.77,3c.29,2.23-.51,2.88-2.84,2.81a11.11,11.11,0,0,0-4,.42c-4.26,1.51-4.66,1.29-5.11-3.12-.07-.72-.48-1.78-1-2a2.42,2.42,0,0,0-2.11.71,3.46,3.46,0,0,1-4.46,1c-2.21-.91-3.58-.17-4.54,2.13-1.08,2.6-3.35,3.34-5.28,2a5.46,5.46,0,0,1-1.43-2c-.7-1.34-1.6-1.34-3-.33,1,2.64,1,5.29-1.76,7.24s-3.85-1.2-5.85-1.79c-2.55,2.45-5.31,4.2-9,3.86-2.44-.23-3.26-.87-3.34-3.31-.06-1.93.15-3.87.23-5.75-1.4-1.22-2.78-2.15-4.59-1.14-2.63,1.46-5.31,2.28-8.37,1.37-.8-.24-1.82.28-2.76.46-.17,1-.27,1.82-.44,2.63-.43,2-1.8,2.9-3.69,2.38a14.87,14.87,0,0,0-7.41.21c-4,.9-6.26-2.52-9.21-4.09-.9-.48-.94-2.55-1.52-4.36l-9,1.4c-1,2.38-1.54,4.64-2.84,6.27-2.27,2.85-5,2.22-6.11-1.22-.51-1.59-1.1-2.87-2.84-3.21-3.2-.63-5.67-2-5.86-5.61-3.27.47-5.18,1.45-5.32,5-.12,3.06-2.13,3.77-4.6,1.85a6.18,6.18,0,0,1-2.35-3.59c-.37-3-1.89-4.7-4.65-5.07s-4.4-1.51-5.17-4.45c-.73-2.77-3.33-3.18-5.53-1.3a12.32,12.32,0,0,1-2.57,2.08,3.24,3.24,0,0,1-2.68,0c-.55-.38-.65-1.62-.7-2.5A36.32,36.32,0,0,1,518.85,250.8ZM562.31,212c1.3,2.79,3.42,3.91,5.36,5.15,6.3,4,13.31,6.29,20.5,8.09,8.5,2.13,17,4.47,25.49,6.46a44.48,44.48,0,0,0,11.12,1.39c7.93-.21,15.84-.93,23.75-1.52a39.78,39.78,0,0,1,17.26,2.06,58.33,58.33,0,0,0,8.83,2.51c6.13,1.25,10.78-1.54,12.44-7,1.08-3.57,2.49-7,3.63-10.6s2.11-7.18-.81-11.34c-.06,1.39-.09,2-.12,2.69-.29,7-4.94,11.06-11.88,10.09a40.1,40.1,0,0,1-7.2-2c-8.57-2.91-17.07-6-25.68-8.78-6.08-1.95-12.25-3.59-17.46-7.81l-2.82,4.35L635,211.61c-4.55-.42-8.22-2.52-11.55-5.34a14.31,14.31,0,0,0-1.6.84c-6.13,4.36-12.32,8.6-17.15,14.54-2.79,3.44-4.77,3.73-8.84,2.15a14.43,14.43,0,0,1-2.27-1c-8.8-5.33-18.48-8.38-28.36-10.88A10.91,10.91,0,0,0,562.31,212Zm-11.41,2.5c0-3-1.28-5-3.33-5.87-2.67-1.14-4.23-2.9-4.67-5.28-3.37.24-6.38.43-9.4.67a10.24,10.24,0,0,0-2.86.49c-6.93,2.7-14.14,2.92-21.4,2.42s-14.3-1.76-21.11-5.09c-.13,1.13-.29,1.94-.29,2.74,0,1.39.15,2.79.13,4.18a3.43,3.43,0,0,0,2.46,3.48c1.29.52,2.55,1.14,3.86,1.6a77.48,77.48,0,0,0,29.59,4.3A146.88,146.88,0,0,0,550.9,214.54Zm77.74-17c.49,2.84.47,3.15,2.57,4.26a59.91,59.91,0,0,0,8.38,3.69q17,5.82,34.06,11.36A22,22,0,0,0,680.2,218a7.75,7.75,0,0,0,6.8-11.09c-1-2.11-2.66-3.43-5.29-3-.09.78-.14,1.32-.21,1.85-.3,2.22-1.26,4-3.49,4.76s-4.22-.55-5.45-2.23a49.27,49.27,0,0,1-3.49-6.5c-3.62-1.85-7.49-3.76-11.28-5.81a4.35,4.35,0,0,0-5.36.37c-3.27,2.56-6.18,2.41-8.56-.9a8.22,8.22,0,0,0-6.3-3.64C633.55,196.29,633.55,196.29,628.65,197.52Zm-20.2-10.94c-.79,1-1.43,1.7-1.93,2.48a13.41,13.41,0,0,1-14.69,5.83,12.22,12.22,0,0,0-7.3.66,13.85,13.85,0,0,1-6.07.95,10.22,10.22,0,0,0-7.8,2.05c-1.23.88-2.87,1.17-4.33,1.73l-.27-.64,6.87-4.84-.39-.86A32.06,32.06,0,0,0,567.9,195c-5,1.93-9.94,3.53-15.34,3.73-2.71.1-5.6.25-7.85,2.59.82,1.7.38,3.91,2.72,4.82,3.09,1.2,4.7,3.68,5.65,6.78.63,2,1.4,4.17,4,5.42a44.69,44.69,0,0,1,2.3-4.54c1-1.6,2-3.64,3.59-4.42,4-2,8.08-4,12.36-4.87,6.65-1.4,13.5-1.9,20.26-2.8a56.56,56.56,0,0,0,7-1c4.37-1.15,8.26-3.13,10.34-7Zm16.42,8.5c-4.71,5.95-16.45,14.79-21.8,16.24,5.94-6.23,14.77-8.39,19.28-16.11A6.38,6.38,0,0,1,614.8,194c-4.17,6.92-10.58,9-17.82,9.69-6.93.69-13.82,1.73-20.73,2.65-3.47.46-6.35,2.29-10.19,4.14,1.31.37,1.79.54,2.28.63a78.82,78.82,0,0,1,26.11,9.73,14.09,14.09,0,0,0,1.87.93c3.21,1.27,4.51.9,7-1.68a93.5,93.5,0,0,1,7.41-7.34c3.54-2.93,7.48-5.38,11-8.31A24.77,24.77,0,0,0,626.2,199C627.32,197.37,626.82,195.89,624.87,195.08Zm-56.71-2.82a32.61,32.61,0,0,0-.9-3.28c-1.47-3.77-5.49-4.46-8.22-1.44a18.38,18.38,0,0,1-1.59,1.93c-2.76,2.3-6.06,4.13-9.47,2.67-2.47-1.06-4.19-.42-6.29.23-3.79,1.17-7.63,2.2-11.45,3.29l-.26-1c2.36-.71,4.75-1.37,7.09-2.14,4-1.32,8.56-1.9,9.71-7.11a4.27,4.27,0,0,0-.11-1c-2.44,2.17-4.52,1.59-6.56-.52-1.49-1.55-3.23-2.86-5.15-4.52a15.18,15.18,0,0,1-1.75,3,9.79,9.79,0,0,1-3.43,2.68,19.16,19.16,0,0,1-6.86,1.6c-5.19-.12-7.61,4.28-12,5.87a19.89,19.89,0,0,1,2,2.45c1.62,3,4.11,3.85,7.37,3.3a41.62,41.62,0,0,1,5.18-.26c1.68,4.39,1.78,4.41,6.13,4,1.66-.16,3.38.11,5-.21,2-.39,4.21-.75,5.79-1.88a17.67,17.67,0,0,1,10.1-3.39A35.23,35.23,0,0,0,568.16,192.26ZM613,185.17C609.21,184,605.8,183,602.37,182a6.83,6.83,0,0,0-2,.05c-2.21.09-4.42.28-6.62.27-4.92,0-9.83-.14-15.39-.23,2.21,4.16,4,7.16,8.75,6.89a7.33,7.33,0,0,1,6.24,2.78c-2.62-.51-4.78-1.29-6.91-1.25a7.44,7.44,0,0,1-7.13-4.12,13.58,13.58,0,0,0-1.81-2.79,5,5,0,0,0-2.63-1.59c-2.3-.26-4.65-.15-7.14-.19.5,2.31.9,4.34,1.37,6.35.57,2.46,1.44,4.44,4.64,4.29,1.08-.05,2.2,1,3.33,1.55,2.08,1,4.05,1.48,6.32.15a11.3,11.3,0,0,1,10-.73,9.53,9.53,0,0,0,4.37.19c3.28-.45,5.47-2.44,7-5.34.88-1.7,1.85-3.44,4.64-4l3.35,6.15Zm96.19,17.65c-2.25-3.08-3.21-6.23-4.8-9.06-1.71-3-2.35-6.69-5.34-9.75.06,4-2.83,3.58-5,4.06,1.11,6.78.89,10.28-8.74,6.89-1.19,2.73-3.81,3.09-6.45,3.49-4.38.67-5.42.06-6.27-4.31-.28-1.46-.53-2.6-2.09-3.24-.79-.33-1.29-1.32-2-1.94s-1.44-1.06-2.5-1.83c-.85,3.49-.25,7.06-4.2,9.42,3.84,1.3,6.77,2.71,9.86,3.27,9.43,1.7,18.91,3.11,28.38,4.54A13.38,13.38,0,0,0,709.17,202.82Zm-48.26,56.35c3.25-.54,6.81-2.1,9.82-1.38,3.47.83,6.63-1.56,10.07.57.58-5.52,4.8-4.83,8.4-5.36a7.86,7.86,0,0,1,5.45-7l-1.6-2.72c-.82.43-1.4.78-2,1-2.95,1.26-4.17.35-3.84-2.9.1-1,.61-2,.48-2.86a3.08,3.08,0,0,0-1.41-2.13,1.65,1.65,0,0,0-2.39,1.53c-.06,3.1-1.88,6.14.28,9.77l-4.46-1.8c-1.53,2.85-2.35,6.51-6.85,5.05-.63,3.32-2.61,4.81-5.58,5-2.06.15-2.86-.84-2.26-2.79.35-1.15.87-2.25,1.48-3.78l-3.4-.58c-1.49,1.56-2.4,3.18-3.77,3.81-2.7,1.23-2.16,4-3.41,5.94-.53.8,0,2.27,0,3.52,5-.62,4,3.32,4.63,5.56l8-1.34a12.26,12.26,0,0,1-.82-3.44c0-1.05.78-2.07,1.28-3.28C662,261.42,662,261.42,660.91,259.17Zm26.62-71.44c-1.87-1.41-2.92-2.29-4.05-3a13,13,0,0,0-11.33-2c-6.56,1.71-13.41,2.29-20.14,3.36-.9.14-1.78.36-2.84.57.14.83.22,1.35.31,1.88.25,1.4.6,2.93-1.12,3.57a3.44,3.44,0,0,1-4-1.43,23.26,23.26,0,0,0-1.55-2.46,5,5,0,0,0-2.41-1.19c-.25-.05-1.12,1.11-1,1.51.23.79.92,2,1.48,2,2.38.14,3.14,1.77,4.18,3.48,1.36,2.22,3.92,2.79,5.67,1.22,2.39-2.14,4.75-2.24,7.71-1.43,3.38.93,4.79-.33,5.26-3.84a9.5,9.5,0,0,1,.57-2.84c.58-1.2,1.92-2.27,3-1.32,2.59,2.26,6.24,3.64,6.89,7.74.18,1.12,1,3,1.61,3a15.09,15.09,0,0,0,6.08-.8c.81-.29,1.42-2,1.59-3.07C683.74,190.56,684.13,188.61,687.53,187.73Zm-178-4.71c-.24-2-.52-3.82-.65-5.65-.09-1.29-.08-2.52-2.16-2.73l-.63,5.6c-1.64.45-3,.86-4.3,1.17-1.77.41-3.51-.39-3.53-2-.06-4.23-3-5.09-6.06-6a5.29,5.29,0,0,1-1.31-1c2-1.37,3.93,1.74,6.07-.48l-4.19-2c.45-3.18.31-3.36-2.33-4.55-1.64-.74-3.19-1.68-4.79-2.52-2.29-1.19-4.59-2.37-6.86-3.54-1.75,3.43-1.65,4.27.62,6.05,1.25,1,2.59,1.86,3.72,2.67-.78,3.38-3.76,3.11-5.56,4.29a9.32,9.32,0,0,0,6,7.29C492.14,182.55,500.62,186.12,509.58,183Zm72,78.07c1.33-.95,2.36-.44,2.77.69a3.45,3.45,0,0,1-.41,2.53,28.13,28.13,0,0,1-2.54,3.29c.72.59,1.29,1,1.76,1.45a8,8,0,0,0,8.78,2.11c1.33-.43,3,.15,4.46.12a14.69,14.69,0,0,0,2.8-.72c-8.12-4.35-8.12-4.35-9.17-6.82a64.93,64.93,0,0,0,6.27,3.69c2.59,1.18,4.16-2.08,7.27-1.37-2.35-3.16-4.12-5.74-6.13-8.11a3,3,0,0,0-2.65-.29c-1,.35-1.72,1.43-2.71,1.87-1.32.59-2.9,1.44-4.15,1.17-3.16-.69-6.8.48-9.5-2.24-.28-.28-1.05-.09-1.59-.1a35.5,35.5,0,0,1-5.8-.15,7.71,7.71,0,0,1-3.36-2,10,10,0,0,1-1.51-2.67c-2.63,1.25-5.74-.45-8.85,2.46a25,25,0,0,0,3.54-.13c3.78-.81,4-.62,4.29,3.42s2.52,5.69,6.4,5.13c3.42-.49,6.88-.77,10.32-1.17.22,0,.41-.28.61-.42ZM563.5,272.94c4-2.25,4.9-4.25,2.83-7.09a15.37,15.37,0,0,1-3.35-8.38c-6.9.19-12.27-1.82-15.57-7.94-1.17-2.16-3.1-2.29-5.24-2.08,0,.64,0,1,.1,1.16.47.69,1,1.33,1.52,2,2.59,3.26,2.47,4.93-.57,7.86-2.23,2.15-2.75,6.44-.95,8.9.43.58,1.32.82,2.27,1.38a11.93,11.93,0,0,0,.46-2.27c-.05-2.87,1.53-4.31,4.12-5,.94-.25,1.84-.64,2.77-.94,1.69-.55,3,0,2.76,1.83-.44,2.94,1.29,3.71,3.48,4.15,2.64.54,4.23,2,4.52,4.72A6.54,6.54,0,0,0,563.5,272.94ZM487,230.78c.41.8.57,1.2.8,1.54.74,1.08,1.59,2.41.21,3.27-.83.52-2.3.18-3.44,0a10,10,0,0,1-2.36-1.1c.64,4.93,2.92,8,7.85,8.4a5.23,5.23,0,0,1,1.56.8l2.19-3.17L493,232l1-.12c.33,2.12.31,4.37,1.07,6.32s2.36,3.86,3.59,5.77l1-.44c-1.39-3.46-.27-7.29-2.38-10.74-1.05-1.72-1.24-4-1.9-5.93A9.9,9.9,0,0,0,494,223.5a5.11,5.11,0,0,1-1.09-5,25,25,0,0,0,.38-3.14c-2.53.39-4.88.69-5.28,3.08s-.55,5.27.51,7.22C489.94,228.2,489.24,229.42,487,230.78Zm24.6-50c2.46.68,5.71,1,8,3.6.57.65,2.36.41,3.55.29s2.41-.84,3.63-.9c3-.15,4.93-1.48,5.82-4.37a16,16,0,0,1,1.15-2.31c-3.76-2.26-6.85,2-10.94.75l4.33-2.49c-6.3-.64-11.89-4.19-17.93-3.66Zm106.51,13.31a28.5,28.5,0,0,0,3.93-1.28c2-1,3.56-1.27,5,.94a3.16,3.16,0,0,0,4.49.82,11.26,11.26,0,0,0,5.87-8.14l-21.49-1.61C613.3,188.69,616.31,191,618.12,194.12Zm-94.77,6.14c-3.27.3-6.37-.09-9.08,1.85a4,4,0,0,1-2.41.31c-2.77-.2-5.54-.44-8.3-.77a32.28,32.28,0,0,1-5.76-1c-3.36-1-4-3.85-1.7-6.38.52-.57,1.13-1.06,1.69-1.58a8.56,8.56,0,0,0-4.56.27c-2.7.89-4.78,3.1-4.56,4.87.33,2.68,2.52,3.48,4.66,4.17a66.09,66.09,0,0,0,25.54,3c2.27-.17,4.52-.55,7.13-.87Zm-13.54,42.66L504.35,248l-.73-.75,4.16-5c-1.39-.78-2.47-1.38-3.53-2s-2.21-1.31-3.52-2.09c.27,6.4.27,6.4-3.78,10.39.82,1.71,2.42,1.5,3.91,1.58,3.15.17,6.28.35,6.89,4.47.05.34.45.87.71.89,2.53.17,2.53,2,2.84,3.85.19,1.14,1.08,1.56,2.08.54-1.66-5.21-.72-7.76.78-15.71Zm190.82-66.26c-2.92-3.17-3.37-3-6.67-.83a54.62,54.62,0,0,1-8.13,4.07,27.38,27.38,0,0,1-4.08,1.11c2.38,2,5.07,3.36,6.36,5.55s1.12,5.13,1.6,7.8c3.23.2,3.55-.23,2.84-4.05s-.59-3.88,3.2-4.34a3.46,3.46,0,0,0,1-.51C696.61,180.29,696.61,180.29,700.62,176.67ZM538.9,259.87c6.21-5.72,6.27-4.41,1.68-11.3-.06-.08-.23-.09-.79-.28l-1.5,4.51c-5.69-.38-5.47-4.22-4.74-8.13-3.84.07-4.7,1.3-5.33,6.4l5.53,7.57Zm26.73-75.28.56-1c-.82-.78-1.56-2.1-2.48-2.26A69.66,69.66,0,0,0,550.2,180c1.24,3.2.63,5.3-2,6.8a3,3,0,0,0-.93,2.76,3.11,3.11,0,0,0,2.74,1.19c2.52-.57,5.23-.89,7-3.33C559,184.42,561.76,182.87,565.64,184.59Zm-73,3.77,15.26,4.15,9.63-6.42c-.81-1.9-1.88-1.3-3-1.22-5.92.38-11.75,2.36-17.78.87C495.08,185.32,493.89,186.23,492.65,188.36Zm134.29,77.54c.63,4,.14,4.64-4.16,5.54a6.67,6.67,0,0,0-2,.47,24,24,0,0,0-2.68,2.19,10.41,10.41,0,0,0,2,.89,8.25,8.25,0,0,0,6.47-2.16c2.55-2,2.64-1.92,5.2.26a9.64,9.64,0,0,0,1.32.81c3.88-1.92,2.19-4.82,1.31-7.52l4.49-2.22c-1.37-.73-2.11-1.44-2.82-1.41a11.24,11.24,0,0,0-3.14,1C631.05,264.36,629.19,265.06,626.93,265.89ZM507.1,169.77l-11.48-5.22c-1.38,1.2-1.15,2.71-.11,3.34,3.38,2.06,2.84,5.73,4,8.7.34.87.58,1.78,1,3l3.11-.71ZM514.3,201c-1.84-3.48-3.12-5.82-6.43-6a6.44,6.44,0,0,1-2.71-1c-2.35-1.38-4.6-.78-6.65.44-.94.56-2.08,1.83-2,2.7s1.57,1.92,2.57,2.07C503.78,200,508.55,200.39,514.3,201Zm91.85,54.83-3.57,6.38a9.13,9.13,0,0,1,1.65,1.59c2.18,3.36,2.38,3.62,5.77,2a9.93,9.93,0,0,1,7.23-.69c-.68-1.33-1.35-2.73-2.41-3.14-3.21-1.27-5.23-2.48-7.24-5.06A8.29,8.29,0,0,0,606.15,255.87Zm46.9,8.3c2.7-3.65,2.08-3.8-2.57-7.87-1.46,1.53-2.69,3.35-4.38,4.46s-3.95,1.62-6.14,2.46c.91,2.36.32,5,3.43,5.29C646.81,262.91,647.24,262.71,653,264.17Zm-26.21-2.44c-4.6-.72-7.87,2.73-7.85,8.42l5.48-1.35ZM527,246.21l-6.73-.76,1,10A12.17,12.17,0,0,0,527,246.21Zm21.46-64.29c.32-1.13.43-2.32-1.11-2.52-3-.4-6.12-.63-9.3-.94-.06,4.13,3.49,4,4.91,5.77Zm123,20.14a6.58,6.58,0,0,0,3,5.66c.92.6,2.47,1.09,3.32.71a3.46,3.46,0,0,0,1.67-2.91,4.66,4.66,0,0,0-2.58-2.75C675.41,202.19,673.65,202.3,671.49,202.06ZM518.34,248.74c-.24-2.71-.24-2.71-2.24-4.38l-1.72,5.81Zm126.15-62.44c.81,3.14.81,3.14,3.53,4.18l-.39-4.14Zm-39-76.71c2.68.86,4.41,1.63,6.22-.72C609.66,107.44,608,107.58,605.52,109.59Zm31,4.88c2.26,1.28,3.81,1,5.76-.54C640.1,112.57,638.53,112.69,636.5,114.47ZM619,110.59q0,.56,0,1.11l4.51-.32C622,109.3,620.52,109.57,619,110.59Zm-95.73,5.65-.46-1.05c-1.71-.18-3.19.08-4.21,3.16Zm32.42-8.71c2,.92,3.47.54,4.92-1.2C558.55,105.47,557,105.5,555.7,107.53Zm-55.57,25.69c2.1-.84,3.2-1.86,2.6-4C500.46,129.41,500.09,130.84,500.14,133.22Zm13.29-10.73.55.66c2.55-1.27,2.55-1.27,2.69-3.92Zm80.73-15.55c2.07.77,3.83,1.45,5.57-.63C597.66,105.36,596,105.23,594.16,106.95Zm33.63,8.26c-1.77-1.71-1.77-1.71-4.06-1.45C625.68,115.22,625.68,115.22,627.79,115.2Zm-125.64,19,.81,1.13,3.46-2.74-.65-.88Zm185.78,56.09c-2.84.61-2.84.61-1.21,3.53Zm-99.59-81.13,3.5.08C590.75,107.62,589.61,107.14,588.34,109.13Zm6.06,1.8c2,1.49,2,1.49,4.49.51Zm-96.87,28a18.49,18.49,0,0,0,2.13-2,8.77,8.77,0,0,0,.6-2.13c-1,.76-1.57,1-1.8,1.37A16.58,16.58,0,0,0,497.52,139Z"/><path class="cls-1" d="M672.24,145.17c-1.42-1.75-3.9-2.92-2.52-5.39,1.13-2,3-.42,4-.27a32.11,32.11,0,0,1,5.14-2.49,2.94,2.94,0,0,1,3.8,1.78c.59,1.89-1,2.83-2.43,3.29a28.28,28.28,0,0,1-4.71.64c.14.89.26,1.79.41,2.69a4.32,4.32,0,0,1-2.23,4.57,3.6,3.6,0,0,1-3-.07c-.4-.2-.38-1.74-.15-2.56S671.57,146,672.24,145.17Zm3.56-5.15c3.48,1.7,3.72,1.64,5.39-1.06C679.22,137.54,677.67,138.34,675.81,140Zm-1.37,3c-.63-2.27-1.64-3.09-3.86-2.64C670.94,142.47,671.82,143.41,674.44,143.07Zm.31,3.55-.8-.72c-1.13.7-2.44,1.28-2,4.12Z"/><path class="cls-1" d="M506.9,149.55c-1.44-.3-3.56-.28-3.21-2.94.29-2.21,3-5,4.89-5.09,1.54,0,2.44.79,2.25,2.29a19.13,19.13,0,0,1-1.14,3.53c2.77,2.59,3.16,4.39,1.35,7.44-.44.74-1.62,1.8-2.05,1.63a3.66,3.66,0,0,1-2-2.19A21,21,0,0,1,506.9,149.55ZM505.32,148c2.69-.91,3.92-2.31,4.22-4.77C506.14,143.71,505.87,144,505.32,148Zm4.33,1.29c-1.92,1.69-2.19,3.42-.81,5.71C510.48,153.17,511.3,151.53,509.65,149.33Z"/><path class="cls-1" d="M527.86,135.66c.79-1,1.41-2.17,2.41-2.77a3.36,3.36,0,0,1,3-.09,3.32,3.32,0,0,1,.92,2.8c-.4,2.34-2.11,3.46-4.66,3.84a14.79,14.79,0,0,0-3.36,1.26c-1.82.77-3.66,1.59-5.5.24a2,2,0,0,1-.61-1.8c.72-2.05,2.53-2.86,4.48-3.28A21.41,21.41,0,0,1,527.86,135.66Zm-7,4.35c3.1.42,4.87-.18,6.37-2.41C524.39,136.43,522.84,137.6,520.87,140Zm11.78-5.92c-2-.63-2.62.69-3.11,1.91-.21.53.23,1.33.42,2.17C532.19,137.31,533,136.09,532.65,134.09Z"/><path class="cls-1" d="M644.5,129.91a19.14,19.14,0,0,1-3-1c-2.09-1.19-2.07-3.45.12-4.5a36.76,36.76,0,0,1,6.85-2.64,6,6,0,0,1,4,.65c1.06.59,2.41,2,2.36,2.95-.09,1.78-2,1.73-3.29,1.35s-1.87.54-2.77,1.16A26.07,26.07,0,0,1,644.5,129.91Zm3.45-3.6c-3.08-2.16-4.94-1.91-6.31.87C645.13,128.75,645.51,128.7,647.95,126.31Zm4.92-.49c-2-3.33-2-3.33-5.7-2Z"/><path class="cls-1" d="M666.24,132.94a7.44,7.44,0,0,1-6.44-2.27c-1.07-1.14-1.48-2.3-.09-3.59a10.13,10.13,0,0,0,1.36-2c1.88-2.86,6.38-2.84,8,.14.38.71.35,2.46,0,2.62-2.29,1.05-1.83,3.46-2.81,5.11Zm2-6.06c-2.44-3-3.11-3.13-6.09-1.3C664.44,128.14,664.73,128.21,668.24,126.88Zm-2.39,4.62c-1.59-2.7-3.28-3.29-5.93-3.05C661.23,130.69,662.8,131.52,665.85,131.5Z"/><path class="cls-1" d="M620.51,121.57l-4.44,1c-.77,1.88-1.93,3.79-4.39,4.07a3.05,3.05,0,0,1-2.49-.83,2.86,2.86,0,0,1,.36-2.57,37.42,37.42,0,0,1,4.13-4.53C616.06,116.48,618.57,117.34,620.51,121.57Zm-10.36,4c2.42-.26,3.92-.74,3.84-3.33C612.21,122.68,610.64,123,610.16,125.56Zm8.17-4.73c-1.07-2.19-2.27-2.44-3.9-.44Z"/><path class="cls-1" d="M600.67,129.81c.11-1.79,1.73-2.5,3.64-2.48a3.11,3.11,0,0,1,3.24,2.62c.36,1.38,1.56,2.52,2.16,3.88.29.66.35,2,0,2.24a3.49,3.49,0,0,1-2.59.43,4.47,4.47,0,0,1-1.88-1.51C603.78,133.43,602.41,131.8,600.67,129.81Zm4.69,2.16c.14,2.47,1,3.5,3.2,3.68C608.58,133.44,607.59,132.52,605.36,132Zm-2.62-1.65,3.38-.23C604.57,128.32,603.6,128.45,602.74,130.32Z"/><path class="cls-1" d="M531,149.58a40.77,40.77,0,0,1-5-3.87,2.94,2.94,0,0,1-.2-2.89,3.77,3.77,0,0,1,3.18-1.08,12.71,12.71,0,0,1,4.41,2.92,3.2,3.2,0,0,1,.76,2.89C533.75,148.42,532.37,148.79,531,149.58ZM533.1,147c-2.07-4-3.13-4.56-6.13-3.21C528.65,147.14,529.27,147.49,533.1,147Z"/><path class="cls-1" d="M547.41,143.19c-2.47-.37-3.47-2.16-2.22-3.89,1.42-2,3.39-3.37,6-3.05a3.64,3.64,0,0,1,2.59,1.63,3.47,3.47,0,0,1-.67,2.93A6.69,6.69,0,0,1,547.41,143.19Zm5-4.67c-3.53-1.4-5.21-.63-6,2.77C550.07,141.92,550.76,141.61,552.4,138.51Z"/><path class="cls-1" d="M637.46,138.54c-.25,2.42-2,3.35-4.09,2.17a6.81,6.81,0,0,1-3.53-6.16c-.06-2.22,1.6-3.18,3.65-2.29C635.84,133.28,637.69,136.22,637.46,138.54Zm-2,1.35c.89-4.16.15-5.37-3.63-6.26C631.15,137.56,631.56,138.31,635.42,139.89Z"/><path class="cls-1" d="M576.36,136.84c-.12,1.23-.57,2.54-2.39,2.46s-3.58-2.5-3.36-4.55c.2-1.83,1.36-3.05,2.82-3C575.22,131.87,576.56,134.05,576.36,136.84Zm-2.19.69c.46-2.31.46-2.31-1-3.93C571.27,135.85,571.33,136.07,574.17,137.53Z"/><path class="cls-1" d="M599.09,115.16a28,28,0,0,1,3.89,3.36,2.74,2.74,0,0,1,0,2.62,2.8,2.8,0,0,1-2.5.71,8.3,8.3,0,0,1-3.51-2.06,3.24,3.24,0,0,1-.62-2.87C596.66,116.16,598,115.82,599.09,115.16Zm-2,3.22,4.61,2.63C600.95,117.12,600.7,117,597.08,118.39Z"/><path class="cls-1" d="M612.73,147.49a24.22,24.22,0,0,1-2.55,3.81,2.81,2.81,0,0,1-2.52.6c-.68-.31-1.53-1.68-1.33-2.24a18.06,18.06,0,0,1,2.73-4.92c.34-.43,2-.35,2.6.09S612.35,146.45,612.73,147.49Zm-4.8,3.56c2.55-1.2,3.38-2.75,3.08-5.09C607.85,146.88,607.85,146.88,607.93,151Z"/><path class="cls-1" d="M531.77,117.24c2.53.23,4.19-1.16,5.48-3.5,1.32,1.68,0,2.5-.82,3.17-1.66,1.35-3.58,2.23-5.77,1.37a1.62,1.62,0,0,1-.86-1.26c.27-2.34,2.37-2.85,4.05-3.72.28-.15.75.06,2,.19l-4.7,2.71Z"/><path class="cls-1" d="M681.27,151.78c-.43,2.74-4.14,4.83-6.23,3.72-.62-.33-1.46-1.41-1.31-1.83a5,5,0,0,1,2-2.79,12,12,0,0,1,4.65-.83C680.7,150,681.06,151.36,681.27,151.78Zm-1.34-.31c-2.43-.34-4.17-.14-5,2.5C677.47,154.82,679,154.12,679.93,151.47Z"/><path class="cls-1" d="M585.52,117.58c-.86-.86-1.91-1.48-2.14-2.32-.13-.48.95-1.67,1.7-1.94a11.69,11.69,0,0,1,4.07-.57,1.72,1.72,0,0,1,.81,3A38.65,38.65,0,0,1,585.52,117.58Zm-.52-2.92.17,1.08,3.78-.59-.18-1.14Z"/><path class="cls-1" d="M614.07,140.1c-.33-.55-1.28-1.45-1.33-2.39-.08-1.46,3.32-4.21,4.61-4.12a2.39,2.39,0,0,1,2.28,2.83C619.3,138.41,616.79,140.37,614.07,140.1ZM614,139c2.61-.42,4-1.25,4.18-3.77C615.8,135.42,614.5,136.27,614,139Z"/><path class="cls-1" d="M517,133c-.25,2.71-3.77,5.62-5.8,5.2a2.48,2.48,0,0,1-1.44-1.9c0-1.88,3.41-4.9,5.17-4.63C515.81,131.82,516.54,132.69,517,133Zm-6.81,3.43c3.8-.06,4.12-.32,5.3-4.24Z"/><path class="cls-1" d="M618.32,129c-.35-.47-1.49-1.32-1.55-2.23-.09-1.6,3.18-3.2,5.32-2.87,1.25.19,2.09.76,1.81,2.18C623.56,127.86,621.08,129.36,618.32,129Zm4.19-2.48-.65-1.4-3.7,1.62.44,1.12Z"/><path class="cls-1" d="M666.24,133c3.27-2.18,5.77-2,7.32.68.42.72.64,2.23.23,2.6a3.19,3.19,0,0,1-2.83.67,17.25,17.25,0,0,1-3.35-2.88c-.44-.39-.91-.74-1.37-1.1Zm5.59,3.12c.43-2.81-.87-3.45-3.93-3.26Z"/><path class="cls-1" d="M571.41,129.35c-.43.42-1.11,1.6-2.1,2-1.51.55-2.16-.77-2.58-2a4,4,0,0,1-.13-.4c-.36-1.64-.87-3.39.75-4.6a2.54,2.54,0,0,1,2.25,0C571.23,125.23,571.65,126.84,571.41,129.35Zm-2.78-4.15c-1.59,1.9-.87,3.42,0,5.27C570.94,128.51,570.3,127,568.63,125.2Z"/><path class="cls-1" d="M601.29,145.4c-.09,2.75-3.56,5.12-5.83,4.18-.53-.22-1.3-1.19-1.19-1.41.66-1.29,1.31-2.84,2.43-3.56,1-.62,2.57-.33,3.89-.25C600.9,144.38,601.15,145.18,601.29,145.4Zm-1.4,0c-2.57-.13-3.88.63-4.49,2.84C597.87,148.91,599,147.82,599.89,145.4Z"/><path class="cls-1" d="M540.06,125.92c1.31-1.11,2.46-2.59,4-3.22,1.66-.7,3,1,2.19,2.66a5.72,5.72,0,0,1-4.17,3.65c-2,.36-2.7-.86-1.89-3.16.59.59,1.29,1.79,1.73,1.7a3.31,3.31,0,0,0,2.94-3.57c-.48-.15-.8-.37-1-.28C542.59,124.4,541.33,125.17,540.06,125.92Z"/><path class="cls-1" d="M685.6,160.07c-.49.45-1.15,1.47-2,1.69-.49.12-1.36-1-2-1.68-.24-.27-.23-.78-.31-1.19-.4-2.1.2-3.46,1.6-3.68s2.42,1,2.63,3.06C685.58,158.69,685.57,159.1,685.6,160.07Zm-2.08-3.46c-.81,1.92-.81,1.92.83,3.92Z"/><path class="cls-1" d="M517.78,140.39a6.84,6.84,0,0,1,0,5.83,2.76,2.76,0,0,1-2.09,1.49c-.64-.08-1.45-1.18-1.64-2C513.54,143.58,514.88,141.67,517.78,140.39Zm-.5,2.41c-1.66,1.56-1.66,1.56-.84,4.23Z"/><path class="cls-1" d="M525.45,124.72a24.47,24.47,0,0,1-3.25,3.08c-.65.44-1.76.19-2.66.25a11.05,11.05,0,0,1-.1-2.62,4.22,4.22,0,0,1,1.1-1.72c2.16-2.49,3.49-2.17,4.76,1.14Zm-1.53-.32-1.09-1.08-2.78,3.13.86.83Z"/><path class="cls-1" d="M577.63,108c-1.13,2.2-2.41,3.81-4.85,3.51a2.62,2.62,0,0,1-1.89-1.23,2.48,2.48,0,0,1,.73-2.05C573.76,106.1,575.38,106.05,577.63,108Zm-6.52,1.7c3.56.5,3.56.51,4.82-2.42Z"/><path class="cls-1" d="M558.29,120.36a29.43,29.43,0,0,1-3,3.61c-.27.25-1.93-.35-2-.65a13.32,13.32,0,0,1,.21-4.28c.29-1.24,1.23-2.49,2.67-1.68C557.1,117.85,557.5,119.15,558.29,120.36Zm-2.36-1.71c-1.76,1.08-2.63,2.08-1.39,4.16A3.12,3.12,0,0,0,555.94,118.65Z"/><path class="cls-1" d="M560.47,109a9.61,9.61,0,0,1,2.63,1c.66.5,1.51,1.59,1.35,2.14a2.89,2.89,0,0,1-2.13,1.5,16.12,16.12,0,0,1-3.67-.34c-1.33-2.84,1-3.2,1.93-4.35Zm2.38,3.26c-2-1.19-2-1.19-3.73.38Z"/><path class="cls-1" d="M658.16,168.92c.08-2,3.11-4.64,4.76-4.23a2.16,2.16,0,0,1,1.26,1.64c-.07,1.66-2.81,4-4.41,3.77C659.12,170,658.58,169.24,658.16,168.92Zm4.85-2.25c-2.3-.75-3.58-.28-3.6,2.91Z"/><path class="cls-1" d="M525.29,124.85a17.71,17.71,0,0,1,2.57-1.9c.49-.25,1.73-.14,1.8.08.31.95.73,2.23.33,3-.59,1.09-1.84,1.81-2.81,2.69a17.73,17.73,0,0,1-1.8-2.35c-.22-.41,0-1.07.06-1.62Zm3.53-.21-.9-.46-1.9,3.19C528.55,127,528.85,125.95,528.83,124.64Z"/><path class="cls-1" d="M655.61,119.72c-.39.27-.94,1-1.6,1.06-1.41.24-3.95-1.6-4-3a2.83,2.83,0,0,1,1.13-2.26C652.8,114.83,655.79,117.46,655.61,119.72Zm-1.44.47c-1-2.63-1-2.63-3.55-2.7Z"/><path class="cls-1" d="M586.17,127.72c2.37.19,3.76,1.74,3.63,3.46-.1,1.4-.7,2.44-2.34,2.25s-3.55-2.54-3.06-3.91C584.7,128.68,585.77,128.1,586.17,127.72ZM585,129.94l2.69,2c.25-.4.79-.88.7-1.19C588.1,129.61,587.37,128.94,585,129.94Z"/><path class="cls-1" d="M661.69,142.82c-2.22-1.63-2.09-3.56-.94-5.74,3.62,1.38,4,2.22,2.9,6.56l-2.06-1c2.87-1.33,1.21-2.61-.34-3.86Z"/><path class="cls-1" d="M562.48,118.84l-.91-3.12c1.84.69,3.23.88,4.1,1.64a6.66,6.66,0,0,1,1.38,3.09c.06.2-.7.9-1.14,1-1.48.2-2.75-.13-2.89-2l2.82.51C563.63,117.39,563.63,117.39,562.48,118.84Z"/><path class="cls-1" d="M598.46,236.27a16.57,16.57,0,0,1,4.22.53c3.62,1.45,7.25,1.37,11.06,1.14,5.88-.35,11.79-.14,17.69-.17l0,.94c-1.18.07-2.36.18-3.55.21-5.83.16-11.65.36-17.48.43a26.69,26.69,0,0,1-5.38-.5c-2.27-.44-4.49-1.14-6.74-1.72Z"/><path class="cls-1" d="M556.44,227.78a18.71,18.71,0,0,1-2.88-1.2,14.46,14.46,0,0,0-11.16-2.09c-2.75.63-5-.5-7.34-2,.7,0,1.41-.06,2.11,0a33.06,33.06,0,0,0,4.91.22C548.65,222,550.88,222.6,556.44,227.78Z"/><path class="cls-1" d="M592.16,235.69l-13.83-1.56c1.81-1.73,3.24-1.57,4.31-1C585.56,234.66,589.56,232.45,592.16,235.69Z"/><path class="cls-1" d="M656.54,237.21c-4.41,2.5-9.55.44-14.68.43a8.89,8.89,0,0,1,2.74-.91C648.69,236.8,652.77,237,656.54,237.21Z"/><path class="cls-1" d="M553.2,245.64l6.88,2.35-.27.77C557.72,247.87,554.64,249.59,553.2,245.64Z"/><path class="cls-1" d="M563.26,228.63c3.57-1.23,5.5,0,7.15,2.16Z"/><path class="cls-1" d="M539.54,237.05c-2.55-1.32-3.22-2.44-2-4.84l.93,2.3Z"/><path class="cls-1" d="M591.48,247.84l3-1.85C594.11,248.08,594.11,248.08,591.48,247.84Z"/><path class="cls-1" d="M629.79,247.66c0,3.18,0,3.18-2.92,2.8Z"/><path class="cls-1" d="M545.16,240.08c-2.47-.86-2.47-.86-2.95-3.51Z"/><path class="cls-1" d="M518,223l2.49,3.79C517.91,226.69,517.11,225.72,518,223Z"/><path class="cls-1" d="M628.27,254l3.23-2.1c-.13,2.38-1.23,2.89-2.74,2.91Z"/><path class="cls-1" d="M592.18,243.23l3.25-2.28C595,243.34,595,243.34,592.18,243.23Z"/><path class="cls-1" d="M620.62,253.06l2.68-2C622.89,253.17,622.89,253.17,620.62,253.06Z"/><path class="cls-1" d="M523.06,225.36l1.43,3.6C522.13,228.26,522,227,523.06,225.36Z"/><path class="cls-1" d="M662.67,204.42c.84-.58,1.79-1.75,2.48-1.61a3.88,3.88,0,0,1,2.44,2.18,2.9,2.9,0,0,1-1,2.68,3.25,3.25,0,0,1-2.88-.6c-.62-.53-.63-1.79-.9-2.73.88,1,1.11,2.88,3.48,2.25.14-1.52.4-2.93-2.06-2.44C663.71,204.25,663.19,204.33,662.67,204.42Z"/><path class="cls-1" d="M557.14,201.81l6.85-1.5a8.72,8.72,0,0,1-6.53,2.76Z"/><path class="cls-1" d="M580.42,210.69c4.32,0,8.23.48,11.64,3.09,1.44,1.11,3.64,1.23,5.68,1.86a4.22,4.22,0,0,1-5,.34A27.43,27.43,0,0,0,582,211.73C581.47,211.65,581,211.05,580.42,210.69Z"/><path class="cls-3" d="M76.83,71.58l5.67,4.28c3.48-1.58,6.9-3.73,11.12-3.38,1.19,2.21.93,4.5,1,6.74.18,5.38.42,10.76.57,16.13a3.28,3.28,0,0,0,2.43,3.47c4,1.46,5.58,4.67,5.48,8.78,0,1.79-.22,3.59-.4,5.38q-1.87,17.88-3.76,35.76c-.14,1.3-.2,2.62-.29,3.82.25.31.36.57.55.66,3.8,1.88,5,5,4.74,9.09-.31,4.41-.18,8.85-.49,13.26-1.52,22-3.23,44-4.64,66-.83,12.91-1.26,25.85-1.8,38.78a4.55,4.55,0,0,1-2,3.88c-4.31,3.24-9.53,3.81-14.45,5.21C67.89,293,54.92,292.23,42,291.77c-7-.25-13.87-1-20.51-3.34-1-.36-2-.69-3-1.11-3.11-1.3-3.2-1.7-3.28-5.13-.2-8.13-.19-16.29-.92-24.38-1.65-18.38-3.62-36.73-5.62-55.07a131,131,0,0,0-5-25.36c-.87-2.74-1.15-5.69-2.22-8.33a9.68,9.68,0,0,1,2.22-10.91C6.65,155,6.48,151.81,6,148c-1.24-10.23-2.19-20.49-3.35-30.73-.62-5.47-1.51-10.91-2.16-16.38-.24-2-.22-4,1.31-5.77A2.93,2.93,0,0,0,2,92.86C1.59,91.36.89,89.95.38,88.47-.46,86,0,85.14,2.57,84.9c3-.28,5.92-.4,9.12-.61.14-2.2-1-4-1.59-5.83-1-3.32-.57-4.87,2.2-6.84.56-.4,1.37-.9,1.93-.77,2.59.63,3.79-1.08,5.37-2.58a73.33,73.33,0,0,1,6.22-4.71,9.25,9.25,0,0,0,1.7-1.68c1.76-2.28,4.27-2.56,6.36-.66.53.48,1.08.95,1.61,1.43a3.18,3.18,0,0,0,4.21.55A7.48,7.48,0,0,1,46,62.77c.55.17,1.44.42,1.51.76.45,2.3,2.4,2.77,4.1,3.34L52.89,75c2.5.86,4.81,2,6.25,4.42.39.66,1.63.84,2.5,1.19,1.22.49,2.46.92,3.66,1.36,3.43-.94,5-3,4.56-6.63-.24-1.89.81-2.89,2.65-3.15Zm-21,15.23c2.43-.63,3.13-2.44,3.29-4.69-1.24-.56-2.19-.64-2.52.87-.28,1.27-.51,2.55-.76,3.83l-.86-5L49.1,84a16.53,16.53,0,0,0,.51,1.85,16.81,16.81,0,0,0,.81,1.58Zm17.31,1.71c.48-1.08.94-2.16,1.43-3.23,1.48-3.21,3-6.42,4.34-9.36-2.14-2.83-4.47-2.5-7.24-1.42.38,3.55-.28,6.83-3.89,8.52l5.38,5.48c2.72,1.75,3.52,4.67,4.48,7.47.52,1.51.91,3.07,1.35,4.59l9-2.79c-1.09-3.12-1.07-3.1,1.28-6.21.27-.36.1-1.05.16-2-2.29,1.19-4.31,1.64-6-.46L81,92.6,80.16,92c1.31-3.2,2.19-6.69,6.38-7.85l-.87-2.32a3.29,3.29,0,0,0-.87.34c-1,.95-2.14,1.64-3.51.72-1.17-.78-1.15-1.92-.94-3.2.1-.59-.33-1.27-.74-2.61C77.61,81.69,76.69,85.91,73.12,88.52ZM16.33,93.1c0,2.95,0,2.95,2.43,3.16C22.05,90.5,26.1,85.59,31.6,83.87l3.78-6.28a31.3,31.3,0,0,0-9.52-4.21L16.86,89c-1.7,1.73-3.41,3.46-4.18,6.44,1-.14,1.8,0,2.3-.4A7,7,0,0,0,16.33,93.1ZM95,282.43c.17-6.79.1-12.79.52-18.76,2.17-31.08,4.46-62.14,6.69-93.22a22,22,0,0,0-.21-2.79C97,173.83,92,179.14,85.9,183.23s-12.57,7.41-19.83,9.06C59,193.9,51.94,194.9,44.69,194a91.44,91.44,0,0,1-21.28-5c-7-2.66-11.94-8.1-17.81-12.39,4,14.4,5.27,29.09,6.82,43.72,1.23,11.56,2.07,23.16,3.43,34.7A191,191,0,0,1,17,281.52c-.07,3.36-.11,3.32,3.18,4.55,7.17,2.67,14.64,3.52,22.22,3.88,15.15.72,30.23.83,44.8-4.27C89.87,284.74,92.45,283.49,95,282.43ZM69.22,180.17c-.43-4.35-.59-8.67-1.32-12.89a119.74,119.74,0,0,0-10.22-32.11c-2.2-4.52-4.25-9.22-7.19-13.24C42.94,111.63,32.8,104.41,21,99.67,17,98,12.48,97.39,8.14,96.54c-1.68-.33-3.5,0-5.59.08a30.79,30.79,0,0,0-.2,4.91c.75,5.94,1.82,11.84,2.45,17.79Q7.3,143.09,9.48,166.9a7.84,7.84,0,0,0,3.29,5.94c13.48,10.59,28.58,14.09,45.34,10.74A39.91,39.91,0,0,0,69.22,180.17ZM53.28,122.72C63.39,140.39,70,159,71,179.54c1.23-.39,2.15-.6,3-1a55.6,55.6,0,0,0,20.74-15.65,7.49,7.49,0,0,0,2.11-5.83,36.88,36.88,0,0,1,.28-6.81c1.24-12.52,2.54-25,3.79-37.54.2-2,.32-4.06.33-6.09a6,6,0,0,0-4.82-6.34A23.71,23.71,0,0,0,89,99.75c-4.87.39-9.11,2.68-13.37,5A81.36,81.36,0,0,0,53.28,122.72ZM1.9,162.9c.66,4.14.85,7.83,3.38,10.37,4.81,4.81,9.69,9.62,15.93,12.69a63.22,63.22,0,0,0,20.28,5.86c24.4,3,43.82-5.69,58.77-25,2.29-3,2.3-6,1.25-9.75-.84,1-1.4,1.79-2,2.5-3,3.44-5.68,7.15-9,10.25-9.75,9.18-21.67,13.88-34.74,16-12.74,2-24.86.33-36.09-6.23-6.46-3.77-12.51-8.05-16.12-14.95C3.35,164.16,2.82,163.83,1.9,162.9ZM37,75.58c3.93-3.17,8.79-3.95,14.35-.77l-1.58-6.28c-1.21-.85-2.66-1.37-3.28-2.39C45,63.7,43,63.5,41,64.7c-3.14,1.86-5.42.72-7.64-1.46a13,13,0,0,0-1-1c-1-.8-2.43-.73-2.82.25-.9,2.25-2.95,2.54-4.64,3.58a12.9,12.9,0,0,0-4.18,3.83c-1.76,2.82-4,3.71-6.94,2.82-2.69,2.75-2.69,2.75-1.53,6.06.16.45.33.9.5,1.35A10.77,10.77,0,0,1,11.37,91,12.52,12.52,0,0,0,10,93.14c-.43.94-.19,1.64.69,1.69.62-1.15,1.12-2.21,1.74-3.2,3.7-5.88,7.44-11.73,11.14-17.6,1.5-2.39,1.94-2.6,4.69-1.65S33.69,74.36,37,75.58Zm-.17,30.17C39.33,101,44,98.9,48,96c-1.37-2.15-2.82-3.63-5.08-4.19a18,18,0,0,1-8.47-5.06c-1.25-1.26-4-1.58-4.78-.3-1,1.64-2.62,2.32-4,3.42a15.59,15.59,0,0,0-5.18,7Zm17,13.37c-.67-.76-1.26-1.32-1.74-2-3.43-4.69-1.91-10.41,3.38-12.79a6.35,6.35,0,0,1,8.55,2.76c.29.51.6,1,1.09,1.83l7.19-4.59C64,95.83,47,100,43.37,111l8.92,9.62Zm3.39-39.63c-.83-1.54-2.23-2-3.73-2.48a31.36,31.36,0,0,1-4.73-1.58,9.78,9.78,0,0,0-7.61-.3c-4.06,1.3-5.48,4.75-6.24,8.11-.63,2.82,2.54,3.88,4.62,5.18a1.83,1.83,0,0,0,.69.1C45.69,83.12,45.69,83.12,57.25,79.49Zm36.22,18L93.13,74c-4.12.19-7.41,1.83-10.76,3.64l-.07,3.87c2.91-2,3.84-2.13,4.91-.67a8.23,8.23,0,0,1,.87,2.64c.71,2.54-2.36,2.67-3,4.39,1.65.73,1.65.73,4.08-.94l.56-9.68.74,0c.14,2.1.33,4.19.41,6.29.06,1.43-.31,2.94,0,4.28.69,2.75.67,5.13-2,6.68C90.56,97.58,90.56,97.58,93.47,97.52ZM64.08,109.76c-1.91-3.8-3.36-4.82-6.1-4.53-2.25.24-5.91,3.26-6.36,5.24-.59,2.61.84,5.55,3.62,7.22Zm-22.83-.22c6.36-8.47,14.1-13.41,25.69-11.16-9.3-5.75-24.78-.72-28.73,8.82Zm-34.2-15,.88,0c.15-3.16,3.49-5,3.49-8.45A35.71,35.71,0,0,0,1,86.52c1.94,5.7,2.27,6.36,4,7.9L3.82,89.64l.51-.2Zm52.13-8.28a16.17,16.17,0,0,1,11,6.07l3.09-1.67c-3.8-3.87-7.45-7.1-12.62-8.45ZM55.84,88c-3.54.83-6.35,1.74-8.84,3.89l2.5,3.45,2.81-.91Zm7.06,5.65,8,4.15c-1.51-4.19-2.58-5.54-5.71-7ZM7.87,167,7,156.68C2.67,160.75,2.79,161.76,7.87,167ZM41.67,89.22c3.19,2.4,5.31,1.08,7.27-1.06L47.38,84Zm17.21-.66c-1.44.67-2.73,1-2,2.88.95,2.37,1.4,2.65,4.8,2.13Zm12.23,4.79c1.74,4.14,1.74,4.14,4.65,2.19L74,91.73Zm5,4.17-2.81.64L74.46,103l3.14-1.59ZM62.19,92l2.59-2.48-5-1.55Zm-4.76,1.72-2-2.2L54.12,94Zm40.9,62.88,1.23.59a8.39,8.39,0,0,0,0-1.56c0-.17-.46-.27-.71-.41Z"/><path class="cls-3" d="M55.55,247,40.35,258.4l-.77-.48c1.12-5.78,2.61-11.5,4-17.39L30.39,229.87a25.84,25.84,0,0,1,3-.8c3.69-.41,7.38-1,11.08-1.08,2.5-.08,3.58-1.16,4.28-3.39,1-3.31,2.36-6.53,3.61-9.78.41-1.07.95-2.08,1.76-3.84,2.24,3,2.62,6,3.73,8.61s2,5.34,3,8.05l16.47-.11c-3.66,5-8.88,6.92-12.21,10.81.77,2.05,1.51,4,2.27,6s1.42,3.82,2.24,5.69,1.8,3.76,3,6.33c-4-.7-6.53-2.76-9.2-4.38S58.26,248.73,55.55,247ZM36,230.82l-.33.76,10.15,8.14-3.16,13.45.66.48L55,244.93c4.5,1.38,8.2,5,13,7.32l-5.43-14.48,10-8.23-13,.17-5-13.2-.77,0-5,12.93Z"/></g></g></svg>